{
.appVersion = "1043";
copyright = "Copyright (c) 2011 by Gesine Todt. All rights reserved.";
customParameters = (
{
name = fsType;
value = (
);
},
{
name = vendorID;
value = "";
},
{
name = description;
value = "Copyright (c) 2011 by Gesine Todt. All rights reserved.";
},
{
name = macintoshFONDFamilyID;
value = 128;
},
{
name = openTypeHeadLowestRecPPEM;
value = 9;
},
{
name = openTypeNameCompatibleFullName;
value = "Amaranth Italic";
},
{
name = openTypeNameLicense;
value = "Copyright (c) 2011 Amaranth by Gesine Todt www.gesine-todt.de. All rights reserved. This Font Software is licensed under the SIL Open Font License, Version 1.1.";
},
{
name = openTypeNameLicenseURL;
value = "http://scripts.sil.org/OFL";
},
{
name = openTypeNameUniqueID;
value = "GesineTodt: Amaranth Italic: 2011";
},
{
name = openTypeNameVersion;
value = "Version 1.000";
},
{
name = openTypeOS2CodePageRanges;
value = (
);
},
{
name = openTypeOS2FamilyClass;
value = (
0,
0
);
},
{
name = openTypeOS2Panose;
value = (
2,
0,
5,
0,
0,
0,
0,
2,
0,
4
);
},
{
name = openTypeOS2StrikeoutPosition;
value = 250;
},
{
name = openTypeOS2StrikeoutSize;
value = 50;
},
{
name = openTypeOS2SubscriptXOffset;
value = 0;
},
{
name = openTypeOS2SubscriptXSize;
value = 700;
},
{
name = openTypeOS2SubscriptYOffset;
value = 140;
},
{
name = openTypeOS2SubscriptYSize;
value = 650;
},
{
name = openTypeOS2SuperscriptXOffset;
value = 0;
},
{
name = openTypeOS2SuperscriptXSize;
value = 700;
},
{
name = openTypeOS2SuperscriptYOffset;
value = 477;
},
{
name = openTypeOS2SuperscriptYSize;
value = 650;
},
{
name = openTypeOS2UnicodeRanges;
value = (
0,
1,
2,
5,
31,
32,
33,
38
);
},
{
name = postscriptBlueFuzz;
value = 1;
},
{
name = postscriptBlueScale;
value = 0.0396;
},
{
name = postscriptBlueShift;
value = 7;
},
{
name = postscriptDefaultWidthX;
value = 500;
},
{
name = postscriptForceBold;
value = 0;
},
{
name = postscriptIsFixedPitch;
value = 0;
},
{
name = postscriptSlantAngle;
value = 0;
},
{

glyphs = (
{
glyphname = A;
lastChange = "2017-07-21 14:56:56 +0000";
layers = (
{
anchors = (
{
name = topUC;
position = "{374, 669}";
}
);
layerId = "3E88664E-E4A1-4C90-B697-57006E853054";
paths = (
{
closed = 1;
nodes = (
"-39 19 LINE",
"75 -8 LINE",
"170 180 LINE",
"394 180 LINE",
"423 0 LINE",
"545 0 LINE",
"417 669 LINE",
"326 669 LINE"
);
},
{
closed = 1;
nodes = (
"382 263 CURVE",
"211 263 LINE",
"267 374 OFFCURVE",
"317 471 OFFCURVE",
"347 529 CURVE",
"353 474 OFFCURVE",
"364 376 OFFCURVE"
);
}
);
width = 570;
},
{
anchors = (
{
name = topUC;
position = "{374, 669}";
}
);
layerId = "A97BF1D1-A3CC-43F5-9A06-B7BB37BB129E";
paths = (
{
closed = 1;
nodes = (
"-60 19 LINE",
"98 -8 LINE",
"184 160 LINE",
"380 160 LINE",
"405 0 LINE",
"571 0 LINE",
"443 669 LINE",
"305 669 LINE"
);
},
{
closed = 1;
nodes = (
"361 281 CURVE",
"245 281 LINE",
"278 348 OFFCURVE",
"312 416 OFFCURVE",
"336 463 CURVE",
"342 418 OFFCURVE",
"350 349 OFFCURVE"
);
}
);
width = 604;
}
);
leftKerningGroup = A;
rightKerningGroup = A;
unicode = 0041;
},
{
glyphname = Aacute;
lastChange = "2017-07-21 14:56:56 +0000";
layers = (
{
layerId = "3E88664E-E4A1-4C90-B697-57006E853054";
paths = (
{
closed = 1;
nodes = (
"-40 19 LINE",
"75 -8 LINE",
"169 180 LINE",
"394 180 LINE",
"422 0 LINE",
"545 0 LINE",
"417 669 LINE",
"325 669 LINE"
);
},
{
closed = 1;
nodes = (
"381 263 CURVE",
"210 263 LINE",
"266 374 OFFCURVE",
"317 471 OFFCURVE",
"347 529 CURVE",
"353 474 OFFCURVE",
"364 376 OFFCURVE"
);
},
{
closed = 1;
nodes = (
"365 713 LINE",
"365 713 OFFCURVE",
"500 807 OFFCURVE",
"584 842 CURVE",
"577 879 OFFCURVE",
"534 921 OFFCURVE",
"534 921 CURVE",
"445 879 OFFCURVE",
"330 771 OFFCURVE",
"330 771 CURVE"
);
}
);
width = 570;
},
{
layerId = "A97BF1D1-A3CC-43F5-9A06-B7BB37BB129E";
paths = (
{
closed = 1;
nodes = (
"-48 19 LINE",
"110 -8 LINE",
"196 160 LINE",
"392 160 LINE",
"417 0 LINE",
"583 0 LINE",
"455 669 LINE",
"317 669 LINE"
);
},
{
closed = 1;
nodes = (
"373 281 CURVE",
"257 281 LINE",
"290 348 OFFCURVE",
"324 416 OFFCURVE",
"348 463 CURVE",
"354 418 OFFCURVE",
"362 349 OFFCURVE"
);
},
{
closed = 1;
nodes = (
"385 705 LINE",
"385 705 OFFCURVE",
"500 785 OFFCURVE",
"615 817 CURVE",
"598 898 OFFCURVE",
"551 942 OFFCURVE",
"551 942 CURVE",
"436 902 OFFCURVE",
"334 789 OFFCURVE",
"334 789 CURVE"
);
}
);
width = 601;
}
);
leftKerningGroup = A;
rightKerningGroup = A;
unicode = 00C1;
},
{
glyphname = Acircumflex;
lastChange = "2017-07-21 14:56:56 +0000";
layers = (
{
layerId = "3E88664E-E4A1-4C90-B697-57006E853054";
paths = (
{
closed = 1;
nodes = (
"-40 19 LINE",
"75 -8 LINE",
"169 180 LINE",
"394 180 LINE",
"422 0 LINE",
"545 0 LINE",
"417 669 LINE",
"325 669 LINE"
);
},
{
closed = 1;
nodes = (
"381 263 CURVE",
"210 263 LINE",
"266 374 OFFCURVE",
"317 471 OFFCURVE",
"347 529 CURVE",
"353 474 OFFCURVE",
"364 376 OFFCURVE"
);
},
{
closed = 1;
nodes = (
"232 705 LINE",
"232 705 OFFCURVE",
"315 756 OFFCURVE",
"391 797 CURVE",
"456 738 OFFCURVE",
"534 703 OFFCURVE",
"534 703 CURVE",
"570 758 LINE",
"570 758 OFFCURVE",
"481 832 OFFCURVE",
"412 913 CURVE",
"322 871 OFFCURVE",
"197 763 OFFCURVE",
"197 763 CURVE"
);
}
);
width = 570;
},
{
layerId = "A97BF1D1-A3CC-43F5-9A06-B7BB37BB129E";
paths = (
{
closed = 1;
nodes = (
"-48 19 LINE",
"110 -8 LINE",
"196 160 LINE",
"392 160 LINE",
"417 0 LINE",
"583 0 LINE",
"455 669 LINE",
"317 669 LINE"
);
},
{
closed = 1;
nodes = (
"373 281 CURVE",
"257 281 LINE",
"290 348 OFFCURVE",
"324 416 OFFCURVE",
"348 463 CURVE",
"354 418 OFFCURVE",
"362 349 OFFCURVE"
);
},
{
closed = 1;
nodes = (
"280 719 LINE",
"280 719 OFFCURVE",
"341 757 OFFCURVE",
"408 799 CURVE",
"469 740 OFFCURVE",
"542 719 OFFCURVE",
"542 719 CURVE",
"596 801 LINE",
"596 801 OFFCURVE",
"501 867 OFFCURVE",
"440 953 CURVE",
"343 900 OFFCURVE",
"229 803 OFFCURVE",
"229 803 CURVE"
);
}
);
width = 601;
}
);
leftKerningGroup = A;
rightKerningGroup = A;
unicode = 00C2;
},
{
glyphname = Adieresis;
lastChange = "2017-07-21 14:56:56 +0000";
layers = (
{
layerId = "3E88664E-E4A1-4C90-B697-57006E853054";
paths = (
{
closed = 1;
nodes = (
"-40 19 LINE",
"75 -8 LINE",
"169 180 LINE",
"394 180 LINE",
"422 0 LINE",
"545 0 LINE",
"417 669 LINE",
"325 669 LINE"
);
},
{
closed = 1;
nodes = (
"381 263 CURVE",
"210 263 LINE",
"266 374 OFFCURVE",
"317 471 OFFCURVE",
"347 529 CURVE",
"353 474 OFFCURVE",
"364 376 OFFCURVE"
);
},
{
closed = 1;
nodes = (
"306 860 CURVE SMOOTH",
"265 860 OFFCURVE",
"241 828 OFFCURVE",
"241 792 CURVE SMOOTH",
"241 759 OFFCURVE",
"257 735 OFFCURVE",
"296 735 CURVE SMOOTH",
"337 735 OFFCURVE",
"362 766 OFFCURVE",
"362 801 CURVE SMOOTH",
"362 837 OFFCURVE",
"345 860 OFFCURVE"
);
},
{
closed = 1;
nodes = (
"495 860 CURVE SMOOTH",
"454 860 OFFCURVE",
"430 828 OFFCURVE",
"430 792 CURVE SMOOTH",
"430 759 OFFCURVE",
"446 735 OFFCURVE",
"485 735 CURVE SMOOTH",
"526 735 OFFCURVE",
"551 766 OFFCURVE",
"551 801 CURVE SMOOTH",
"551 837 OFFCURVE",
"534 860 OFFCURVE"
);
}
);
width = 570;
},
{
layerId = "A97BF1D1-A3CC-43F5-9A06-B7BB37BB129E";
paths = (
{
closed = 1;
nodes = (
"-48 19 LINE",
"110 -8 LINE",
"196 160 LINE",
"392 160 LINE",
"417 0 LINE",
"583 0 LINE",
"455 669 LINE",
"317 669 LINE"
);
},
{
closed = 1;
nodes = (
"373 281 CURVE",
"257 281 LINE",
"290 348 OFFCURVE",
"324 416 OFFCURVE",
"348 463 CURVE",
"354 418 OFFCURVE",
"362 349 OFFCURVE"
);
},
{
closed = 1;
nodes = (
"308 891 CURVE SMOOTH",
"255 891 OFFCURVE",
"224 854 OFFCURVE",
"224 809 CURVE SMOOTH",
"224 768 OFFCURVE",
"247 739 OFFCURVE",
"297 739 CURVE SMOOTH",
"350 739 OFFCURVE",
"383 776 OFFCURVE",
"383 819 CURVE SMOOTH",
"383 864 OFFCURVE",
"359 891 OFFCURVE"
);
},
{
closed = 1;
nodes = (
"525 891 CURVE SMOOTH",
"473 891 OFFCURVE",
"442 854 OFFCURVE",
"442 809 CURVE SMOOTH",
"442 768 OFFCURVE",
"465 739 OFFCURVE",
"515 739 CURVE SMOOTH",
"567 739 OFFCURVE",
"600 776 OFFCURVE",
"600 819 CURVE SMOOTH",
"600 864 OFFCURVE",
"576 891 OFFCURVE"
);
}
);
width = 601;
}
);
leftKerningGroup = A;
rightKerningGroup = A;
unicode = 00C4;
},
{
glyphname = Agrave;
lastChange = "2017-07-21 14:56:56 +0000";
layers = (
{
layerId = "3E88664E-E4A1-4C90-B697-57006E853054";
paths = (
{
closed = 1;
nodes = (
"-40 19 LINE",
"75 -8 LINE",
"169 180 LINE",
"394 180 LINE",
"422 0 LINE",
"545 0 LINE",
"417 669 LINE",
"325 669 LINE"
);
},
{
closed = 1;
nodes = (
"381 263 CURVE",
"210 263 LINE",
"266 374 OFFCURVE",
"317 471 OFFCURVE",
"347 529 CURVE",
"353 474 OFFCURVE",
"364 376 OFFCURVE"
);
},
{
closed = 1;
nodes = (
"411 766 LINE",
"411 766 OFFCURVE",
"299 834 OFFCURVE",
"233 921 CURVE",
"189 888 OFFCURVE",
"172 843 OFFCURVE",
"172 843 CURVE",
"235 758 OFFCURVE",
"375 712 OFFCURVE",
"375 712 CURVE"
);
}
);
width = 570;
},
{
layerId = "A97BF1D1-A3CC-43F5-9A06-B7BB37BB129E";
paths = (
{
closed = 1;
nodes = (
"-48 19 LINE",
"110 -8 LINE",
"196 160 LINE",
"392 160 LINE",
"417 0 LINE",
"583 0 LINE",
"455 669 LINE",
"317 669 LINE"
);
},
{
closed = 1;
nodes = (
"373 281 CURVE",
"257 281 LINE",
"290 348 OFFCURVE",
"324 416 OFFCURVE",
"348 463 CURVE",
"354 418 OFFCURVE",
"362 349 OFFCURVE"
);
},
{
closed = 1;
nodes = (
"440 785 LINE",
"440 785 OFFCURVE",
"337 845 OFFCURVE",
"260 944 CURVE",
"190 892 OFFCURVE",
"170 834 OFFCURVE",
"170 834 CURVE",
"251 740 OFFCURVE",
"385 704 OFFCURVE",
"385 704 CURVE"
);
}
);
width = 601;
}
);
leftKerningGroup = A;
rightKerningGroup = A;
unicode = 00C0;
},
{
glyphname = Aring;
lastChange = "2017-07-21 14:56:56 +0000";
layers = (
{
layerId = "3E88664E-E4A1-4C90-B697-57006E853054";
paths = (
{
closed = 1;
nodes = (
"-40 19 LINE",
"75 -8 LINE",
"169 180 LINE",
"394 180 LINE",
"422 0 LINE",
"545 0 LINE",
"423 637 LINE",
"457 659 OFFCURVE",
"478 700 OFFCURVE",
"478 742 CURVE SMOOTH",
"478 788 OFFCURVE",
"448 820 OFFCURVE",
"400 820 CURVE SMOOTH",
"330 820 OFFCURVE",
"282 760 OFFCURVE",
"282 696 CURVE SMOOTH",
"282 671 OFFCURVE",
"291 650 OFFCURVE",
"307 636 CURVE"
);
},
{
closed = 1;
nodes = (
"381 263 CURVE",
"210 263 LINE",
"266 374 OFFCURVE",
"317 471 OFFCURVE",
"347 529 CURVE",
"353 474 OFFCURVE",
"364 376 OFFCURVE"
);
},
{
closed = 1;
nodes = (
"389 769 CURVE SMOOTH",
"411 769 OFFCURVE",
"424 754 OFFCURVE",
"424 733 CURVE SMOOTH",
"424 698 OFFCURVE",
"401 669 OFFCURVE",
"370 669 CURVE SMOOTH",
"349 669 OFFCURVE",
"336 684 OFFCURVE",
"336 705 CURVE SMOOTH",
"336 737 OFFCURVE",
"356 769 OFFCURVE"
);
}
);
width = 570;
},
{
layerId = "A97BF1D1-A3CC-43F5-9A06-B7BB37BB129E";
paths = (
{
closed = 1;
nodes = (
"-48 19 LINE",
"110 -8 LINE",
"196 160 LINE",
"392 160 LINE",
"417 0 LINE",
"583 0 LINE",
"457 660 LINE",
"492 685 OFFCURVE",
"513 724 OFFCURVE",
"513 769 CURVE SMOOTH",
"513 823 OFFCURVE",
"478 864 OFFCURVE",
"417 864 CURVE SMOOTH",
"339 864 OFFCURVE",
"285 804 OFFCURVE",
"285 732 CURVE SMOOTH",
"285 703 OFFCURVE",
"295 678 OFFCURVE",
"313 661 CURVE"
);
},
{
closed = 1;
nodes = (
"373 281 CURVE",
"257 281 LINE",
"290 348 OFFCURVE",
"324 416 OFFCURVE",
"348 463 CURVE",
"354 418 OFFCURVE",
"362 349 OFFCURVE"
);
},
{
closed = 1;
nodes = (
"406 792 CURVE SMOOTH",
"424 792 OFFCURVE",
"434 779 OFFCURVE",
"434 761 CURVE SMOOTH",
"434 735 OFFCURVE",
"417 709 OFFCURVE",
"391 709 CURVE SMOOTH",
"373 709 OFFCURVE",
"363 722 OFFCURVE",
"363 739 CURVE SMOOTH",
"363 765 OFFCURVE",
"379 792 OFFCURVE"
);
}
);
width = 601;
}
);
leftKerningGroup = A;
rightKerningGroup = A;
unicode = 00C5;
},
{
glyphname = Atilde;
lastChange = "2017-07-21 14:56:56 +0000";
layers = (
{
layerId = "3E88664E-E4A1-4C90-B697-57006E853054";
paths = (
{
closed = 1;
nodes = (
"-40 19 LINE",
"75 -8 LINE",
"169 180 LINE",
"394 180 LINE",
"422 0 LINE",
"545 0 LINE",
"417 669 LINE",
"325 669 LINE"
);
},
{
closed = 1;
nodes = (
"381 263 CURVE",
"210 263 LINE",
"266 374 OFFCURVE",
"317 471 OFFCURVE",
"347 529 CURVE",
"353 474 OFFCURVE",
"364 376 OFFCURVE"
);
},
{
closed = 1;
nodes = (
"228 756 LINE",
"228 756 OFFCURVE",
"266 771 OFFCURVE",
"312 771 CURVE SMOOTH",
"362 771 OFFCURVE",
"415 750 OFFCURVE",
"464 750 CURVE SMOOTH",
"511 750 OFFCURVE",
"550 774 OFFCURVE",
"550 774 CURVE",
"566 854 LINE",
"566 854 OFFCURVE",
"528 839 OFFCURVE",
"481 839 CURVE SMOOTH",
"432 839 OFFCURVE",
"379 860 OFFCURVE",
"329 860 CURVE SMOOTH",
"283 860 OFFCURVE",
"244 836 OFFCURVE",
"244 836 CURVE"
);
}
);
width = 570;
},
{
layerId = "A97BF1D1-A3CC-43F5-9A06-B7BB37BB129E";
paths = (
{
closed = 1;
nodes = (
"-48 19 LINE",
"110 -8 LINE",
"196 160 LINE",
"392 160 LINE",
"417 0 LINE",
"583 0 LINE",
"455 669 LINE",
"317 669 LINE"
);
},
{
closed = 1;
nodes = (
"373 281 CURVE",
"257 281 LINE",
"290 348 OFFCURVE",
"324 416 OFFCURVE",
"348 463 CURVE",
"354 418 OFFCURVE",
"362 349 OFFCURVE"
);
},
{
closed = 1;
nodes = (
"509 867 LINE",
"509 867 OFFCURVE",
"477 858 OFFCURVE",
"455 858 CURVE SMOOTH",
"424 858 OFFCURVE",
"413 870 OFFCURVE",
"389 870 CURVE SMOOTH",
"357 870 OFFCURVE",
"333 856 OFFCURVE",
"333 856 CURVE",
"319 791 LINE",
"319 791 OFFCURVE",
"352 800 OFFCURVE",
"374 800 CURVE SMOOTH",
"405 800 OFFCURVE",
"416 788 OFFCURVE",
"439 788 CURVE SMOOTH",
"471 788 OFFCURVE",
"496 802 OFFCURVE",
"496 802 CURVE"
);
}
);
width = 601;
}
);
leftKerningGroup = A;
rightKerningGroup = A;
unicode = 00C3;
},
{
glyphname = AE;
lastChange = "2017-07-21 14:56:56 +0000";
layers = (
{
layerId = "3E88664E-E4A1-4C90-B697-57006E853054";
paths = (
{
closed = 1;
nodes = (
"338 0 LINE",
"726 0 LINE",
"726 84 LINE",
"469 84 LINE",
"513 310 LINE",
"708 310 LINE",
"726 393 LINE",
"529 393 LINE",
"566 585 LINE",
"815 585 LINE",
"832 669 LINE",
"400 669 LINE",
"-45 20 LINE",
"73 -13 LINE",
"199 185 LINE",
"374 185 LINE"
);
},
{
closed = 1;
nodes = (
"265 286 LINE SMOOTH",
"376 459 OFFCURVE",
"444 580 OFFCURVE",
"447 585 CURVE",
"451 585 LINE",
"390 269 LINE",
"254 269 LINE"
);
}
);
width = 808;
},
{
layerId = "A97BF1D1-A3CC-43F5-9A06-B7BB37BB129E";
paths = (
{
closed = 1;
nodes = (
"345 0 LINE",
"780 0 LINE",
"780 121 LINE",
"529 121 LINE",
"564 290 LINE",
"759 290 LINE",
"786 411 LINE",
"586 411 LINE",
"613 548 LINE",
"859 548 LINE",
"885 669 LINE",
"383 669 LINE",
"-53 27 LINE",
"106 -16 LINE",
"219 161 LINE",
"376 161 LINE"
);
},
{
closed = 1;
nodes = (
"303 293 LINE SMOOTH",
"370 400 OFFCURVE",
"434 518 OFFCURVE",
"445 540 CURVE",
"449 540 LINE",
"400 282 LINE",
"295 282 LINE"
);
}
);
width = 852;
}
);
rightKerningGroup = E;
unicode = 00C6;
},
{
glyphname = B;
lastChange = "2017-07-21 14:56:56 +0000";
layers = (
{
layerId = "3E88664E-E4A1-4C90-B697-57006E853054";
paths = (
{
closed = 1;
nodes = (
"15 0 LINE",
"36 0 LINE SMOOTH",
"40 0 OFFCURVE",
"136 -1 OFFCURVE",
"205 -1 CURVE SMOOTH",
"371 -1 OFFCURVE",
"498 81 OFFCURVE",
"498 219 CURVE SMOOTH",
"498 281 OFFCURVE",
"469 328 OFFCURVE",
"410 353 CURVE",
"482 387 OFFCURVE",
"534 447 OFFCURVE",
"534 529 CURVE SMOOTH",
"534 639 OFFCURVE",
"452 675 OFFCURVE",
"334 675 CURVE SMOOTH",
"294 675 OFFCURVE",
"260 670 OFFCURVE",
"237 665 CURVE",
"145 673 LINE"
);
},
{
closed = 1;
nodes = (
"260 304 LINE SMOOTH",
"349 304 OFFCURVE",
"373 265 OFFCURVE",
"373 206 CURVE SMOOTH",
"373 129 OFFCURVE",
"304 79 OFFCURVE",
"196 79 CURVE SMOOTH",
"146 79 LINE",
"189 304 LINE"
);
},
{
closed = 1;
nodes = (
"304 595 CURVE SMOOTH",
"381 595 OFFCURVE",
"410 558 OFFCURVE",
"410 505 CURVE SMOOTH",
"410 441 OFFCURVE",
"368 389 OFFCURVE",
"246 389 CURVE SMOOTH",
"206 389 LINE",
"245 591 LINE",
"262 594 OFFCURVE",
"282 595 OFFCURVE"
);
}
);
width = 550;
},
{
layerId = "A97BF1D1-A3CC-43F5-9A06-B7BB37BB129E";
paths = (
{
closed = 1;
nodes = (
"7 0 LINE",
"53 0 LINE SMOOTH",
"66 0 OFFCURVE",
"143 -1 OFFCURVE",
"212 -1 CURVE SMOOTH",
"378 -1 OFFCURVE",
"518 78 OFFCURVE",
"518 223 CURVE SMOOTH",
"518 285 OFFCURVE",
"492 325 OFFCURVE",
"423 352 CURVE",
"505 388 OFFCURVE",
"551 441 OFFCURVE",
"551 522 CURVE SMOOTH",
"551 636 OFFCURVE",
"462 675 OFFCURVE",
"353 675 CURVE SMOOTH",
"319 675 OFFCURVE",
"282 670 OFFCURVE",
"253 666 CURVE",
"137 673 LINE"
);
},
{
closed = 1;
nodes = (
"272 289 LINE SMOOTH",
"323 289 OFFCURVE",
"346 266 OFFCURVE",
"346 214 CURVE SMOOTH",
"346 143 OFFCURVE",
"284 108 OFFCURVE",
"224 108 CURVE SMOOTH",
"190 108 LINE",
"224 289 LINE"
);
},
{
closed = 1;
nodes = (
"311 567 CURVE SMOOTH",
"358 567 OFFCURVE",
"381 547 OFFCURVE",
"381 494 CURVE SMOOTH",
"381 443 OFFCURVE",
"344 402 OFFCURVE",
"272 402 CURVE SMOOTH",
"247 402 LINE",
"278 563 LINE",
"289 566 OFFCURVE",
"299 567 OFFCURVE"
);
}
);
width = 559;
}
);
leftKerningGroup = I;
unicode = 0042;
},
{
glyphname = C;
lastChange = "2017-07-21 14:56:56 +0000";
layers = (
{
anchors = (
{
name = bottom;
position = "{265, 0}";
}
);
layerId = "3E88664E-E4A1-4C90-B697-57006E853054";
paths = (
{
closed = 1;
nodes = (
"528 578 LINE",
"519 631 OFFCURVE",
"485 682 OFFCURVE",
"393 682 CURVE SMOOTH",
"157 682 OFFCURVE",
"40 449 OFFCURVE",
"40 208 CURVE SMOOTH",
"40 68 OFFCURVE",
"105 -13 OFFCURVE",
"260 -13 CURVE SMOOTH",
"345 -13 OFFCURVE",
"392 1 OFFCURVE",
"437 21 CURVE",
"419 97 LINE",
"377 82 OFFCURVE",
"353 74 OFFCURVE",
"294 74 CURVE SMOOTH",
"198 74 OFFCURVE",
"168 139 OFFCURVE",
"168 226 CURVE SMOOTH",
"168 377 OFFCURVE",
"231 595 OFFCURVE",
"374 595 CURVE SMOOTH",
"419 595 OFFCURVE",
"433 563 OFFCURVE",
"439 538 CURVE"
);
}
);
width = 502;
},
{
anchors = (
{
name = bottom;
position = "{265, 0}";
}
);
layerId = "A97BF1D1-A3CC-43F5-9A06-B7BB37BB129E";
paths = (
{
closed = 1;
nodes = (
"557 555 LINE",
"544 625 OFFCURVE",
"502 681 OFFCURVE",
"389 681 CURVE SMOOTH",
"151 681 OFFCURVE",
"32 452 OFFCURVE",
"32 215 CURVE SMOOTH",
"32 71 OFFCURVE",
"98 -13 OFFCURVE",
"264 -13 CURVE SMOOTH",
"350 -13 OFFCURVE",
"405 5 OFFCURVE",
"460 29 CURVE",
"433 144 LINE",
"378 122 OFFCURVE",
"345 109 OFFCURVE",
"297 109 CURVE SMOOTH",
"227 109 OFFCURVE",
"206 164 OFFCURVE",
"206 233 CURVE SMOOTH",
"206 366 OFFCURVE",
"256 557 OFFCURVE",
"372 557 CURVE SMOOTH",
"408 557 OFFCURVE",
"422 530 OFFCURVE",
"429 499 CURVE"
);
}
);
width = 524;
}
);
leftKerningGroup = O;
rightKerningGroup = C;
unicode = 0043;
},
{
glyphname = Ccedilla;
lastChange = "2017-07-21 14:56:56 +0000";
layers = (
{
layerId = "3E88664E-E4A1-4C90-B697-57006E853054";
paths = (
{
closed = 1;
nodes = (
"528 578 LINE",
"519 631 OFFCURVE",
"485 682 OFFCURVE",
"393 682 CURVE SMOOTH",
"157 682 OFFCURVE",
"40 449 OFFCURVE",
"40 208 CURVE SMOOTH",
"40 77 OFFCURVE",
"96 -2 OFFCURVE",
"231 -12 CURVE",
"221 -29 OFFCURVE",
"215 -43 OFFCURVE",
"215 -54 CURVE SMOOTH",
"215 -99 OFFCURVE",
"284 -93 OFFCURVE",
"284 -132 CURVE SMOOTH",
"284 -151 OFFCURVE",
"261 -159 OFFCURVE",
"236 -159 CURVE SMOOTH",
"207 -159 OFFCURVE",
"185 -147 OFFCURVE",
"169 -136 CURVE",
"140 -191 LINE",
"167 -209 OFFCURVE",
"202 -219 OFFCURVE",
"235 -219 CURVE SMOOTH",
"298 -219 OFFCURVE",
"362 -194 OFFCURVE",
"362 -121 CURVE SMOOTH",
"362 -68 OFFCURVE",
"288 -62 OFFCURVE",
"288 -33 CURVE SMOOTH",
"288 -28 OFFCURVE",
"289 -20 OFFCURVE",
"293 -12 CURVE",
"358 -9 OFFCURVE",
"398 4 OFFCURVE",
"437 21 CURVE",
"419 97 LINE",
"377 82 OFFCURVE",
"353 74 OFFCURVE",
"294 74 CURVE SMOOTH",
"198 74 OFFCURVE",
"168 139 OFFCURVE",
"168 226 CURVE SMOOTH",
"168 377 OFFCURVE",
"231 595 OFFCURVE",
"374 595 CURVE SMOOTH",
"419 595 OFFCURVE",
"433 563 OFFCURVE",
"439 538 CURVE"
);
}
);
width = 502;
},
{
layerId = "A97BF1D1-A3CC-43F5-9A06-B7BB37BB129E";
paths = (
{
closed = 1;
nodes = (
"557 555 LINE",
"544 625 OFFCURVE",
"502 681 OFFCURVE",
"389 681 CURVE SMOOTH",
"151 681 OFFCURVE",
"32 452 OFFCURVE",
"32 215 CURVE SMOOTH",
"32 90 OFFCURVE",
"82 11 OFFCURVE",
"203 -8 CURVE",
"192 -24 OFFCURVE",
"185 -39 OFFCURVE",
"185 -54 CURVE SMOOTH",
"185 -95 OFFCURVE",
"250 -95 OFFCURVE",
"250 -126 CURVE SMOOTH",
"250 -137 OFFCURVE",
"240 -143 OFFCURVE",
"218 -143 CURVE SMOOTH",
"193 -143 OFFCURVE",
"172 -133 OFFCURVE",
"152 -118 CURVE",
"113 -195 LINE",
"149 -217 OFFCURVE",
"183 -227 OFFCURVE",
"224 -227 CURVE SMOOTH",
"287 -227 OFFCURVE",
"359 -194 OFFCURVE",
"359 -121 CURVE SMOOTH",
"359 -59 OFFCURVE",
"283 -53 OFFCURVE",
"283 -26 CURVE SMOOTH",
"283 -22 OFFCURVE",
"283 -18 OFFCURVE",
"285 -13 CURVE",
"359 -10 OFFCURVE",
"409 7 OFFCURVE",
"460 29 CURVE",
"433 144 LINE",
"378 122 OFFCURVE",
"345 109 OFFCURVE",
"297 109 CURVE SMOOTH",
"227 109 OFFCURVE",
"206 164 OFFCURVE",
"206 233 CURVE SMOOTH",
"206 366 OFFCURVE",
"256 557 OFFCURVE",
"372 557 CURVE SMOOTH",
"408 557 OFFCURVE",
"422 530 OFFCURVE",
"429 499 CURVE"
);
}
);
width = 524;
}
);
leftKerningGroup = O;
rightKerningGroup = C;
unicode = 00C7;
},
{
glyphname = D;
lastChange = "2017-07-21 14:56:56 +0000";
layers = (
{
layerId = "3E88664E-E4A1-4C90-B697-57006E853054";
paths = (
{
closed = 1;
nodes = (
"15 0 LINE",
"41 0 LINE SMOOTH",
"44 0 OFFCURVE",
"117 -2 OFFCURVE",
"197 -2 CURVE SMOOTH",
"509 -2 OFFCURVE",
"607 193 OFFCURVE",
"607 461 CURVE SMOOTH",
"607 601 OFFCURVE",
"542 682 OFFCURVE",
"387 682 CURVE SMOOTH",
"336 682 OFFCURVE",
"280 676 OFFCURVE",
"234 666 CURVE",
"145 673 LINE"
);
},
{
closed = 1;
nodes = (
"353 595 CURVE SMOOTH",
"449 595 OFFCURVE",
"479 531 OFFCURVE",
"479 444 CURVE SMOOTH",
"479 262 OFFCURVE",
"416 88 OFFCURVE",
"217 88 CURVE SMOOTH",
"147 88 LINE",
"243 581 LINE",
"274 591 OFFCURVE",
"310 595 OFFCURVE"
);
}
);
width = 647;
},
{
layerId = "A97BF1D1-A3CC-43F5-9A06-B7BB37BB129E";
paths = (
{
closed = 1;
nodes = (
"7 0 LINE",
"68 0 LINE SMOOTH",
"82 0 OFFCURVE",
"143 -2 OFFCURVE",
"208 -2 CURVE SMOOTH",
"521 -2 OFFCURVE",
"619 190 OFFCURVE",
"619 453 CURVE SMOOTH",
"619 597 OFFCURVE",
"550 681 OFFCURVE",
"387 681 CURVE SMOOTH",
"338 681 OFFCURVE",
"284 675 OFFCURVE",
"241 666 CURVE",
"137 674 LINE"
);
},
{
closed = 1;
nodes = (
"354 559 CURVE SMOOTH",
"423 559 OFFCURVE",
"446 506 OFFCURVE",
"446 437 CURVE SMOOTH",
"446 269 OFFCURVE",
"386 125 OFFCURVE",
"236 125 CURVE SMOOTH",
"194 125 LINE",
"276 551 LINE",
"300 557 OFFCURVE",
"323 559 OFFCURVE"
);
}
);
width = 651;
}
);
leftKerningGroup = I;
rightKerningGroup = D;
unicode = 0044;
},
{
glyphname = Eth;
lastChange = "2017-07-21 14:56:56 +0000";
layers = (
{
layerId = "3E88664E-E4A1-4C90-B697-57006E853054";
paths = (
{
closed = 1;
nodes = (
"6 304 LINE",
"73 304 LINE",
"15 0 LINE",
"41 0 LINE SMOOTH",
"44 0 OFFCURVE",
"117 -2 OFFCURVE",
"197 -2 CURVE SMOOTH",
"508 -2 OFFCURVE",
"606 193 OFFCURVE",
"606 461 CURVE SMOOTH",
"606 601 OFFCURVE",
"542 682 OFFCURVE",
"387 682 CURVE SMOOTH",
"336 682 OFFCURVE",
"280 676 OFFCURVE",
"234 666 CURVE",
"145 673 LINE",
"90 391 LINE",
"23 391 LINE"
);
},
{
closed = 1;
nodes = (
"353 595 CURVE SMOOTH",
"449 595 OFFCURVE",
"479 531 OFFCURVE",
"479 444 CURVE SMOOTH",
"479 262 OFFCURVE",
"416 88 OFFCURVE",
"217 88 CURVE SMOOTH",
"147 88 LINE",
"189 304 LINE",
"364 304 LINE",
"380 391 LINE",
"206 391 LINE",
"243 581 LINE",
"274 591 OFFCURVE",
"309 595 OFFCURVE"
);
}
);
width = 647;
},
{
layerId = "A97BF1D1-A3CC-43F5-9A06-B7BB37BB129E";
paths = (
{
closed = 1;
nodes = (
"-2 286 LINE",
"65 286 LINE",
"10 0 LINE",
"71 0 LINE SMOOTH",
"85 0 OFFCURVE",
"146 -2 OFFCURVE",
"211 -2 CURVE SMOOTH",
"524 -2 OFFCURVE",
"622 190 OFFCURVE",
"622 453 CURVE SMOOTH",
"622 597 OFFCURVE",
"553 681 OFFCURVE",
"390 681 CURVE SMOOTH",
"341 681 OFFCURVE",
"287 675 OFFCURVE",
"244 666 CURVE",
"140 674 LINE",
"88 408 LINE",
"21 408 LINE"
);
},
{
closed = 1;
nodes = (
"357 559 CURVE SMOOTH",
"426 559 OFFCURVE",
"449 506 OFFCURVE",
"449 437 CURVE SMOOTH",
"449 269 OFFCURVE",
"389 125 OFFCURVE",
"239 125 CURVE SMOOTH",
"197 125 LINE",
"227 286 LINE",
"342 286 LINE",
"366 408 LINE",
"251 408 LINE",
"279 551 LINE",
"303 557 OFFCURVE",
"326 559 OFFCURVE"
);
}
);
width = 654;
}
);
leftKerningGroup = I;
rightKerningGroup = D;
unicode = 00D0;
},
{
glyphname = E;
lastChange = "2017-07-21 14:56:56 +0000";
layers = (
{
anchors = (
{
name = topUC;
position = "{331, 669}";
}
);
layerId = "3E88664E-E4A1-4C90-B697-57006E853054";
paths = (
{
closed = 1;
nodes = (
"15 0 LINE",
"424 0 LINE",
"424 84 LINE",
"147 84 LINE",
"191 310 LINE",
"406 310 LINE",
"424 393 LINE",
"207 393 LINE",
"244 585 LINE",
"513 585 LINE",
"530 669 LINE",
"145 669 LINE"
);
}
);
width = 506;
},
{
anchors = (
{
name = topUC;
position = "{331, 669}";
}
);
layerId = "A97BF1D1-A3CC-43F5-9A06-B7BB37BB129E";
paths = (
{
closed = 1;
nodes = (
"7 0 LINE",
"448 0 LINE",
"448 121 LINE",
"192 121 LINE",
"226 290 LINE",
"427 290 LINE",
"453 411 LINE",
"248 411 LINE",
"276 548 LINE",
"526 548 LINE",
"553 669 LINE",
"137 669 LINE"
);
}
);
width = 520;
}
);
leftKerningGroup = I;
rightKerningGroup = E;
unicode = 0045;
},
{
glyphname = Eacute;
lastChange = "2017-07-21 14:56:56 +0000";
layers = (
{
layerId = "3E88664E-E4A1-4C90-B697-57006E853054";
paths = (
{
closed = 1;
nodes = (
"15 0 LINE",
"424 0 LINE",
"424 84 LINE",
"147 84 LINE",
"191 310 LINE",
"406 310 LINE",
"424 393 LINE",
"207 393 LINE",
"244 585 LINE",
"513 585 LINE",
"530 669 LINE",
"145 669 LINE"
);
},
{
closed = 1;
nodes = (
"323 713 LINE",
"323 713 OFFCURVE",
"457 807 OFFCURVE",
"541 842 CURVE",
"535 879 OFFCURVE",
"492 921 OFFCURVE",
"492 921 CURVE",
"403 879 OFFCURVE",
"287 771 OFFCURVE",
"287 771 CURVE"
);
}
);
width = 506;
},
{
layerId = "A97BF1D1-A3CC-43F5-9A06-B7BB37BB129E";
paths = (
{
closed = 1;
nodes = (
"7 0 LINE",
"448 0 LINE",
"448 121 LINE",
"192 121 LINE",
"226 290 LINE",
"427 290 LINE",
"453 411 LINE",
"248 411 LINE",
"276 548 LINE",
"526 548 LINE",
"553 669 LINE",
"137 669 LINE"
);
},
{
closed = 1;
nodes = (
"331 705 LINE",
"331 705 OFFCURVE",
"446 785 OFFCURVE",
"561 817 CURVE",
"544 898 OFFCURVE",
"497 942 OFFCURVE",
"497 942 CURVE",
"382 902 OFFCURVE",
"279 789 OFFCURVE",
"279 789 CURVE"
);
}
);
width = 520;
}
);
leftKerningGroup = I;
rightKerningGroup = E;
unicode = 00C9;
},
{
glyphname = Ecircumflex;
lastChange = "2017-07-21 14:56:56 +0000";
layers = (
{
layerId = "3E88664E-E4A1-4C90-B697-57006E853054";
paths = (
{
closed = 1;
nodes = (
"15 0 LINE",
"424 0 LINE",
"424 84 LINE",
"147 84 LINE",
"191 310 LINE",
"406 310 LINE",
"424 393 LINE",
"207 393 LINE",
"244 585 LINE",
"513 585 LINE",
"530 669 LINE",
"145 669 LINE"
);
},
{
closed = 1;
nodes = (
"190 705 LINE",
"190 705 OFFCURVE",
"273 756 OFFCURVE",
"349 797 CURVE",
"413 738 OFFCURVE",
"491 703 OFFCURVE",
"491 703 CURVE",
"528 758 LINE",
"528 758 OFFCURVE",
"439 832 OFFCURVE",
"369 913 CURVE",
"280 871 OFFCURVE",
"154 763 OFFCURVE",
"154 763 CURVE"
);
}
);
width = 506;
},
{
layerId = "A97BF1D1-A3CC-43F5-9A06-B7BB37BB129E";
paths = (
{
closed = 1;
nodes = (
"7 0 LINE",
"448 0 LINE",
"448 121 LINE",
"192 121 LINE",
"226 290 LINE",
"427 290 LINE",
"453 411 LINE",
"248 411 LINE",
"276 548 LINE",
"526 548 LINE",
"553 669 LINE",
"137 669 LINE"
);
},
{
closed = 1;
nodes = (
"226 719 LINE",
"226 719 OFFCURVE",
"286 757 OFFCURVE",
"354 799 CURVE",
"414 740 OFFCURVE",
"488 719 OFFCURVE",
"488 719 CURVE",
"542 801 LINE",
"542 801 OFFCURVE",
"447 867 OFFCURVE",
"386 953 CURVE",
"289 900 OFFCURVE",
"175 803 OFFCURVE",
"175 803 CURVE"
);
}
);
width = 520;
}
);
leftKerningGroup = I;
rightKerningGroup = E;
unicode = 00CA;
},
{
glyphname = Edieresis;
lastChange = "2017-07-21 14:56:56 +0000";
layers = (
{
layerId = "3E88664E-E4A1-4C90-B697-57006E853054";
paths = (
{
closed = 1;
nodes = (
"15 0 LINE",
"424 0 LINE",
"424 84 LINE",
"147 84 LINE",
"191 310 LINE",
"406 310 LINE",
"424 393 LINE",
"207 393 LINE",
"244 585 LINE",
"513 585 LINE",
"530 669 LINE",
"145 669 LINE"
);
},
{
closed = 1;
nodes = (
"263 860 CURVE SMOOTH",
"223 860 OFFCURVE",
"198 828 OFFCURVE",
"198 792 CURVE SMOOTH",
"198 759 OFFCURVE",
"215 735 OFFCURVE",
"253 735 CURVE SMOOTH",
"294 735 OFFCURVE",
"320 766 OFFCURVE",
"320 801 CURVE SMOOTH",
"320 837 OFFCURVE",
"302 860 OFFCURVE"
);
},
{
closed = 1;
nodes = (
"452 860 CURVE SMOOTH",
"412 860 OFFCURVE",
"387 828 OFFCURVE",
"387 792 CURVE SMOOTH",
"387 759 OFFCURVE",
"404 735 OFFCURVE",
"442 735 CURVE SMOOTH",
"483 735 OFFCURVE",
"509 766 OFFCURVE",
"509 801 CURVE SMOOTH",
"509 837 OFFCURVE",
"491 860 OFFCURVE"
);
}
);
width = 506;
},
{
layerId = "A97BF1D1-A3CC-43F5-9A06-B7BB37BB129E";
paths = (
{
closed = 1;
nodes = (
"7 0 LINE",
"448 0 LINE",
"448 121 LINE",
"192 121 LINE",
"226 290 LINE",
"427 290 LINE",
"453 411 LINE",
"248 411 LINE",
"276 548 LINE",
"526 548 LINE",
"553 669 LINE",
"137 669 LINE"
);
},
{
closed = 1;
nodes = (
"254 891 CURVE SMOOTH",
"201 891 OFFCURVE",
"170 854 OFFCURVE",
"170 809 CURVE SMOOTH",
"170 768 OFFCURVE",
"193 739 OFFCURVE",
"243 739 CURVE SMOOTH",
"295 739 OFFCURVE",
"329 776 OFFCURVE",
"329 819 CURVE SMOOTH",
"329 864 OFFCURVE",
"305 891 OFFCURVE"
);
},
{
closed = 1;
nodes = (
"471 891 CURVE SMOOTH",
"419 891 OFFCURVE",
"388 854 OFFCURVE",
"388 809 CURVE SMOOTH",
"388 768 OFFCURVE",
"411 739 OFFCURVE",
"461 739 CURVE SMOOTH",
"513 739 OFFCURVE",
"546 776 OFFCURVE",
"546 819 CURVE SMOOTH",
"546 864 OFFCURVE",
"522 891 OFFCURVE"
);
}
);
width = 520;
}
);
leftKerningGroup = I;
rightKerningGroup = E;
unicode = 00CB;
},
{
glyphname = Egrave;
lastChange = "2017-07-21 14:56:56 +0000";
layers = (
{
layerId = "3E88664E-E4A1-4C90-B697-57006E853054";
paths = (
{
closed = 1;
nodes = (
"15 0 LINE",
"424 0 LINE",
"424 84 LINE",
"147 84 LINE",
"191 310 LINE",
"406 310 LINE",
"424 393 LINE",
"207 393 LINE",
"244 585 LINE",
"513 585 LINE",
"530 669 LINE",
"145 669 LINE"
);
},
{
closed = 1;
nodes = (
"368 766 LINE",
"368 766 OFFCURVE",
"256 834 OFFCURVE",
"190 921 CURVE",
"146 888 OFFCURVE",
"129 843 OFFCURVE",
"129 843 CURVE",
"193 758 OFFCURVE",
"332 712 OFFCURVE",
"332 712 CURVE"
);
}
);
width = 506;
},
{
layerId = "A97BF1D1-A3CC-43F5-9A06-B7BB37BB129E";
paths = (
{
closed = 1;
nodes = (
"7 0 LINE",
"448 0 LINE",
"448 121 LINE",
"192 121 LINE",
"226 290 LINE",
"427 290 LINE",
"453 411 LINE",
"248 411 LINE",
"276 548 LINE",
"526 548 LINE",
"553 669 LINE",
"137 669 LINE"
);
},
{
closed = 1;
nodes = (
"386 785 LINE",
"386 785 OFFCURVE",
"282 845 OFFCURVE",
"206 944 CURVE",
"135 892 OFFCURVE",
"116 834 OFFCURVE",
"116 834 CURVE",
"197 740 OFFCURVE",
"331 704 OFFCURVE",
"331 704 CURVE"
);
}
);
width = 520;
}
);
leftKerningGroup = I;
rightKerningGroup = E;
unicode = 00C8;
},
{
glyphname = F;
lastChange = "2017-07-21 14:56:56 +0000";
layers = (
{
layerId = "3E88664E-E4A1-4C90-B697-57006E853054";
paths = (
{
closed = 1;
nodes = (
"15 0 LINE",
"131 0 LINE",
"189 301 LINE",
"406 301 LINE",
"424 384 LINE",
"206 384 LINE",
"244 585 LINE",
"513 585 LINE",
"530 669 LINE",
"145 669 LINE"
);
}
);
width = 467;
},
{
layerId = "A97BF1D1-A3CC-43F5-9A06-B7BB37BB129E";
paths = (
{
closed = 1;
nodes = (
"7 0 LINE",
"169 0 LINE",
"224 281 LINE",
"427 281 LINE",
"453 402 LINE",
"247 402 LINE",
"276 548 LINE",
"526 548 LINE",
"553 669 LINE",
"137 669 LINE"
);
}
);
width = 481;
}
);
leftKerningGroup = I;
unicode = 0046;
},
{
glyphname = G;
lastChange = "2017-07-21 14:56:56 +0000";
layers = (
{
layerId = "3E88664E-E4A1-4C90-B697-57006E853054";
paths = (
{
closed = 1;
nodes = (
"377 -45 LINE SMOOTH",
"367 -90 OFFCURVE",
"317 -128 OFFCURVE",
"255 -128 CURVE SMOOTH",
"193 -128 OFFCURVE",
"127 -94 OFFCURVE",
"77 -73 CURVE",
"36 -162 LINE",
"82 -185 OFFCURVE",
"164 -222 OFFCURVE",
"242 -222 CURVE SMOOTH",
"371 -222 OFFCURVE",
"460 -140 OFFCURVE",
"480 -37 CURVE SMOOTH",
"550 328 LINE",
"437 328 LINE",
"416 221 LINE SMOOTH",
"399 134 OFFCURVE",
"327 74 OFFCURVE",
"270 74 CURVE SMOOTH",
"198 74 OFFCURVE",
"168 139 OFFCURVE",
"168 226 CURVE SMOOTH",
"168 376 OFFCURVE",
"231 595 OFFCURVE",
"385 595 CURVE SMOOTH",
"442 595 OFFCURVE",
"456 569 OFFCURVE",
"466 544 CURVE",
"554 584 LINE",
"541 637 OFFCURVE",
"509 682 OFFCURVE",
"418 682 CURVE SMOOTH",
"157 682 OFFCURVE",
"40 449 OFFCURVE",
"40 208 CURVE SMOOTH",
"40 68 OFFCURVE",
"105 -13 OFFCURVE",
"221 -13 CURVE SMOOTH",
"297 -13 OFFCURVE",
"365 24 OFFCURVE",
"404 83 CURVE"
);
}
);
width = 594;
},
{
layerId = "A97BF1D1-A3CC-43F5-9A06-B7BB37BB129E";
paths = (
{
closed = 1;
nodes = (
"350 -25 LINE SMOOTH",
"341 -64 OFFCURVE",
"307 -91 OFFCURVE",
"260 -91 CURVE SMOOTH",
"216 -91 OFFCURVE",
"171 -77 OFFCURVE",
"84 -39 CURVE",
"28 -162 LINE",
"80 -189 OFFCURVE",
"172 -222 OFFCURVE",
"253 -222 CURVE SMOOTH",
"384 -222 OFFCURVE",
"478 -133 OFFCURVE",
"500 -20 CURVE SMOOTH",
"571 350 LINE",
"413 350 LINE",
"390 232 LINE SMOOTH",
"376 162 OFFCURVE",
"322 112 OFFCURVE",
"280 112 CURVE SMOOTH",
"231 112 OFFCURVE",
"211 164 OFFCURVE",
"211 233 CURVE SMOOTH",
"211 365 OFFCURVE",
"263 557 OFFCURVE",
"387 557 CURVE SMOOTH",
"446 557 OFFCURVE",
"460 528 OFFCURVE",
"471 499 CURVE",
"598 557 LINE",
"582 625 OFFCURVE",
"544 681 OFFCURVE",
"419 681 CURVE SMOOTH",
"155 681 OFFCURVE",
"38 452 OFFCURVE",
"38 215 CURVE SMOOTH",
"38 71 OFFCURVE",
"100 -12 OFFCURVE",
"226 -12 CURVE SMOOTH",
"289 -12 OFFCURVE",
"341 22 OFFCURVE",
"374 77 CURVE"
);
}
);
width = 631;
}
);
leftKerningGroup = O;
unicode = 0047;
},
{
glyphname = H;
lastChange = "2017-07-21 14:56:56 +0000";
layers = (
{
layerId = "3E88664E-E4A1-4C90-B697-57006E853054";
paths = (
{
closed = 1;
nodes = (
"386 0 LINE",
"501 0 LINE",
"631 669 LINE",
"516 669 LINE",
"462 393 LINE",
"196 393 LINE",
"250 669 LINE",
"135 669 LINE",
"5 0 LINE",
"120 0 LINE",
"181 310 LINE",
"446 310 LINE"
);
}
);
width = 647;
},
{
layerId = "A97BF1D1-A3CC-43F5-9A06-B7BB37BB129E";
paths = (
{
closed = 1;
nodes = (
"362 0 LINE",
"524 0 LINE",
"654 669 LINE",
"492 669 LINE",
"441 411 LINE",
"247 411 LINE",
"297 669 LINE",
"135 669 LINE",
"5 0 LINE",
"167 0 LINE",
"223 290 LINE",
"418 290 LINE"
);
}
);
width = 661;
}
);
leftKerningGroup = I;
rightKerningGroup = I;
unicode = 0048;
},
{
glyphname = I;
lastChange = "2017-07-21 14:56:56 +0000";
layers = (
{
anchors = (
{
name = topUC;
position = "{203, 669}";
}
);
layerId = "3E88664E-E4A1-4C90-B697-57006E853054";
paths = (
{
closed = 1;
nodes = (
"15 0 LINE",
"131 0 LINE",
"261 669 LINE",
"145 669 LINE"
);
}
);
width = 276;
},
{
anchors = (
{
name = topUC;
position = "{203, 669}";
}
);
layerId = "A97BF1D1-A3CC-43F5-9A06-B7BB37BB129E";
paths = (
{
closed = 1;
nodes = (
"7 0 LINE",
"169 0 LINE",
"299 669 LINE",
"137 669 LINE"
);
}
);
width = 307;
}
);
leftKerningGroup = I;
rightKerningGroup = I;
unicode = 0049;
},
{
glyphname = Iacute;
lastChange = "2017-07-21 14:56:56 +0000";
layers = (
{
layerId = "3E88664E-E4A1-4C90-B697-57006E853054";
paths = (
{
closed = 1;
nodes = (
"15 0 LINE",
"131 0 LINE",
"261 669 LINE",
"145 669 LINE"
);
},
{
closed = 1;
nodes = (
"195 713 LINE",
"195 713 OFFCURVE",
"329 807 OFFCURVE",
"413 842 CURVE",
"407 879 OFFCURVE",
"364 921 OFFCURVE",
"364 921 CURVE",
"275 879 OFFCURVE",
"159 771 OFFCURVE",
"159 771 CURVE"
);
}
);
width = 276;
},
{
layerId = "A97BF1D1-A3CC-43F5-9A06-B7BB37BB129E";
paths = (
{
closed = 1;
nodes = (
"7 0 LINE",
"169 0 LINE",
"299 669 LINE",
"137 669 LINE"
);
},
{
closed = 1;
nodes = (
"208 705 LINE",
"208 705 OFFCURVE",
"322 785 OFFCURVE",
"437 817 CURVE",
"420 898 OFFCURVE",
"374 942 OFFCURVE",
"374 942 CURVE",
"258 902 OFFCURVE",
"156 789 OFFCURVE",
"156 789 CURVE"
);
}
);
width = 307;
}
);
leftKerningGroup = I;
rightKerningGroup = I;
unicode = 00CD;
},
{
glyphname = Icircumflex;
lastChange = "2017-07-21 14:56:56 +0000";
layers = (
{
layerId = "3E88664E-E4A1-4C90-B697-57006E853054";
paths = (
{
closed = 1;
nodes = (
"15 0 LINE",
"131 0 LINE",
"261 669 LINE",
"145 669 LINE"
);
},
{
closed = 1;
nodes = (
"62 705 LINE",
"62 705 OFFCURVE",
"144 756 OFFCURVE",
"221 797 CURVE",
"285 738 OFFCURVE",
"363 703 OFFCURVE",
"363 703 CURVE",
"399 758 LINE",
"399 758 OFFCURVE",
"311 832 OFFCURVE",
"241 913 CURVE",
"152 871 OFFCURVE",
"26 763 OFFCURVE",
"26 763 CURVE"
);
}
);
width = 276;
},
{
layerId = "A97BF1D1-A3CC-43F5-9A06-B7BB37BB129E";
paths = (
{
closed = 1;
nodes = (
"7 0 LINE",
"169 0 LINE",
"299 669 LINE",
"137 669 LINE"
);
},
{
closed = 1;
nodes = (
"103 719 LINE",
"103 719 OFFCURVE",
"163 757 OFFCURVE",
"231 799 CURVE",
"291 740 OFFCURVE",
"364 719 OFFCURVE",
"364 719 CURVE",
"419 801 LINE",
"419 801 OFFCURVE",
"324 867 OFFCURVE",
"262 953 CURVE",
"165 900 OFFCURVE",
"52 803 OFFCURVE",
"52 803 CURVE"
);
}
);
width = 307;
}
);
leftKerningGroup = I;
rightKerningGroup = I;
unicode = 00CE;
},
{
glyphname = Idieresis;
lastChange = "2017-07-21 14:56:56 +0000";
layers = (
{
layerId = "3E88664E-E4A1-4C90-B697-57006E853054";
paths = (
{
closed = 1;
nodes = (
"15 0 LINE",
"131 0 LINE",
"261 669 LINE",
"145 669 LINE"
);
},
{
closed = 1;
nodes = (
"135 860 CURVE SMOOTH",
"95 860 OFFCURVE",
"70 828 OFFCURVE",
"70 792 CURVE SMOOTH",
"70 759 OFFCURVE",
"87 735 OFFCURVE",
"125 735 CURVE SMOOTH",
"166 735 OFFCURVE",
"192 766 OFFCURVE",
"192 801 CURVE SMOOTH",
"192 837 OFFCURVE",
"174 860 OFFCURVE"
);
},
{
closed = 1;
nodes = (
"324 860 CURVE SMOOTH",
"284 860 OFFCURVE",
"259 828 OFFCURVE",
"259 792 CURVE SMOOTH",
"259 759 OFFCURVE",
"276 735 OFFCURVE",
"314 735 CURVE SMOOTH",
"355 735 OFFCURVE",
"381 766 OFFCURVE",
"381 801 CURVE SMOOTH",
"381 837 OFFCURVE",
"363 860 OFFCURVE"
);
}
);
width = 276;
},
{
layerId = "A97BF1D1-A3CC-43F5-9A06-B7BB37BB129E";
paths = (
{
closed = 1;
nodes = (
"7 0 LINE",
"169 0 LINE",
"299 669 LINE",
"137 669 LINE"
);
},
{
closed = 1;
nodes = (
"130 891 CURVE SMOOTH",
"77 891 OFFCURVE",
"46 854 OFFCURVE",
"46 809 CURVE SMOOTH",
"46 768 OFFCURVE",
"69 739 OFFCURVE",
"120 739 CURVE SMOOTH",
"172 739 OFFCURVE",
"205 776 OFFCURVE",
"205 819 CURVE SMOOTH",
"205 864 OFFCURVE",
"181 891 OFFCURVE"
);
},
{
closed = 1;
nodes = (
"347 891 CURVE SMOOTH",
"295 891 OFFCURVE",
"264 854 OFFCURVE",
"264 809 CURVE SMOOTH",
"264 768 OFFCURVE",
"287 739 OFFCURVE",
"337 739 CURVE SMOOTH",
"390 739 OFFCURVE",
"422 776 OFFCURVE",
"422 819 CURVE SMOOTH",
"422 864 OFFCURVE",
"398 891 OFFCURVE"
);
}
);
width = 307;
}
);
leftKerningGroup = I;
rightKerningGroup = I;
unicode = 00CF;
},
{
glyphname = Igrave;
lastChange = "2017-07-21 14:56:56 +0000";
layers = (
{
layerId = "3E88664E-E4A1-4C90-B697-57006E853054";
paths = (
{
closed = 1;
nodes = (
"15 0 LINE",
"131 0 LINE",
"261 669 LINE",
"145 669 LINE"
);
},
{
closed = 1;
nodes = (
"240 766 LINE",
"240 766 OFFCURVE",
"128 834 OFFCURVE",
"62 921 CURVE",
"18 888 OFFCURVE",
"1 843 OFFCURVE",
"1 843 CURVE",
"65 758 OFFCURVE",
"204 712 OFFCURVE",
"204 712 CURVE"
);
}
);
width = 276;
},
{
layerId = "A97BF1D1-A3CC-43F5-9A06-B7BB37BB129E";
paths = (
{
closed = 1;
nodes = (
"7 0 LINE",
"169 0 LINE",
"299 669 LINE",
"137 669 LINE"
);
},
{
closed = 1;
nodes = (
"263 785 LINE",
"263 785 OFFCURVE",
"159 845 OFFCURVE",
"82 944 CURVE",
"12 892 OFFCURVE",
"-7 834 OFFCURVE",
"-7 834 CURVE",
"73 740 OFFCURVE",
"208 704 OFFCURVE",
"208 704 CURVE"
);
}
);
width = 307;
}
);
leftKerningGroup = I;
rightKerningGroup = I;
unicode = 00CC;
},
{
glyphname = J;
lastChange = "2017-07-21 14:56:56 +0000";
layers = (
{
layerId = "3E88664E-E4A1-4C90-B697-57006E853054";
paths = (
{
closed = 1;
nodes = (
"19 13 LINE SMOOTH",
"3 -68 OFFCURVE",
"-32 -108 OFFCURVE",
"-115 -147 CURVE",
"-76 -223 LINE",
"36 -167 OFFCURVE",
"108 -122 OFFCURVE",
"137 25 CURVE SMOOTH",
"262 669 LINE",
"147 669 LINE"
);
}
);
width = 277;
},
{
layerId = "A97BF1D1-A3CC-43F5-9A06-B7BB37BB129E";
paths = (
{
closed = 1;
nodes = (
"7 38 LINE SMOOTH",
"-6 -30 OFFCURVE",
"-40 -74 OFFCURVE",
"-123 -112 CURVE",
"-66 -223 LINE",
"62 -162 OFFCURVE",
"142 -105 OFFCURVE",
"170 41 CURVE SMOOTH",
"292 669 LINE",
"130 669 LINE"
);
}
);
width = 300;
}
);
unicode = 004A;
},
{
glyphname = K;
lastChange = "2017-07-21 14:56:56 +0000";
layers = (
{
layerId = "3E88664E-E4A1-4C90-B697-57006E853054";
paths = (
{
closed = 1;
nodes = (
"568 679 CURVE",
"464 656 LINE",
"467 646 OFFCURVE",
"470 633 OFFCURVE",
"470 621 CURVE SMOOTH",
"470 528 OFFCURVE",
"328 414 OFFCURVE",
"216 373 CURVE",
"213 366 LINE",
"272 193 OFFCURVE",
"316 71 OFFCURVE",
"451 -103 CURVE",
"547 -52 LINE",
"459 53 OFFCURVE",
"371 233 OFFCURVE",
"347 337 CURVE",
"429 370 OFFCURVE",
"581 487 OFFCURVE",
"581 619 CURVE SMOOTH",
"581 639 OFFCURVE",
"578 660 OFFCURVE"
);
},
{
closed = 1;
nodes = (
"15 0 LINE",
"132 0 LINE",
"262 669 LINE",
"145 669 LINE"
);
}
);
width = 561;
},
{
layerId = "A97BF1D1-A3CC-43F5-9A06-B7BB37BB129E";
paths = (
{
closed = 1;
nodes = (
"568 679 CURVE",
"464 656 LINE",
"467 646 OFFCURVE",
"470 633 OFFCURVE",
"470 621 CURVE SMOOTH",
"470 528 OFFCURVE",
"328 414 OFFCURVE",
"216 373 CURVE",
"213 366 LINE",
"272 193 OFFCURVE",
"316 71 OFFCURVE",
"451 -103 CURVE",
"547 -52 LINE",
"459 53 OFFCURVE",
"371 233 OFFCURVE",
"347 337 CURVE",
"429 370 OFFCURVE",
"581 487 OFFCURVE",
"581 619 CURVE SMOOTH",
"581 639 OFFCURVE",
"578 660 OFFCURVE"
);
},
{
closed = 1;
nodes = (
"15 0 LINE",
"132 0 LINE",
"262 669 LINE",
"145 669 LINE"
);
}
);
width = 561;
}
);
leftKerningGroup = I;
unicode = 004B;
},
{
glyphname = L;
lastChange = "2017-07-21 14:56:56 +0000";
layers = (
{
layerId = "3E88664E-E4A1-4C90-B697-57006E853054";
paths = (
{
closed = 1;
nodes = (
"20 0 LINE",
"390 0 LINE",
"390 84 LINE",
"151 84 LINE",
"266 669 LINE",
"150 669 LINE"
);
}
);
width = 420;
},
{
layerId = "A97BF1D1-A3CC-43F5-9A06-B7BB37BB129E";
paths = (
{
closed = 1;
nodes = (
"12 0 LINE",
"417 0 LINE",
"417 121 LINE",
"198 121 LINE",
"305 669 LINE",
"143 669 LINE"
);
}
);
width = 440;
}
);
leftKerningGroup = I;
unicode = 004C;
},
{
glyphname = M;
lastChange = "2017-07-21 14:56:56 +0000";
layers = (
{
layerId = "3E88664E-E4A1-4C90-B697-57006E853054";
paths = (
{
closed = 1;
nodes = (
"571 0 LINE",
"689 0 LINE",
"764 669 LINE",
"671 669 LINE",
"428 256 LINE SMOOTH",
"407 220 OFFCURVE",
"387 180 OFFCURVE",
"367 143 CURVE",
"362 181 OFFCURVE",
"354 222 OFFCURVE",
"348 256 CURVE SMOOTH",
"265 669 LINE",
"171 669 LINE",
"10 14 LINE",
"126 -3 LINE",
"183 258 LINE SMOOTH",
"190 288 OFFCURVE",
"202 372 OFFCURVE",
"212 445 CURVE",
"225 375 OFFCURVE",
"240 289 OFFCURVE",
"248 255 CURVE SMOOTH",
"305 0 LINE",
"386 0 LINE",
"542 258 LINE SMOOTH",
"562 290 OFFCURVE",
"609 376 OFFCURVE",
"645 446 CURVE",
"631 376 OFFCURVE",
"615 294 OFFCURVE",
"609 255 CURVE SMOOTH"
);
}
);
width = 812;
},
{
layerId = "A97BF1D1-A3CC-43F5-9A06-B7BB37BB129E";
paths = (
{
closed = 1;
nodes = (
"562 0 LINE",
"726 0 LINE",
"801 669 LINE",
"662 669 LINE",
"428 256 LINE SMOOTH",
"417 237 OFFCURVE",
"400 200 OFFCURVE",
"388 176 CURVE",
"385 200 OFFCURVE",
"379 238 OFFCURVE",
"376 256 CURVE SMOOTH",
"302 669 LINE",
"162 669 LINE",
"2 21 LINE",
"163 -3 LINE",
"211 258 LINE SMOOTH",
"215 277 OFFCURVE",
"222 332 OFFCURVE",
"228 375 CURVE",
"234 333 OFFCURVE",
"244 276 OFFCURVE",
"248 255 CURVE SMOOTH",
"296 0 LINE",
"423 0 LINE",
"570 258 LINE SMOOTH",
"582 279 OFFCURVE",
"610 335 OFFCURVE",
"633 379 CURVE",
"623 335 OFFCURVE",
"613 280 OFFCURVE",
"609 255 CURVE SMOOTH"
);
}
);
width = 841;
}
);
unicode = 004D;
},
{
glyphname = N;
lastChange = "2017-07-21 14:56:56 +0000";
layers = (
{
anchors = (
{
name = topUC;
position = "{391, 669}";
}
);
layerId = "3E88664E-E4A1-4C90-B697-57006E853054";
paths = (
{
closed = 1;
nodes = (
"463 326 LINE SMOOTH",
"457 292 OFFCURVE",
"450 239 OFFCURVE",
"445 193 CURVE",
"426 236 OFFCURVE",
"404 290 OFFCURVE",
"386 329 CURVE SMOOTH",
"229 669 LINE",
"139 669 LINE",
"15 14 LINE",
"126 -4 LINE",
"190 341 LINE SMOOTH",
"198 384 OFFCURVE",
"203 433 OFFCURVE",
"207 476 CURVE",
"224 434 OFFCURVE",
"246 380 OFFCURVE",
"264 343 CURVE SMOOTH",
"425 -1 LINE",
"514 -1 LINE",
"638 656 LINE",
"527 674 LINE"
);
}
);
width = 658;
},
{
anchors = (
{
name = topUC;
position = "{391, 669}";
}
);
layerId = "A97BF1D1-A3CC-43F5-9A06-B7BB37BB129E";
paths = (
{
closed = 1;
nodes = (
"462 326 LINE SMOOTH",
"458 303 OFFCURVE",
"454 261 OFFCURVE",
"452 231 CURVE",
"440 260 OFFCURVE",
"424 303 OFFCURVE",
"413 329 CURVE SMOOTH",
"265 669 LINE",
"131 669 LINE",
"7 18 LINE",
"161 -6 LINE",
"217 341 LINE SMOOTH",
"221 367 OFFCURVE",
"224 406 OFFCURVE",
"227 435 CURVE",
"237 409 OFFCURVE",
"251 369 OFFCURVE",
"263 343 CURVE SMOOTH",
"415 -1 LINE",
"550 -1 LINE",
"673 653 LINE",
"518 678 LINE"
);
}
);
width = 686;
}
);
leftKerningGroup = I;
rightKerningGroup = I;
unicode = 004E;
},
{
glyphname = Ntilde;
lastChange = "2017-07-21 14:56:56 +0000";
layers = (
{
layerId = "3E88664E-E4A1-4C90-B697-57006E853054";
paths = (
{
closed = 1;
nodes = (
"463 326 LINE SMOOTH",
"457 292 OFFCURVE",
"450 239 OFFCURVE",
"445 193 CURVE",
"426 236 OFFCURVE",
"404 290 OFFCURVE",
"386 329 CURVE SMOOTH",
"229 669 LINE",
"139 669 LINE",
"15 14 LINE",
"126 -4 LINE",
"190 341 LINE SMOOTH",
"198 384 OFFCURVE",
"203 433 OFFCURVE",
"207 476 CURVE",
"224 434 OFFCURVE",
"246 380 OFFCURVE",
"264 343 CURVE SMOOTH",
"425 -1 LINE",
"514 -1 LINE",
"638 656 LINE",
"527 674 LINE"
);
},
{
closed = 1;
nodes = (
"245 756 LINE",
"245 756 OFFCURVE",
"284 771 OFFCURVE",
"330 771 CURVE SMOOTH",
"379 771 OFFCURVE",
"433 750 OFFCURVE",
"482 750 CURVE SMOOTH",
"528 750 OFFCURVE",
"567 774 OFFCURVE",
"567 774 CURVE",
"583 854 LINE",
"583 854 OFFCURVE",
"545 839 OFFCURVE",
"499 839 CURVE SMOOTH",
"449 839 OFFCURVE",
"396 860 OFFCURVE",
"347 860 CURVE SMOOTH",
"300 860 OFFCURVE",
"261 836 OFFCURVE",
"261 836 CURVE"
);
}
);
width = 658;
},
{
layerId = "A97BF1D1-A3CC-43F5-9A06-B7BB37BB129E";
paths = (
{
closed = 1;
nodes = (
"462 326 LINE SMOOTH",
"458 303 OFFCURVE",
"454 261 OFFCURVE",
"452 231 CURVE",
"440 260 OFFCURVE",
"424 303 OFFCURVE",
"413 329 CURVE SMOOTH",
"265 669 LINE",
"131 669 LINE",
"7 18 LINE",
"161 -6 LINE",
"217 341 LINE SMOOTH",
"221 367 OFFCURVE",
"224 406 OFFCURVE",
"227 435 CURVE",
"237 409 OFFCURVE",
"251 369 OFFCURVE",
"263 343 CURVE SMOOTH",
"415 -1 LINE",
"550 -1 LINE",
"673 653 LINE",
"518 678 LINE"
);
},
{
closed = 1;
nodes = (
"513 867 LINE",
"513 867 OFFCURVE",
"480 858 OFFCURVE",
"458 858 CURVE SMOOTH",
"427 858 OFFCURVE",
"416 870 OFFCURVE",
"393 870 CURVE SMOOTH",
"361 870 OFFCURVE",
"336 856 OFFCURVE",
"336 856 CURVE",
"323 791 LINE",
"323 791 OFFCURVE",
"355 800 OFFCURVE",
"377 800 CURVE SMOOTH",
"408 800 OFFCURVE",
"419 788 OFFCURVE",
"443 788 CURVE SMOOTH",
"475 788 OFFCURVE",
"499 802 OFFCURVE",
"499 802 CURVE"
);
}
);
width = 686;
}
);
leftKerningGroup = I;
rightKerningGroup = I;
unicode = 00D1;
},
{
glyphname = O;
lastChange = "2017-07-21 14:56:56 +0000";
layers = (
{
anchors = (
{
name = topUC;
position = "{399, 669}";
}
);
layerId = "3E88664E-E4A1-4C90-B697-57006E853054";
paths = (
{
closed = 1;
nodes = (
"408 682 CURVE SMOOTH",
"157 682 OFFCURVE",
"40 449 OFFCURVE",
"40 208 CURVE SMOOTH",
"40 68 OFFCURVE",
"105 -13 OFFCURVE",
"260 -13 CURVE SMOOTH",
"511 -13 OFFCURVE",
"628 220 OFFCURVE",
"628 461 CURVE SMOOTH",
"628 601 OFFCURVE",
"563 682 OFFCURVE"
);
},
{
closed = 1;
nodes = (
"374 595 CURVE SMOOTH",
"470 595 OFFCURVE",
"500 530 OFFCURVE",
"500 444 CURVE SMOOTH",
"500 292 OFFCURVE",
"437 74 OFFCURVE",
"294 74 CURVE SMOOTH",
"198 74 OFFCURVE",
"168 139 OFFCURVE",
"168 226 CURVE SMOOTH",
"168 377 OFFCURVE",
"231 595 OFFCURVE"
);
}
);
width = 668;
},
{
anchors = (
{
name = topUC;
position = "{399, 669}";
}
);
layerId = "A97BF1D1-A3CC-43F5-9A06-B7BB37BB129E";
paths = (
{
closed = 1;
nodes = (
"403 681 CURVE SMOOTH",
"150 681 OFFCURVE",
"32 452 OFFCURVE",
"32 215 CURVE SMOOTH",
"32 71 OFFCURVE",
"100 -15 OFFCURVE",
"264 -15 CURVE SMOOTH",
"518 -15 OFFCURVE",
"636 217 OFFCURVE",
"636 453 CURVE SMOOTH",
"636 598 OFFCURVE",
"567 681 OFFCURVE"
);
},
{
closed = 1;
nodes = (
"372 557 CURVE SMOOTH",
"441 557 OFFCURVE",
"463 505 OFFCURVE",
"463 437 CURVE SMOOTH",
"463 303 OFFCURVE",
"412 109 OFFCURVE",
"297 109 CURVE SMOOTH",
"227 109 OFFCURVE",
"206 164 OFFCURVE",
"206 233 CURVE SMOOTH",
"206 366 OFFCURVE",
"257 557 OFFCURVE"
);
}
);
width = 669;
}
);
leftKerningGroup = O;
rightKerningGroup = O;
unicode = 004F;
},
{
glyphname = Oacute;
lastChange = "2017-07-21 14:56:56 +0000";
layers = (
{
layerId = "3E88664E-E4A1-4C90-B697-57006E853054";
paths = (
{
closed = 1;
nodes = (
"408 682 CURVE SMOOTH",
"157 682 OFFCURVE",
"40 449 OFFCURVE",
"40 208 CURVE SMOOTH",
"40 68 OFFCURVE",
"105 -13 OFFCURVE",
"260 -13 CURVE SMOOTH",
"511 -13 OFFCURVE",
"628 220 OFFCURVE",
"628 461 CURVE SMOOTH",
"628 601 OFFCURVE",
"563 682 OFFCURVE"
);
},
{
closed = 1;
nodes = (
"374 595 CURVE SMOOTH",
"470 595 OFFCURVE",
"500 530 OFFCURVE",
"500 444 CURVE SMOOTH",
"500 292 OFFCURVE",
"437 74 OFFCURVE",
"294 74 CURVE SMOOTH",
"198 74 OFFCURVE",
"168 139 OFFCURVE",
"168 226 CURVE SMOOTH",
"168 377 OFFCURVE",
"231 595 OFFCURVE"
);
},
{
closed = 1;
nodes = (
"391 713 LINE",
"391 713 OFFCURVE",
"526 807 OFFCURVE",
"610 842 CURVE",
"603 879 OFFCURVE",
"560 921 OFFCURVE",
"560 921 CURVE",
"471 879 OFFCURVE",
"355 771 OFFCURVE",
"355 771 CURVE"
);
}
);
width = 668;
},
{
layerId = "A97BF1D1-A3CC-43F5-9A06-B7BB37BB129E";
paths = (
{
closed = 1;
nodes = (
"403 681 CURVE SMOOTH",
"150 681 OFFCURVE",
"32 452 OFFCURVE",
"32 215 CURVE SMOOTH",
"32 71 OFFCURVE",
"100 -15 OFFCURVE",
"264 -15 CURVE SMOOTH",
"518 -15 OFFCURVE",
"636 217 OFFCURVE",
"636 453 CURVE SMOOTH",
"636 598 OFFCURVE",
"567 681 OFFCURVE"
);
},
{
closed = 1;
nodes = (
"372 557 CURVE SMOOTH",
"441 557 OFFCURVE",
"463 505 OFFCURVE",
"463 437 CURVE SMOOTH",
"463 303 OFFCURVE",
"412 109 OFFCURVE",
"297 109 CURVE SMOOTH",
"227 109 OFFCURVE",
"206 164 OFFCURVE",
"206 233 CURVE SMOOTH",
"206 366 OFFCURVE",
"257 557 OFFCURVE"
);
},
{
closed = 1;
nodes = (
"395 705 LINE",
"395 705 OFFCURVE",
"509 785 OFFCURVE",
"624 817 CURVE",
"607 898 OFFCURVE",
"561 942 OFFCURVE",
"561 942 CURVE",
"445 902 OFFCURVE",
"343 789 OFFCURVE",
"343 789 CURVE"
);
}
);
width = 669;
}
);
leftKerningGroup = O;
rightKerningGroup = O;
unicode = 00D3;
},
{
glyphname = Ocircumflex;
lastChange = "2017-07-21 14:56:56 +0000";
layers = (
{
layerId = "3E88664E-E4A1-4C90-B697-57006E853054";
paths = (
{
closed = 1;
nodes = (
"408 682 CURVE SMOOTH",
"157 682 OFFCURVE",
"40 449 OFFCURVE",
"40 208 CURVE SMOOTH",
"40 68 OFFCURVE",
"105 -13 OFFCURVE",
"260 -13 CURVE SMOOTH",
"511 -13 OFFCURVE",
"628 220 OFFCURVE",
"628 461 CURVE SMOOTH",
"628 601 OFFCURVE",
"563 682 OFFCURVE"
);
},
{
closed = 1;
nodes = (
"374 595 CURVE SMOOTH",
"470 595 OFFCURVE",
"500 530 OFFCURVE",
"500 444 CURVE SMOOTH",
"500 292 OFFCURVE",
"437 74 OFFCURVE",
"294 74 CURVE SMOOTH",
"198 74 OFFCURVE",
"168 139 OFFCURVE",
"168 226 CURVE SMOOTH",
"168 377 OFFCURVE",
"231 595 OFFCURVE"
);
},
{
closed = 1;
nodes = (
"258 705 LINE",
"258 705 OFFCURVE",
"341 756 OFFCURVE",
"417 797 CURVE",
"481 738 OFFCURVE",
"559 703 OFFCURVE",
"559 703 CURVE",
"596 758 LINE",
"596 758 OFFCURVE",
"507 832 OFFCURVE",
"438 913 CURVE",
"348 871 OFFCURVE",
"222 763 OFFCURVE",
"222 763 CURVE"
);
}
);
width = 668;
},
{
layerId = "A97BF1D1-A3CC-43F5-9A06-B7BB37BB129E";
paths = (
{
closed = 1;
nodes = (
"403 681 CURVE SMOOTH",
"150 681 OFFCURVE",
"32 452 OFFCURVE",
"32 215 CURVE SMOOTH",
"32 71 OFFCURVE",
"100 -15 OFFCURVE",
"264 -15 CURVE SMOOTH",
"518 -15 OFFCURVE",
"636 217 OFFCURVE",
"636 453 CURVE SMOOTH",
"636 598 OFFCURVE",
"567 681 OFFCURVE"
);
},
{
closed = 1;
nodes = (
"372 557 CURVE SMOOTH",
"441 557 OFFCURVE",
"463 505 OFFCURVE",
"463 437 CURVE SMOOTH",
"463 303 OFFCURVE",
"412 109 OFFCURVE",
"297 109 CURVE SMOOTH",
"227 109 OFFCURVE",
"206 164 OFFCURVE",
"206 233 CURVE SMOOTH",
"206 366 OFFCURVE",
"257 557 OFFCURVE"
);
},
{
closed = 1;
nodes = (
"290 719 LINE",
"290 719 OFFCURVE",
"350 757 OFFCURVE",
"418 799 CURVE",
"478 740 OFFCURVE",
"551 719 OFFCURVE",
"551 719 CURVE",
"606 801 LINE",
"606 801 OFFCURVE",
"511 867 OFFCURVE",
"449 953 CURVE",
"352 900 OFFCURVE",
"239 803 OFFCURVE",
"239 803 CURVE"
);
}
);
width = 669;
}
);
leftKerningGroup = O;
rightKerningGroup = O;
unicode = 00D4;
},
{
glyphname = Odieresis;
lastChange = "2017-07-21 14:56:56 +0000";
layers = (
{
layerId = "3E88664E-E4A1-4C90-B697-57006E853054";
paths = (
{
closed = 1;
nodes = (
"408 682 CURVE SMOOTH",
"157 682 OFFCURVE",
"40 449 OFFCURVE",
"40 208 CURVE SMOOTH",
"40 68 OFFCURVE",
"105 -13 OFFCURVE",
"260 -13 CURVE SMOOTH",
"511 -13 OFFCURVE",
"628 220 OFFCURVE",
"628 461 CURVE SMOOTH",
"628 601 OFFCURVE",
"563 682 OFFCURVE"
);
},
{
closed = 1;
nodes = (
"374 595 CURVE SMOOTH",
"470 595 OFFCURVE",
"500 530 OFFCURVE",
"500 444 CURVE SMOOTH",
"500 292 OFFCURVE",
"437 74 OFFCURVE",
"294 74 CURVE SMOOTH",
"198 74 OFFCURVE",
"168 139 OFFCURVE",
"168 226 CURVE SMOOTH",
"168 377 OFFCURVE",
"231 595 OFFCURVE"
);
},
{
closed = 1;
nodes = (
"331 860 CURVE SMOOTH",
"291 860 OFFCURVE",
"266 828 OFFCURVE",
"266 792 CURVE SMOOTH",
"266 759 OFFCURVE",
"283 735 OFFCURVE",
"321 735 CURVE SMOOTH",
"362 735 OFFCURVE",
"388 766 OFFCURVE",
"388 801 CURVE SMOOTH",
"388 837 OFFCURVE",
"370 860 OFFCURVE"
);
},
{
closed = 1;
nodes = (
"521 860 CURVE SMOOTH",
"480 860 OFFCURVE",
"455 828 OFFCURVE",
"455 792 CURVE SMOOTH",
"455 759 OFFCURVE",
"472 735 OFFCURVE",
"511 735 CURVE SMOOTH",
"551 735 OFFCURVE",
"577 766 OFFCURVE",
"577 801 CURVE SMOOTH",
"577 837 OFFCURVE",
"559 860 OFFCURVE"
);
}
);
width = 668;
},
{
layerId = "A97BF1D1-A3CC-43F5-9A06-B7BB37BB129E";
paths = (
{
closed = 1;
nodes = (
"403 681 CURVE SMOOTH",
"150 681 OFFCURVE",
"32 452 OFFCURVE",
"32 215 CURVE SMOOTH",
"32 71 OFFCURVE",
"100 -15 OFFCURVE",
"264 -15 CURVE SMOOTH",
"518 -15 OFFCURVE",
"636 217 OFFCURVE",
"636 453 CURVE SMOOTH",
"636 598 OFFCURVE",
"567 681 OFFCURVE"
);
},
{
closed = 1;
nodes = (
"372 557 CURVE SMOOTH",
"441 557 OFFCURVE",
"463 505 OFFCURVE",
"463 437 CURVE SMOOTH",
"463 303 OFFCURVE",
"412 109 OFFCURVE",
"297 109 CURVE SMOOTH",
"227 109 OFFCURVE",
"206 164 OFFCURVE",
"206 233 CURVE SMOOTH",
"206 366 OFFCURVE",
"257 557 OFFCURVE"
);
},
{
closed = 1;
nodes = (
"317 891 CURVE SMOOTH",
"264 891 OFFCURVE",
"233 854 OFFCURVE",
"233 809 CURVE SMOOTH",
"233 768 OFFCURVE",
"256 739 OFFCURVE",
"307 739 CURVE SMOOTH",
"359 739 OFFCURVE",
"392 776 OFFCURVE",
"392 819 CURVE SMOOTH",
"392 864 OFFCURVE",
"368 891 OFFCURVE"
);
},
{
closed = 1;
nodes = (
"534 891 CURVE SMOOTH",
"482 891 OFFCURVE",
"451 854 OFFCURVE",
"451 809 CURVE SMOOTH",
"451 768 OFFCURVE",
"474 739 OFFCURVE",
"524 739 CURVE SMOOTH",
"577 739 OFFCURVE",
"609 776 OFFCURVE",
"609 819 CURVE SMOOTH",
"609 864 OFFCURVE",
"585 891 OFFCURVE"
);
}
);
width = 669;
}
);
leftKerningGroup = O;
rightKerningGroup = O;
unicode = 00D6;
},
{
glyphname = Ograve;
lastChange = "2017-07-21 14:56:56 +0000";
layers = (
{
layerId = "3E88664E-E4A1-4C90-B697-57006E853054";
paths = (
{
closed = 1;
nodes = (
"408 682 CURVE SMOOTH",
"157 682 OFFCURVE",
"40 449 OFFCURVE",
"40 208 CURVE SMOOTH",
"40 68 OFFCURVE",
"105 -13 OFFCURVE",
"260 -13 CURVE SMOOTH",
"511 -13 OFFCURVE",
"628 220 OFFCURVE",
"628 461 CURVE SMOOTH",
"628 601 OFFCURVE",
"563 682 OFFCURVE"
);
},
{
closed = 1;
nodes = (
"374 595 CURVE SMOOTH",
"470 595 OFFCURVE",
"500 530 OFFCURVE",
"500 444 CURVE SMOOTH",
"500 292 OFFCURVE",
"437 74 OFFCURVE",
"294 74 CURVE SMOOTH",
"198 74 OFFCURVE",
"168 139 OFFCURVE",
"168 226 CURVE SMOOTH",
"168 377 OFFCURVE",
"231 595 OFFCURVE"
);
},
{
closed = 1;
nodes = (
"437 766 LINE",
"437 766 OFFCURVE",
"324 834 OFFCURVE",
"259 921 CURVE",
"214 888 OFFCURVE",
"198 843 OFFCURVE",
"198 843 CURVE",
"261 758 OFFCURVE",
"400 712 OFFCURVE",
"400 712 CURVE"
);
}
);
width = 668;
},
{
layerId = "A97BF1D1-A3CC-43F5-9A06-B7BB37BB129E";
paths = (
{
closed = 1;
nodes = (
"403 681 CURVE SMOOTH",
"150 681 OFFCURVE",
"32 452 OFFCURVE",
"32 215 CURVE SMOOTH",
"32 71 OFFCURVE",
"100 -15 OFFCURVE",
"264 -15 CURVE SMOOTH",
"518 -15 OFFCURVE",
"636 217 OFFCURVE",
"636 453 CURVE SMOOTH",
"636 598 OFFCURVE",
"567 681 OFFCURVE"
);
},
{
closed = 1;
nodes = (
"372 557 CURVE SMOOTH",
"441 557 OFFCURVE",
"463 505 OFFCURVE",
"463 437 CURVE SMOOTH",
"463 303 OFFCURVE",
"412 109 OFFCURVE",
"297 109 CURVE SMOOTH",
"227 109 OFFCURVE",
"206 164 OFFCURVE",
"206 233 CURVE SMOOTH",
"206 366 OFFCURVE",
"257 557 OFFCURVE"
);
},
{
closed = 1;
nodes = (
"450 785 LINE",
"450 785 OFFCURVE",
"346 845 OFFCURVE",
"269 944 CURVE",
"199 892 OFFCURVE",
"180 834 OFFCURVE",
"180 834 CURVE",
"260 740 OFFCURVE",
"395 704 OFFCURVE",
"395 704 CURVE"
);
}
);
width = 669;
}
);
leftKerningGroup = O;
rightKerningGroup = O;
unicode = 00D2;
},
{
glyphname = Oslash;
lastChange = "2017-07-21 14:56:56 +0000";
layers = (
{
layerId = "3E88664E-E4A1-4C90-B697-57006E853054";
paths = (
{
closed = 1;
nodes = (
"408 682 CURVE SMOOTH",
"157 682 OFFCURVE",
"40 449 OFFCURVE",
"40 208 CURVE SMOOTH",
"40 131 OFFCURVE",
"59 72 OFFCURVE",
"102 35 CURVE",
"66 -27 LINE",
"151 -73 LINE",
"190 -6 LINE",
"211 -10 OFFCURVE",
"234 -13 OFFCURVE",
"260 -13 CURVE SMOOTH",
"511 -13 OFFCURVE",
"628 220 OFFCURVE",
"628 461 CURVE SMOOTH",
"628 537 OFFCURVE",
"608 596 OFFCURVE",
"566 634 CURVE",
"602 696 LINE",
"517 742 LINE",
"478 675 LINE",
"457 679 OFFCURVE",
"434 682 OFFCURVE"
);
},
{
closed = 1;
nodes = (
"500 446 LINE SMOOTH",
"501 293 OFFCURVE",
"437 72 OFFCURVE",
"294 72 CURVE SMOOTH",
"271 72 OFFCURVE",
"254 73 OFFCURVE",
"238 76 CURVE",
"499 522 LINE"
);
},
{
closed = 1;
nodes = (
"168 225 LINE SMOOTH",
"168 377 OFFCURVE",
"231 597 OFFCURVE",
"374 597 CURVE SMOOTH",
"395 597 OFFCURVE",
"414 596 OFFCURVE",
"430 593 CURVE",
"168 147 LINE"
);
}
);
width = 668;
},
{
layerId = "A97BF1D1-A3CC-43F5-9A06-B7BB37BB129E";
paths = (
{
closed = 1;
nodes = (
"403 681 CURVE SMOOTH",
"150 681 OFFCURVE",
"32 452 OFFCURVE",
"32 215 CURVE SMOOTH",
"32 138 OFFCURVE",
"51 79 OFFCURVE",
"94 39 CURVE",
"61 -18 LINE",
"164 -72 LINE",
"201 -9 LINE",
"220 -12 OFFCURVE",
"241 -15 OFFCURVE",
"264 -15 CURVE SMOOTH",
"518 -15 OFFCURVE",
"636 217 OFFCURVE",
"636 453 CURVE SMOOTH",
"636 529 OFFCURVE",
"617 588 OFFCURVE",
"576 627 CURVE",
"610 686 LINE",
"506 743 LINE",
"467 676 LINE",
"448 679 OFFCURVE",
"426 681 OFFCURVE"
);
},
{
closed = 1;
nodes = (
"460 387 LINE SMOOTH",
"453 260 OFFCURVE",
"398 109 OFFCURVE",
"297 109 CURVE SMOOTH",
"288 109 OFFCURVE",
"280 109 OFFCURVE",
"272 111 CURVE",
"462 434 LINE"
);
},
{
closed = 1;
nodes = (
"206 262 LINE SMOOTH",
"212 391 OFFCURVE",
"264 559 OFFCURVE",
"372 559 CURVE SMOOTH",
"384 559 OFFCURVE",
"391 558 OFFCURVE",
"397 557 CURVE",
"206 231 LINE"
);
}
);
width = 669;
}
);
leftKerningGroup = O;
rightKerningGroup = O;
unicode = 00D8;
},
{
glyphname = Otilde;
lastChange = "2017-07-21 14:56:56 +0000";
layers = (
{
layerId = "3E88664E-E4A1-4C90-B697-57006E853054";
paths = (
{
closed = 1;
nodes = (
"408 682 CURVE SMOOTH",
"157 682 OFFCURVE",
"40 449 OFFCURVE",
"40 208 CURVE SMOOTH",
"40 68 OFFCURVE",
"105 -13 OFFCURVE",
"260 -13 CURVE SMOOTH",
"511 -13 OFFCURVE",
"628 220 OFFCURVE",
"628 461 CURVE SMOOTH",
"628 601 OFFCURVE",
"563 682 OFFCURVE"
);
},
{
closed = 1;
nodes = (
"374 595 CURVE SMOOTH",
"470 595 OFFCURVE",
"500 530 OFFCURVE",
"500 444 CURVE SMOOTH",
"500 292 OFFCURVE",
"437 74 OFFCURVE",
"294 74 CURVE SMOOTH",
"198 74 OFFCURVE",
"168 139 OFFCURVE",
"168 226 CURVE SMOOTH",
"168 377 OFFCURVE",
"231 595 OFFCURVE"
);
},
{
closed = 1;
nodes = (
"253 756 LINE",
"253 756 OFFCURVE",
"292 771 OFFCURVE",
"338 771 CURVE SMOOTH",
"388 771 OFFCURVE",
"441 750 OFFCURVE",
"490 750 CURVE SMOOTH",
"536 750 OFFCURVE",
"576 774 OFFCURVE",
"576 774 CURVE",
"591 854 LINE",
"591 854 OFFCURVE",
"553 839 OFFCURVE",
"507 839 CURVE SMOOTH",
"457 839 OFFCURVE",
"404 860 OFFCURVE",
"355 860 CURVE SMOOTH",
"308 860 OFFCURVE",
"269 836 OFFCURVE",
"269 836 CURVE"
);
}
);
width = 668;
},
{
layerId = "A97BF1D1-A3CC-43F5-9A06-B7BB37BB129E";
paths = (
{
closed = 1;
nodes = (
"403 681 CURVE SMOOTH",
"150 681 OFFCURVE",
"32 452 OFFCURVE",
"32 215 CURVE SMOOTH",
"32 71 OFFCURVE",
"100 -15 OFFCURVE",
"264 -15 CURVE SMOOTH",
"518 -15 OFFCURVE",
"636 217 OFFCURVE",
"636 453 CURVE SMOOTH",
"636 598 OFFCURVE",
"567 681 OFFCURVE"
);
},
{
closed = 1;
nodes = (
"372 557 CURVE SMOOTH",
"441 557 OFFCURVE",
"463 505 OFFCURVE",
"463 437 CURVE SMOOTH",
"463 303 OFFCURVE",
"412 109 OFFCURVE",
"297 109 CURVE SMOOTH",
"227 109 OFFCURVE",
"206 164 OFFCURVE",
"206 233 CURVE SMOOTH",
"206 366 OFFCURVE",
"257 557 OFFCURVE"
);
},
{
closed = 1;
nodes = (
"518 867 LINE",
"518 867 OFFCURVE",
"486 858 OFFCURVE",
"464 858 CURVE SMOOTH",
"433 858 OFFCURVE",
"422 870 OFFCURVE",
"398 870 CURVE SMOOTH",
"367 870 OFFCURVE",
"342 856 OFFCURVE",
"342 856 CURVE",
"329 791 LINE",
"329 791 OFFCURVE",
"361 800 OFFCURVE",
"383 800 CURVE SMOOTH",
"414 800 OFFCURVE",
"425 788 OFFCURVE",
"449 788 CURVE SMOOTH",
"480 788 OFFCURVE",
"505 802 OFFCURVE",
"505 802 CURVE"
);
}
);
width = 669;
}
);
leftKerningGroup = O;
rightKerningGroup = O;
unicode = 00D5;
},
{
glyphname = OE;
lastChange = "2017-07-21 14:56:56 +0000";
layers = (
{
layerId = "3E88664E-E4A1-4C90-B697-57006E853054";
paths = (
{
closed = 1;
nodes = (
"735 0 LINE",
"735 84 LINE",
"478 84 LINE",
"522 310 LINE",
"717 310 LINE",
"735 393 LINE",
"538 393 LINE",
"575 585 LINE",
"823 585 LINE",
"841 669 LINE",
"480 669 LINE",
"461 675 OFFCURVE",
"438 679 OFFCURVE",
"408 679 CURVE SMOOTH",
"157 679 OFFCURVE",
"40 449 OFFCURVE",
"40 208 CURVE SMOOTH",
"40 68 OFFCURVE",
"105 -13 OFFCURVE",
"260 -13 CURVE SMOOTH",
"292 -13 OFFCURVE",
"322 -8 OFFCURVE",
"350 0 CURVE"
);
},
{
closed = 1;
nodes = (
"294 74 CURVE SMOOTH",
"198 74 OFFCURVE",
"168 139 OFFCURVE",
"168 226 CURVE SMOOTH",
"168 377 OFFCURVE",
"231 595 OFFCURVE",
"374 595 CURVE SMOOTH",
"400 595 OFFCURVE",
"430 591 OFFCURVE",
"461 586 CURVE",
"362 83 LINE",
"340 77 OFFCURVE",
"316 74 OFFCURVE"
);
}
);
width = 816;
},
{
layerId = "A97BF1D1-A3CC-43F5-9A06-B7BB37BB129E";
paths = (
{
closed = 1;
nodes = (
"766 0 LINE",
"766 121 LINE",
"515 121 LINE",
"549 290 LINE",
"745 290 LINE",
"771 411 LINE",
"571 411 LINE",
"598 548 LINE",
"844 548 LINE",
"870 669 LINE",
"461 669 LINE",
"442 673 OFFCURVE",
"419 676 OFFCURVE",
"393 676 CURVE SMOOTH",
"151 676 OFFCURVE",
"32 452 OFFCURVE",
"32 215 CURVE SMOOTH",
"32 71 OFFCURVE",
"98 -13 OFFCURVE",
"264 -13 CURVE SMOOTH",
"299 -13 OFFCURVE",
"329 -8 OFFCURVE",
"356 0 CURVE"
);
},
{
closed = 1;
nodes = (
"297 109 CURVE SMOOTH",
"227 109 OFFCURVE",
"206 164 OFFCURVE",
"206 233 CURVE SMOOTH",
"206 366 OFFCURVE",
"256 557 OFFCURVE",
"372 557 CURVE SMOOTH",
"397 557 OFFCURVE",
"416 555 OFFCURVE",
"437 549 CURVE",
"352 116 LINE",
"334 112 OFFCURVE",
"316 109 OFFCURVE"
);
}
);
width = 838;
}
);
leftKerningGroup = O;
rightKerningGroup = E;
unicode = 0152;
},
{
glyphname = P;
lastChange = "2017-07-21 14:56:56 +0000";
layers = (
{
layerId = "3E88664E-E4A1-4C90-B697-57006E853054";
paths = (
{
closed = 1;
nodes = (
"15 0 LINE",
"131 0 LINE",
"182 268 LINE",
"206 266 OFFCURVE",
"229 266 OFFCURVE",
"248 266 CURVE SMOOTH",
"409 266 OFFCURVE",
"534 363 OFFCURVE",
"534 529 CURVE SMOOTH",
"534 639 OFFCURVE",
"452 675 OFFCURVE",
"335 675 CURVE SMOOTH",
"295 675 OFFCURVE",
"261 670 OFFCURVE",
"238 665 CURVE",
"145 673 LINE"
);
},
{
closed = 1;
nodes = (
"304 595 CURVE SMOOTH",
"381 595 OFFCURVE",
"410 558 OFFCURVE",
"410 505 CURVE SMOOTH",
"410 411 OFFCURVE",
"351 354 OFFCURVE",
"224 354 CURVE SMOOTH",
"199 354 LINE",
"245 591 LINE",
"262 594 OFFCURVE",
"282 595 OFFCURVE"
);
}
);
width = 545;
},
{
layerId = "A97BF1D1-A3CC-43F5-9A06-B7BB37BB129E";
paths = (
{
closed = 1;
nodes = (
"7 0 LINE",
"169 0 LINE",
"217 250 LINE",
"235 248 OFFCURVE",
"252 248 OFFCURVE",
"271 248 CURVE SMOOTH",
"409 248 OFFCURVE",
"551 336 OFFCURVE",
"551 515 CURVE SMOOTH",
"551 636 OFFCURVE",
"462 675 OFFCURVE",
"345 675 CURVE SMOOTH",
"308 675 OFFCURVE",
"274 671 OFFCURVE",
"248 666 CURVE",
"137 673 LINE"
);
},
{
closed = 1;
nodes = (
"311 567 CURVE SMOOTH",
"354 567 OFFCURVE",
"381 547 OFFCURVE",
"381 494 CURVE SMOOTH",
"381 418 OFFCURVE",
"332 367 OFFCURVE",
"259 367 CURVE SMOOTH",
"240 367 LINE",
"278 565 LINE",
"289 567 OFFCURVE",
"299 567 OFFCURVE"
);
}
);
width = 554;
}
);
leftKerningGroup = I;
unicode = 0050;
},
{
glyphname = Thorn;
lastChange = "2017-07-21 14:56:56 +0000";
layers = (
{
layerId = "3E88664E-E4A1-4C90-B697-57006E853054";
paths = (
{
closed = 1;
nodes = (
"15 0 LINE",
"130 0 LINE",
"156 137 LINE",
"173 137 OFFCURVE",
"193 137 OFFCURVE",
"214 137 CURVE SMOOTH",
"391 137 OFFCURVE",
"513 236 OFFCURVE",
"513 394 CURVE SMOOTH",
"513 490 OFFCURVE",
"451 551 OFFCURVE",
"314 551 CURVE SMOOTH",
"293 551 OFFCURVE",
"263 549 OFFCURVE",
"232 546 CURVE",
"256 669 LINE",
"141 669 LINE"
);
},
{
closed = 1;
nodes = (
"283 466 CURVE SMOOTH",
"362 466 OFFCURVE",
"387 423 OFFCURVE",
"387 374 CURVE SMOOTH",
"387 291 OFFCURVE",
"330 225 OFFCURVE",
"238 225 CURVE SMOOTH",
"171 225 LINE",
"216 459 LINE",
"232 462 OFFCURVE",
"255 466 OFFCURVE"
);
}
);
width = 534;
},
{
layerId = "A97BF1D1-A3CC-43F5-9A06-B7BB37BB129E";
paths = (
{
closed = 1;
nodes = (
"7 0 LINE",
"169 0 LINE",
"194 132 LINE",
"210 131 OFFCURVE",
"228 131 OFFCURVE",
"246 131 CURVE SMOOTH",
"389 131 OFFCURVE",
"530 218 OFFCURVE",
"530 395 CURVE SMOOTH",
"530 513 OFFCURVE",
"446 558 OFFCURVE",
"324 558 CURVE SMOOTH",
"310 558 OFFCURVE",
"293 558 OFFCURVE",
"276 556 CURVE",
"298 669 LINE",
"136 669 LINE"
);
},
{
closed = 1;
nodes = (
"289 442 CURVE SMOOTH",
"329 442 OFFCURVE",
"360 424 OFFCURVE",
"360 369 CURVE SMOOTH",
"360 298 OFFCURVE",
"309 257 OFFCURVE",
"248 257 CURVE SMOOTH",
"219 257 LINE",
"254 439 LINE",
"264 441 OFFCURVE",
"275 442 OFFCURVE"
);
}
);
width = 543;
}
);
leftKerningGroup = I;
unicode = 00DE;
},
{
glyphname = Q;
lastChange = "2017-07-21 14:56:56 +0000";
layers = (
{
layerId = "3E88664E-E4A1-4C90-B697-57006E853054";
paths = (
{
closed = 1;
nodes = (
"530 -86 LINE",
"472 -122 OFFCURVE",
"401 -161 OFFCURVE",
"331 -161 CURVE SMOOTH",
"277 -161 OFFCURVE",
"230 -139 OFFCURVE",
"208 -75 CURVE",
"423 -62 OFFCURVE",
"626 174 OFFCURVE",
"626 461 CURVE SMOOTH",
"626 601 OFFCURVE",
"561 682 OFFCURVE",
"406 682 CURVE SMOOTH",
"188 682 OFFCURVE",
"55 503 OFFCURVE",
"55 349 CURVE SMOOTH",
"55 239 OFFCURVE",
"135 177 OFFCURVE",
"224 177 CURVE SMOOTH",
"234 177 OFFCURVE",
"251 177 OFFCURVE",
"261 180 CURVE",
"270 264 LINE",
"213 272 OFFCURVE",
"185 289 OFFCURVE",
"185 355 CURVE SMOOTH",
"185 460 OFFCURVE",
"260 595 OFFCURVE",
"372 595 CURVE SMOOTH",
"468 595 OFFCURVE",
"498 531 OFFCURVE",
"498 444 CURVE SMOOTH",
"498 210 OFFCURVE",
"336 -2 OFFCURVE",
"169 -2 CURVE SMOOTH",
"154 -2 OFFCURVE",
"139 0 OFFCURVE",
"125 3 CURVE",
"91 -63 LINE",
"115 -207 OFFCURVE",
"211 -258 OFFCURVE",
"321 -258 CURVE SMOOTH",
"412 -258 OFFCURVE",
"505 -216 OFFCURVE",
"568 -174 CURVE"
);
}
);
width = 666;
},
{
layerId = "A97BF1D1-A3CC-43F5-9A06-B7BB37BB129E";
paths = (
{
closed = 1;
nodes = (
"533 -53 LINE",
"465 -93 OFFCURVE",
"399 -125 OFFCURVE",
"328 -125 CURVE SMOOTH",
"295 -125 OFFCURVE",
"259 -115 OFFCURVE",
"241 -77 CURVE",
"450 -55 OFFCURVE",
"636 183 OFFCURVE",
"636 453 CURVE SMOOTH",
"636 598 OFFCURVE",
"567 681 OFFCURVE",
"403 681 CURVE SMOOTH",
"181 681 OFFCURVE",
"47 502 OFFCURVE",
"47 348 CURVE SMOOTH",
"47 231 OFFCURVE",
"135 166 OFFCURVE",
"232 166 CURVE SMOOTH",
"243 166 OFFCURVE",
"262 166 OFFCURVE",
"292 175 CURVE",
"304 287 LINE",
"249 294 OFFCURVE",
"223 307 OFFCURVE",
"223 353 CURVE SMOOTH",
"223 442 OFFCURVE",
"283 557 OFFCURVE",
"370 557 CURVE SMOOTH",
"440 557 OFFCURVE",
"463 506 OFFCURVE",
"463 437 CURVE SMOOTH",
"463 230 OFFCURVE",
"328 17 OFFCURVE",
"175 17 CURVE SMOOTH",
"164 17 OFFCURVE",
"147 17 OFFCURVE",
"123 23 CURVE",
"81 -59 LINE",
"110 -212 OFFCURVE",
"210 -258 OFFCURVE",
"319 -258 CURVE SMOOTH",
"410 -258 OFFCURVE",
"511 -221 OFFCURVE",
"586 -174 CURVE"
);
}
);
width = 669;
}
);
unicode = 0051;
},
{
glyphname = R;
lastChange = "2017-07-21 14:56:56 +0000";
layers = (
{
layerId = "3E88664E-E4A1-4C90-B697-57006E853054";
paths = (
{
closed = 1;
nodes = (
"15 0 LINE",
"131 0 LINE",
"188 299 LINE",
"205 298 OFFCURVE",
"221 298 OFFCURVE",
"236 298 CURVE",
"287 148 OFFCURVE",
"325 57 OFFCURVE",
"451 -103 CURVE",
"545 -53 LINE",
"462 45 OFFCURVE",
"371 201 OFFCURVE",
"340 306 CURVE",
"453 330 OFFCURVE",
"534 398 OFFCURVE",
"534 529 CURVE SMOOTH",
"534 639 OFFCURVE",
"452 675 OFFCURVE",
"335 675 CURVE SMOOTH",
"295 675 OFFCURVE",
"261 670 OFFCURVE",
"238 665 CURVE",
"145 673 LINE"
);
},
{
closed = 1;
nodes = (
"304 595 CURVE SMOOTH",
"381 595 OFFCURVE",
"410 558 OFFCURVE",
"410 505 CURVE SMOOTH",
"410 410 OFFCURVE",
"344 379 OFFCURVE",
"224 379 CURVE SMOOTH",
"204 379 LINE",
"245 591 LINE",
"262 594 OFFCURVE",
"282 595 OFFCURVE"
);
}
);
width = 556;
},
{
layerId = "A97BF1D1-A3CC-43F5-9A06-B7BB37BB129E";
paths = (
{
closed = 1;
nodes = (
"7 0 LINE",
"169 0 LINE",
"223 277 LINE",
"231 277 OFFCURVE",
"241 276 OFFCURVE",
"249 276 CURVE",
"297 141 OFFCURVE",
"342 47 OFFCURVE",
"463 -103 CURVE",
"596 -33 LINE",
"516 62 OFFCURVE",
"421 199 OFFCURVE",
"389 296 CURVE",
"483 332 OFFCURVE",
"551 403 OFFCURVE",
"551 519 CURVE SMOOTH",
"551 637 OFFCURVE",
"462 675 OFFCURVE",
"345 675 CURVE SMOOTH",
"308 675 OFFCURVE",
"274 671 OFFCURVE",
"248 666 CURVE",
"137 673 LINE"
);
},
{
closed = 1;
nodes = (
"311 567 CURVE SMOOTH",
"354 567 OFFCURVE",
"381 547 OFFCURVE",
"381 499 CURVE SMOOTH",
"381 432 OFFCURVE",
"333 392 OFFCURVE",
"259 392 CURVE SMOOTH",
"245 392 LINE",
"278 565 LINE",
"289 567 OFFCURVE",
"299 567 OFFCURVE"
);
}
);
width = 598;
}
);
leftKerningGroup = I;
unicode = 0052;
},
{
glyphname = S;
lastChange = "2017-07-21 14:56:56 +0000";
layers = (
{
layerId = "3E88664E-E4A1-4C90-B697-57006E853054";
paths = (
{
closed = 1;
nodes = (
"307 682 CURVE SMOOTH",
"426 682 OFFCURVE",
"457 617 OFFCURVE",
"470 563 CURVE",
"386 524 LINE",
"375 548 OFFCURVE",
"365 595 OFFCURVE",
"307 595 CURVE SMOOTH",
"254 595 OFFCURVE",
"211 559 OFFCURVE",
"211 512 CURVE SMOOTH",
"211 463 OFFCURVE",
"237 442 OFFCURVE",
"273 416 CURVE SMOOTH",
"353 357 LINE SMOOTH",
"401 321 OFFCURVE",
"441 272 OFFCURVE",
"441 193 CURVE SMOOTH",
"441 57 OFFCURVE",
"317 -14 OFFCURVE",
"192 -14 CURVE SMOOTH",
"93 -14 OFFCURVE",
"29 21 OFFCURVE",
"-15 44 CURVE",
"35 132 LINE",
"80 105 OFFCURVE",
"133 74 OFFCURVE",
"188 74 CURVE SMOOTH",
"262 74 OFFCURVE",
"313 107 OFFCURVE",
"313 179 CURVE SMOOTH",
"313 225 OFFCURVE",
"291 251 OFFCURVE",
"250 281 CURVE SMOOTH",
"175 337 LINE SMOOTH",
"116 380 OFFCURVE",
"82 419 OFFCURVE",
"82 498 CURVE SMOOTH",
"82 615 OFFCURVE",
"179 682 OFFCURVE"
);
}
);
width = 500;
},
{
layerId = "A97BF1D1-A3CC-43F5-9A06-B7BB37BB129E";
paths = (
{
closed = 1;
nodes = (
"305 681 CURVE SMOOTH",
"436 681 OFFCURVE",
"473 616 OFFCURVE",
"494 550 CURVE",
"368 492 LINE",
"353 534 OFFCURVE",
"341 557 OFFCURVE",
"305 557 CURVE SMOOTH",
"267 557 OFFCURVE",
"242 532 OFFCURVE",
"242 501 CURVE SMOOTH",
"242 463 OFFCURVE",
"261 447 OFFCURVE",
"289 427 CURVE SMOOTH",
"377 362 LINE SMOOTH",
"429 324 OFFCURVE",
"461 271 OFFCURVE",
"461 197 CURVE SMOOTH",
"461 55 OFFCURVE",
"336 -13 OFFCURVE",
"200 -13 CURVE SMOOTH",
"103 -13 OFFCURVE",
"33 13 OFFCURVE",
"-23 43 CURVE",
"47 167 LINE",
"96 138 OFFCURVE",
"145 112 OFFCURVE",
"197 112 CURVE SMOOTH",
"251 112 OFFCURVE",
"287 135 OFFCURVE",
"287 184 CURVE SMOOTH",
"287 223 OFFCURVE",
"267 245 OFFCURVE",
"236 267 CURVE SMOOTH",
"165 319 LINE SMOOTH",
"102 366 OFFCURVE",
"68 414 OFFCURVE",
"68 496 CURVE SMOOTH",
"68 613 OFFCURVE",
"170 681 OFFCURVE"
);
}
);
width = 517;
}
);
unicode = 0053;
},
{
glyphname = T;
lastChange = "2017-07-21 14:56:56 +0000";
layers = (
{
layerId = "3E88664E-E4A1-4C90-B697-57006E853054";
paths = (
{
closed = 1;
nodes = (
"55 585 LINE",
"222 585 LINE",
"108 0 LINE",
"224 0 LINE",
"337 585 LINE",
"506 585 LINE",
"524 669 LINE",
"55 669 LINE"
);
}
);
width = 455;
},
{
layerId = "A97BF1D1-A3CC-43F5-9A06-B7BB37BB129E";
paths = (
{
closed = 1;
nodes = (
"47 548 LINE",
"198 548 LINE",
"93 0 LINE",
"256 0 LINE",
"362 548 LINE",
"519 548 LINE",
"545 669 LINE",
"47 669 LINE"
);
}
);
width = 468;
}
);
unicode = 0054;
},
{
glyphname = U;
lastChange = "2017-07-21 14:56:56 +0000";
layers = (
{
anchors = (
{
name = topUC;
position = "{390, 669}";
}
);
layerId = "3E88664E-E4A1-4C90-B697-57006E853054";
paths = (
{
closed = 1;
nodes = (
"134 669 LINE",
"53 250 LINE SMOOTH",
"48 225 OFFCURVE",
"45 200 OFFCURVE",
"45 177 CURVE SMOOTH",
"45 72 OFFCURVE",
"100 -8 OFFCURVE",
"250 -8 CURVE SMOOTH",
"442 -8 OFFCURVE",
"529 111 OFFCURVE",
"556 250 CURVE SMOOTH",
"637 669 LINE",
"521 669 LINE",
"441 259 LINE SMOOTH",
"420 150 OFFCURVE",
"366 74 OFFCURVE",
"279 74 CURVE SMOOTH",
"207 74 OFFCURVE",
"164 119 OFFCURVE",
"164 200 CURVE SMOOTH",
"164 217 OFFCURVE",
"166 237 OFFCURVE",
"170 259 CURVE SMOOTH",
"250 669 LINE"
);
}
);
width = 652;
},
{
anchors = (
{
name = topUC;
position = "{390, 669}";
}
);
layerId = "A97BF1D1-A3CC-43F5-9A06-B7BB37BB129E";
paths = (
{
closed = 1;
nodes = (
"125 669 LINE",
"45 259 LINE SMOOTH",
"40 234 OFFCURVE",
"37 209 OFFCURVE",
"37 187 CURVE SMOOTH",
"37 76 OFFCURVE",
"95 -7 OFFCURVE",
"256 -7 CURVE SMOOTH",
"452 -7 OFFCURVE",
"541 112 OFFCURVE",
"568 251 CURVE SMOOTH",
"649 669 LINE",
"487 669 LINE",
"408 268 LINE SMOOTH",
"390 177 OFFCURVE",
"348 112 OFFCURVE",
"283 112 CURVE SMOOTH",
"233 112 OFFCURVE",
"202 146 OFFCURVE",
"202 208 CURVE SMOOTH",
"202 224 OFFCURVE",
"203 241 OFFCURVE",
"207 260 CURVE SMOOTH",
"287 669 LINE"
);
}
);
width = 656;
}
);
leftKerningGroup = U;
rightKerningGroup = U;
unicode = 0055;
},
{
glyphname = Uacute;
lastChange = "2017-07-21 14:56:56 +0000";
layers = (
{
layerId = "3E88664E-E4A1-4C90-B697-57006E853054";
paths = (
{
closed = 1;
nodes = (
"134 669 LINE",
"53 250 LINE SMOOTH",
"48 225 OFFCURVE",
"45 200 OFFCURVE",
"45 177 CURVE SMOOTH",
"45 72 OFFCURVE",
"100 -8 OFFCURVE",
"250 -8 CURVE SMOOTH",
"442 -8 OFFCURVE",
"529 111 OFFCURVE",
"556 250 CURVE SMOOTH",
"637 669 LINE",
"521 669 LINE",
"441 259 LINE SMOOTH",
"420 150 OFFCURVE",
"366 74 OFFCURVE",
"279 74 CURVE SMOOTH",
"207 74 OFFCURVE",
"164 119 OFFCURVE",
"164 200 CURVE SMOOTH",
"164 217 OFFCURVE",
"166 237 OFFCURVE",
"170 259 CURVE SMOOTH",
"250 669 LINE"
);
},
{
closed = 1;
nodes = (
"382 713 LINE",
"382 713 OFFCURVE",
"517 807 OFFCURVE",
"601 842 CURVE",
"594 879 OFFCURVE",
"551 921 OFFCURVE",
"551 921 CURVE",
"462 879 OFFCURVE",
"346 771 OFFCURVE",
"346 771 CURVE"
);
}
);
width = 652;
},
{
layerId = "A97BF1D1-A3CC-43F5-9A06-B7BB37BB129E";
paths = (
{
closed = 1;
nodes = (
"125 669 LINE",
"45 259 LINE SMOOTH",
"40 234 OFFCURVE",
"37 209 OFFCURVE",
"37 187 CURVE SMOOTH",
"37 76 OFFCURVE",
"95 -7 OFFCURVE",
"256 -7 CURVE SMOOTH",
"452 -7 OFFCURVE",
"541 112 OFFCURVE",
"568 251 CURVE SMOOTH",
"649 669 LINE",
"487 669 LINE",
"408 268 LINE SMOOTH",
"390 177 OFFCURVE",
"348 112 OFFCURVE",
"283 112 CURVE SMOOTH",
"233 112 OFFCURVE",
"202 146 OFFCURVE",
"202 208 CURVE SMOOTH",
"202 224 OFFCURVE",
"203 241 OFFCURVE",
"207 260 CURVE SMOOTH",
"287 669 LINE"
);
},
{
closed = 1;
nodes = (
"386 705 LINE",
"386 705 OFFCURVE",
"500 785 OFFCURVE",
"615 817 CURVE",
"598 898 OFFCURVE",
"552 942 OFFCURVE",
"552 942 CURVE",
"436 902 OFFCURVE",
"334 789 OFFCURVE",
"334 789 CURVE"
);
}
);
width = 656;
}
);
leftKerningGroup = U;
rightKerningGroup = U;
unicode = 00DA;
},
{
glyphname = Ucircumflex;
lastChange = "2017-07-21 14:56:56 +0000";
layers = (
{
layerId = "3E88664E-E4A1-4C90-B697-57006E853054";
paths = (
{
closed = 1;
nodes = (
"134 669 LINE",
"53 250 LINE SMOOTH",
"48 225 OFFCURVE",
"45 200 OFFCURVE",
"45 177 CURVE SMOOTH",
"45 72 OFFCURVE",
"100 -8 OFFCURVE",
"250 -8 CURVE SMOOTH",
"442 -8 OFFCURVE",
"529 111 OFFCURVE",
"556 250 CURVE SMOOTH",
"637 669 LINE",
"521 669 LINE",
"441 259 LINE SMOOTH",
"420 150 OFFCURVE",
"366 74 OFFCURVE",
"279 74 CURVE SMOOTH",
"207 74 OFFCURVE",
"164 119 OFFCURVE",
"164 200 CURVE SMOOTH",
"164 217 OFFCURVE",
"166 237 OFFCURVE",
"170 259 CURVE SMOOTH",
"250 669 LINE"
);
},
{
closed = 1;
nodes = (
"249 705 LINE",
"249 705 OFFCURVE",
"332 756 OFFCURVE",
"408 797 CURVE",
"472 738 OFFCURVE",
"550 703 OFFCURVE",
"550 703 CURVE",
"587 758 LINE",
"587 758 OFFCURVE",
"498 832 OFFCURVE",
"429 913 CURVE",
"339 871 OFFCURVE",
"213 763 OFFCURVE",
"213 763 CURVE"
);
}
);
width = 652;
},
{
layerId = "A97BF1D1-A3CC-43F5-9A06-B7BB37BB129E";
paths = (
{
closed = 1;
nodes = (
"125 669 LINE",
"45 259 LINE SMOOTH",
"40 234 OFFCURVE",
"37 209 OFFCURVE",
"37 187 CURVE SMOOTH",
"37 76 OFFCURVE",
"95 -7 OFFCURVE",
"256 -7 CURVE SMOOTH",
"452 -7 OFFCURVE",
"541 112 OFFCURVE",
"568 251 CURVE SMOOTH",
"649 669 LINE",
"487 669 LINE",
"408 268 LINE SMOOTH",
"390 177 OFFCURVE",
"348 112 OFFCURVE",
"283 112 CURVE SMOOTH",
"233 112 OFFCURVE",
"202 146 OFFCURVE",
"202 208 CURVE SMOOTH",
"202 224 OFFCURVE",
"203 241 OFFCURVE",
"207 260 CURVE SMOOTH",
"287 669 LINE"
);
},
{
closed = 1;
nodes = (
"281 719 LINE",
"281 719 OFFCURVE",
"341 757 OFFCURVE",
"409 799 CURVE",
"469 740 OFFCURVE",
"542 719 OFFCURVE",
"542 719 CURVE",
"597 801 LINE",
"597 801 OFFCURVE",
"502 867 OFFCURVE",
"440 953 CURVE",
"343 900 OFFCURVE",
"230 803 OFFCURVE",
"230 803 CURVE"
);
}
);
width = 656;
}
);
leftKerningGroup = U;
rightKerningGroup = U;
unicode = 00DB;
},
{
glyphname = Udieresis;
lastChange = "2017-07-21 14:56:56 +0000";
layers = (
{
layerId = "3E88664E-E4A1-4C90-B697-57006E853054";
paths = (
{
closed = 1;
nodes = (
"134 669 LINE",
"53 250 LINE SMOOTH",
"48 225 OFFCURVE",
"45 200 OFFCURVE",
"45 177 CURVE SMOOTH",
"45 72 OFFCURVE",
"100 -8 OFFCURVE",
"250 -8 CURVE SMOOTH",
"442 -8 OFFCURVE",
"529 111 OFFCURVE",
"556 250 CURVE SMOOTH",
"637 669 LINE",
"521 669 LINE",
"441 259 LINE SMOOTH",
"420 150 OFFCURVE",
"366 74 OFFCURVE",
"279 74 CURVE SMOOTH",
"207 74 OFFCURVE",
"164 119 OFFCURVE",
"164 200 CURVE SMOOTH",
"164 217 OFFCURVE",
"166 237 OFFCURVE",
"170 259 CURVE SMOOTH",
"250 669 LINE"
);
},
{
closed = 1;
nodes = (
"322 860 CURVE SMOOTH",
"282 860 OFFCURVE",
"257 828 OFFCURVE",
"257 792 CURVE SMOOTH",
"257 759 OFFCURVE",
"274 735 OFFCURVE",
"312 735 CURVE SMOOTH",
"353 735 OFFCURVE",
"379 766 OFFCURVE",
"379 801 CURVE SMOOTH",
"379 837 OFFCURVE",
"361 860 OFFCURVE"
);
},
{
closed = 1;
nodes = (
"512 860 CURVE SMOOTH",
"471 860 OFFCURVE",
"446 828 OFFCURVE",
"446 792 CURVE SMOOTH",
"446 759 OFFCURVE",
"463 735 OFFCURVE",
"502 735 CURVE SMOOTH",
"542 735 OFFCURVE",
"568 766 OFFCURVE",
"568 801 CURVE SMOOTH",
"568 837 OFFCURVE",
"550 860 OFFCURVE"
);
}
);
width = 652;
},
{
layerId = "A97BF1D1-A3CC-43F5-9A06-B7BB37BB129E";
paths = (
{
closed = 1;
nodes = (
"125 669 LINE",
"45 259 LINE SMOOTH",
"40 234 OFFCURVE",
"37 209 OFFCURVE",
"37 187 CURVE SMOOTH",
"37 76 OFFCURVE",
"95 -7 OFFCURVE",
"256 -7 CURVE SMOOTH",
"452 -7 OFFCURVE",
"541 112 OFFCURVE",
"568 251 CURVE SMOOTH",
"649 669 LINE",
"487 669 LINE",
"408 268 LINE SMOOTH",
"390 177 OFFCURVE",
"348 112 OFFCURVE",
"283 112 CURVE SMOOTH",
"233 112 OFFCURVE",
"202 146 OFFCURVE",
"202 208 CURVE SMOOTH",
"202 224 OFFCURVE",
"203 241 OFFCURVE",
"207 260 CURVE SMOOTH",
"287 669 LINE"
);
},
{
closed = 1;
nodes = (
"308 891 CURVE SMOOTH",
"255 891 OFFCURVE",
"224 854 OFFCURVE",
"224 809 CURVE SMOOTH",
"224 768 OFFCURVE",
"247 739 OFFCURVE",
"298 739 CURVE SMOOTH",
"350 739 OFFCURVE",
"383 776 OFFCURVE",
"383 819 CURVE SMOOTH",
"383 864 OFFCURVE",
"359 891 OFFCURVE"
);
},
{
closed = 1;
nodes = (
"525 891 CURVE SMOOTH",
"473 891 OFFCURVE",
"442 854 OFFCURVE",
"442 809 CURVE SMOOTH",
"442 768 OFFCURVE",
"465 739 OFFCURVE",
"515 739 CURVE SMOOTH",
"568 739 OFFCURVE",
"600 776 OFFCURVE",
"600 819 CURVE SMOOTH",
"600 864 OFFCURVE",
"576 891 OFFCURVE"
);
}
);
width = 656;
}
);
leftKerningGroup = U;
rightKerningGroup = U;
unicode = 00DC;
},
{
glyphname = Ugrave;
lastChange = "2017-07-21 14:56:56 +0000";
layers = (
{
layerId = "3E88664E-E4A1-4C90-B697-57006E853054";
paths = (
{
closed = 1;
nodes = (
"134 669 LINE",
"53 250 LINE SMOOTH",
"48 225 OFFCURVE",
"45 200 OFFCURVE",
"45 177 CURVE SMOOTH",
"45 72 OFFCURVE",
"100 -8 OFFCURVE",
"250 -8 CURVE SMOOTH",
"442 -8 OFFCURVE",
"529 111 OFFCURVE",
"556 250 CURVE SMOOTH",
"637 669 LINE",
"521 669 LINE",
"441 259 LINE SMOOTH",
"420 150 OFFCURVE",
"366 74 OFFCURVE",
"279 74 CURVE SMOOTH",
"207 74 OFFCURVE",
"164 119 OFFCURVE",
"164 200 CURVE SMOOTH",
"164 217 OFFCURVE",
"166 237 OFFCURVE",
"170 259 CURVE SMOOTH",
"250 669 LINE"
);
},
{
closed = 1;
nodes = (
"428 766 LINE",
"428 766 OFFCURVE",
"315 834 OFFCURVE",
"250 921 CURVE",
"205 888 OFFCURVE",
"189 843 OFFCURVE",
"189 843 CURVE",
"252 758 OFFCURVE",
"391 712 OFFCURVE",
"391 712 CURVE"
);
}
);
width = 652;
},
{
layerId = "A97BF1D1-A3CC-43F5-9A06-B7BB37BB129E";
paths = (
{
closed = 1;
nodes = (
"125 669 LINE",
"45 259 LINE SMOOTH",
"40 234 OFFCURVE",
"37 209 OFFCURVE",
"37 187 CURVE SMOOTH",
"37 76 OFFCURVE",
"95 -7 OFFCURVE",
"256 -7 CURVE SMOOTH",
"452 -7 OFFCURVE",
"541 112 OFFCURVE",
"568 251 CURVE SMOOTH",
"649 669 LINE",
"487 669 LINE",
"408 268 LINE SMOOTH",
"390 177 OFFCURVE",
"348 112 OFFCURVE",
"283 112 CURVE SMOOTH",
"233 112 OFFCURVE",
"202 146 OFFCURVE",
"202 208 CURVE SMOOTH",
"202 224 OFFCURVE",
"203 241 OFFCURVE",
"207 260 CURVE SMOOTH",
"287 669 LINE"
);
},
{
closed = 1;
nodes = (
"441 785 LINE",
"441 785 OFFCURVE",
"337 845 OFFCURVE",
"260 944 CURVE",
"190 892 OFFCURVE",
"171 834 OFFCURVE",
"171 834 CURVE",
"251 740 OFFCURVE",
"386 704 OFFCURVE",
"386 704 CURVE"
);
}
);
width = 656;
}
);
leftKerningGroup = U;
rightKerningGroup = U;
unicode = 00D9;
},
{
glyphname = V;
lastChange = "2017-07-21 14:56:56 +0000";
layers = (
{
layerId = "3E88664E-E4A1-4C90-B697-57006E853054";
paths = (
{
closed = 1;
nodes = (
"620 650 LINE",
"505 677 LINE",
"309 300 LINE SMOOTH",
"276 237 OFFCURVE",
"254 194 OFFCURVE",
"238 161 CURVE",
"234 195 OFFCURVE",
"228 238 OFFCURVE",
"218 300 CURVE SMOOTH",
"158 669 LINE",
"35 669 LINE",
"163 0 LINE",
"255 0 LINE"
);
}
);
width = 570;
},
{
layerId = "A97BF1D1-A3CC-43F5-9A06-B7BB37BB129E";
paths = (
{
closed = 1;
nodes = (
"654 642 LINE",
"498 678 LINE",
"304 292 LINE SMOOTH",
"290 266 OFFCURVE",
"271 224 OFFCURVE",
"263 205 CURVE",
"260 228 OFFCURVE",
"255 265 OFFCURVE",
"251 292 CURVE SMOOTH",
"196 669 LINE",
"27 669 LINE",
"155 0 LINE",
"293 0 LINE"
);
}
);
width = 596;
}
);
unicode = 0056;
},
{
glyphname = W;
lastChange = "2017-07-21 14:56:56 +0000";
layers = (
{
layerId = "3E88664E-E4A1-4C90-B697-57006E853054";
paths = (
{
closed = 1;
nodes = (
"469 0 LINE",
"561 0 LINE",
"899 650 LINE",
"784 677 LINE",
"608 300 LINE SMOOTH",
"590 260 OFFCURVE",
"573 217 OFFCURVE",
"557 178 CURVE",
"557 214 OFFCURVE",
"556 256 OFFCURVE",
"553 300 CURVE SMOOTH",
"523 669 LINE",
"421 669 LINE",
"248 299 LINE SMOOTH",
"224 250 OFFCURVE",
"208 210 OFFCURVE",
"196 174 CURVE",
"196 221 OFFCURVE",
"195 272 OFFCURVE",
"193 299 CURVE SMOOTH",
"168 669 LINE",
"45 669 LINE",
"109 0 LINE",
"201 0 LINE",
"382 370 LINE SMOOTH",
"396 399 OFFCURVE",
"413 442 OFFCURVE",
"428 485 CURVE",
"429 443 OFFCURVE",
"431 399 OFFCURVE",
"434 366 CURVE SMOOTH"
);
}
);
width = 839;
},
{
layerId = "A97BF1D1-A3CC-43F5-9A06-B7BB37BB129E";
paths = (
{
closed = 1;
nodes = (
"454 0 LINE",
"592 0 LINE",
"925 640 LINE",
"769 677 LINE",
"610 310 LINE SMOOTH",
"603 293 OFFCURVE",
"583 246 OFFCURVE",
"573 217 CURVE",
"573 247 OFFCURVE",
"572 291 OFFCURVE",
"571 310 CURVE SMOOTH",
"554 669 LINE",
"406 669 LINE",
"255 322 LINE SMOOTH",
"247 304 OFFCURVE",
"227 254 OFFCURVE",
"219 226 CURVE",
"219 257 OFFCURVE",
"218 300 OFFCURVE",
"218 322 CURVE SMOOTH",
"206 669 LINE",
"37 669 LINE",
"101 0 LINE",
"232 0 LINE",
"384 318 LINE SMOOTH",
"391 332 OFFCURVE",
"412 378 OFFCURVE",
"422 409 CURVE",
"422 377 OFFCURVE",
"426 334 OFFCURVE",
"427 317 CURVE SMOOTH"
);
}
);
width = 857;
}
);
unicode = 0057;
},
{
glyphname = X;
lastChange = "2017-07-21 14:56:56 +0000";
layers = (
{
layerId = "3E88664E-E4A1-4C90-B697-57006E853054";
paths = (
{
closed = 1;
nodes = (
"72 -8 LINE",
"224 200 LINE SMOOTH",
"237 217 OFFCURVE",
"257 245 OFFCURVE",
"277 276 CURVE",
"287 246 OFFCURVE",
"298 217 OFFCURVE",
"305 200 CURVE SMOOTH",
"385 0 LINE",
"510 0 LINE",
"368 348 LINE",
"593 643 LINE",
"490 679 LINE",
"362 505 LINE SMOOTH",
"350 489 OFFCURVE",
"333 465 OFFCURVE",
"316 438 CURVE",
"305 465 OFFCURVE",
"296 490 OFFCURVE",
"289 506 CURVE SMOOTH",
"218 669 LINE",
"94 669 LINE",
"226 367 LINE",
"-40 19 LINE"
);
}
);
width = 569;
},
{
layerId = "A97BF1D1-A3CC-43F5-9A06-B7BB37BB129E";
paths = (
{
closed = 1;
nodes = (
"104 -8 LINE",
"249 205 LINE SMOOTH",
"257 217 OFFCURVE",
"269 234 OFFCURVE",
"281 255 CURVE",
"288 235 OFFCURVE",
"294 217 OFFCURVE",
"299 205 CURVE SMOOTH",
"371 0 LINE",
"542 0 LINE",
"401 348 LINE",
"615 630 LINE",
"476 679 LINE",
"361 509 LINE SMOOTH",
"352 496 OFFCURVE",
"337 473 OFFCURVE",
"327 458 CURVE",
"322 474 OFFCURVE",
"314 497 OFFCURVE",
"309 510 CURVE SMOOTH",
"250 669 LINE",
"80 669 LINE",
"209 367 LINE",
"-48 28 LINE"
);
}
);
width = 582;
}
);
unicode = 0058;
},
{
glyphname = Y;
lastChange = "2017-07-21 14:56:56 +0000";
layers = (
{
anchors = (
{
name = topUC;
position = "{284, 669}";
}
);
layerId = "3E88664E-E4A1-4C90-B697-57006E853054";
paths = (
{
closed = 1;
nodes = (
"230 0 LINE",
"230 38 LINE SMOOTH",
"230 359 OFFCURVE",
"359 476 OFFCURVE",
"518 629 CURVE",
"448 685 LINE",
"376 636 OFFCURVE",
"281 546 OFFCURVE",
"224 410 CURVE",
"158 669 LINE",
"40 669 LINE",
"159 275 LINE",
"131 207 OFFCURVE",
"115 127 OFFCURVE",
"115 40 CURVE SMOOTH",
"115 0 LINE"
);
}
);
width = 459;
},
{
anchors = (
{
name = topUC;
position = "{284, 669}";
}
);
layerId = "A97BF1D1-A3CC-43F5-9A06-B7BB37BB129E";
paths = (
{
closed = 1;
nodes = (
"268 0 LINE",
"268 38 LINE SMOOTH",
"268 345 OFFCURVE",
"387 466 OFFCURVE",
"536 608 CURVE",
"440 685 LINE",
"377 643 OFFCURVE",
"302 569 OFFCURVE",
"244 457 CURVE",
"192 669 LINE",
"28 669 LINE",
"152 273 LINE",
"123 205 OFFCURVE",
"107 126 OFFCURVE",
"107 40 CURVE SMOOTH",
"107 0 LINE"
);
}
);
width = 469;
}
);
leftKerningGroup = Y;
rightKerningGroup = Y;
unicode = 0059;
},
{
glyphname = Yacute;
lastChange = "2017-07-21 14:56:56 +0000";
layers = (
{
layerId = "3E88664E-E4A1-4C90-B697-57006E853054";
paths = (
{
closed = 1;
nodes = (
"230 0 LINE",
"230 38 LINE SMOOTH",
"230 359 OFFCURVE",
"359 476 OFFCURVE",
"518 629 CURVE",
"448 685 LINE",
"376 636 OFFCURVE",
"281 546 OFFCURVE",
"224 410 CURVE",
"158 669 LINE",
"40 669 LINE",
"159 275 LINE",
"131 207 OFFCURVE",
"115 127 OFFCURVE",
"115 40 CURVE SMOOTH",
"115 0 LINE"
);
},
{
closed = 1;
nodes = (
"276 713 LINE",
"276 713 OFFCURVE",
"410 807 OFFCURVE",
"494 842 CURVE",
"488 879 OFFCURVE",
"445 921 OFFCURVE",
"445 921 CURVE",
"356 879 OFFCURVE",
"240 771 OFFCURVE",
"240 771 CURVE"
);
}
);
width = 459;
},
{
layerId = "A97BF1D1-A3CC-43F5-9A06-B7BB37BB129E";
paths = (
{
closed = 1;
nodes = (
"268 0 LINE",
"268 38 LINE SMOOTH",
"268 345 OFFCURVE",
"387 466 OFFCURVE",
"536 608 CURVE",
"440 685 LINE",
"377 643 OFFCURVE",
"302 569 OFFCURVE",
"244 457 CURVE",
"192 669 LINE",
"28 669 LINE",
"152 273 LINE",
"123 205 OFFCURVE",
"107 126 OFFCURVE",
"107 40 CURVE SMOOTH",
"107 0 LINE"
);
},
{
closed = 1;
nodes = (
"284 705 LINE",
"284 705 OFFCURVE",
"399 785 OFFCURVE",
"514 817 CURVE",
"497 898 OFFCURVE",
"450 942 OFFCURVE",
"450 942 CURVE",
"335 902 OFFCURVE",
"232 789 OFFCURVE",
"232 789 CURVE"
);
}
);
width = 469;
}
);
leftKerningGroup = Y;
rightKerningGroup = Y;
unicode = 00DD;
},
{
glyphname = Ydieresis;
lastChange = "2017-07-21 14:56:56 +0000";
layers = (
{
layerId = "3E88664E-E4A1-4C90-B697-57006E853054";
paths = (
{
closed = 1;
nodes = (
"230 0 LINE",
"230 38 LINE SMOOTH",
"230 359 OFFCURVE",
"359 476 OFFCURVE",
"518 629 CURVE",
"448 685 LINE",
"376 636 OFFCURVE",
"281 546 OFFCURVE",
"224 410 CURVE",
"158 669 LINE",
"40 669 LINE",
"159 275 LINE",
"131 207 OFFCURVE",
"115 127 OFFCURVE",
"115 40 CURVE SMOOTH",
"115 0 LINE"
);
},
{
closed = 1;
nodes = (
"217 860 CURVE SMOOTH",
"176 860 OFFCURVE",
"151 828 OFFCURVE",
"151 792 CURVE SMOOTH",
"151 759 OFFCURVE",
"168 735 OFFCURVE",
"207 735 CURVE SMOOTH",
"247 735 OFFCURVE",
"273 766 OFFCURVE",
"273 801 CURVE SMOOTH",
"273 837 OFFCURVE",
"255 860 OFFCURVE"
);
},
{
closed = 1;
nodes = (
"406 860 CURVE SMOOTH",
"365 860 OFFCURVE",
"340 828 OFFCURVE",
"340 792 CURVE SMOOTH",
"340 759 OFFCURVE",
"357 735 OFFCURVE",
"396 735 CURVE SMOOTH",
"436 735 OFFCURVE",
"462 766 OFFCURVE",
"462 801 CURVE SMOOTH",
"462 837 OFFCURVE",
"444 860 OFFCURVE"
);
}
);
width = 459;
},
{
layerId = "A97BF1D1-A3CC-43F5-9A06-B7BB37BB129E";
paths = (
{
closed = 1;
nodes = (
"268 0 LINE",
"268 38 LINE SMOOTH",
"268 345 OFFCURVE",
"387 466 OFFCURVE",
"536 608 CURVE",
"440 685 LINE",
"377 643 OFFCURVE",
"302 569 OFFCURVE",
"244 457 CURVE",
"192 669 LINE",
"28 669 LINE",
"152 273 LINE",
"123 205 OFFCURVE",
"107 126 OFFCURVE",
"107 40 CURVE SMOOTH",
"107 0 LINE"
);
},
{
closed = 1;
nodes = (
"199 891 CURVE SMOOTH",
"146 891 OFFCURVE",
"115 854 OFFCURVE",
"115 809 CURVE SMOOTH",
"115 768 OFFCURVE",
"138 739 OFFCURVE",
"189 739 CURVE SMOOTH",
"241 739 OFFCURVE",
"274 776 OFFCURVE",
"274 819 CURVE SMOOTH",
"274 864 OFFCURVE",
"250 891 OFFCURVE"
);
},
{
closed = 1;
nodes = (
"416 891 CURVE SMOOTH",
"364 891 OFFCURVE",
"333 854 OFFCURVE",
"333 809 CURVE SMOOTH",
"333 768 OFFCURVE",
"356 739 OFFCURVE",
"406 739 CURVE SMOOTH",
"459 739 OFFCURVE",
"491 776 OFFCURVE",
"491 819 CURVE SMOOTH",
"491 864 OFFCURVE",
"467 891 OFFCURVE"
);
}
);
width = 469;
}
);
leftKerningGroup = Y;
rightKerningGroup = Y;
unicode = 0178;
},
{
glyphname = Z;
lastChange = "2017-07-21 14:56:56 +0000";
layers = (
{
layerId = "3E88664E-E4A1-4C90-B697-57006E853054";
paths = (
{
closed = 1;
nodes = (
"436 0 LINE",
"436 84 LINE",
"201 84 LINE SMOOTH",
"182 84 OFFCURVE",
"166 83 OFFCURVE",
"150 83 CURVE",
"522 606 LINE",
"522 669 LINE",
"117 669 LINE",
"101 584 LINE",
"327 584 LINE SMOOTH",
"334 584 OFFCURVE",
"356 585 OFFCURVE",
"360 585 CURVE",
"-10 62 LINE",
"-10 0 LINE"
);
}
);
width = 517;
},
{
layerId = "A97BF1D1-A3CC-43F5-9A06-B7BB37BB129E";
paths = (
{
closed = 1;
nodes = (
"452 0 LINE",
"452 122 LINE",
"243 122 LINE SMOOTH",
"226 122 OFFCURVE",
"207 121 OFFCURVE",
"194 119 CURVE",
"524 582 LINE",
"524 669 LINE",
"104 669 LINE",
"80 545 LINE",
"267 545 LINE SMOOTH",
"280 545 OFFCURVE",
"302 548 OFFCURVE",
"314 549 CURVE",
"-18 85 LINE",
"-18 0 LINE"
);
}
);
width = 512;
}
);
unicode = 005A;
},
{
glyphname = a;
lastChange = "2017-07-21 14:56:56 +0000";
layers = (
{
anchors = (
{
name = top;
position = "{308, 498}";
}
);
layerId = "3E88664E-E4A1-4C90-B697-57006E853054";
paths = (
{
closed = 1;
nodes = (
"200 74 CURVE SMOOTH",
"166 74 OFFCURVE",
"149 95 OFFCURVE",
"149 153 CURVE SMOOTH",
"149 268 OFFCURVE",
"193 421 OFFCURVE",
"313 421 CURVE SMOOTH",
"331 421 OFFCURVE",
"354 419 OFFCURVE",
"370 411 CURVE",
"356 342 LINE SMOOTH",
"335 242 OFFCURVE",
"268 74 OFFCURVE"
);
},
{
closed = 1;
nodes = (
"163 -8 CURVE SMOOTH",
"233 -8 OFFCURVE",
"294 24 OFFCURVE",
"340 129 CURVE SMOOTH",
"357 169 LINE",
"353 134 OFFCURVE",
"350 106 OFFCURVE",
"350 89 CURVE SMOOTH",
"350 47 OFFCURVE",
"364 13 OFFCURVE",
"384 -10 CURVE",
"474 26 LINE",
"460 47 OFFCURVE",
"438 79 OFFCURVE",
"438 144 CURVE SMOOTH",
"438 169 OFFCURVE",
"441 200 OFFCURVE",
"448 237 CURVE SMOOTH",
"493 470 LINE",
"430 474 LINE",
"377 497 OFFCURVE",
"334 498 OFFCURVE",
"311 498 CURVE SMOOTH",
"131 498 OFFCURVE",
"30 346 OFFCURVE",
"30 157 CURVE SMOOTH",
"30 74 OFFCURVE",
"68 -8 OFFCURVE"
);
}
);
width = 528;
},
{
anchors = (
{
name = top;
position = "{308, 498}";
}
);
layerId = "A97BF1D1-A3CC-43F5-9A06-B7BB37BB129E";
paths = (
{
closed = 1;
nodes = (
"207 109 CURVE SMOOTH",
"188 109 OFFCURVE",
"184 132 OFFCURVE",
"184 160 CURVE SMOOTH",
"184 230 OFFCURVE",
"210 387 OFFCURVE",
"302 387 CURVE SMOOTH",
"316 387 OFFCURVE",
"324 386 OFFCURVE",
"332 383 CURVE",
"322 338 LINE SMOOTH",
"299 241 OFFCURVE",
"248 109 OFFCURVE"
);
},
{
closed = 1;
nodes = (
"159 -9 CURVE SMOOTH",
"221 -9 OFFCURVE",
"276 27 OFFCURVE",
"319 118 CURVE SMOOTH",
"332 146 LINE",
"329 119 OFFCURVE",
"329 100 OFFCURVE",
"329 84 CURVE SMOOTH",
"329 44 OFFCURVE",
"345 11 OFFCURVE",
"365 -12 CURVE",
"491 38 LINE",
"464 79 OFFCURVE",
"451 114 OFFCURVE",
"451 170 CURVE SMOOTH",
"451 194 OFFCURVE",
"454 223 OFFCURVE",
"461 255 CURVE SMOOTH",
"503 473 LINE",
"423 478 LINE",
"386 495 OFFCURVE",
"353 502 OFFCURVE",
"309 502 CURVE SMOOTH",
"123 502 OFFCURVE",
"22 354 OFFCURVE",
"22 163 CURVE SMOOTH",
"22 81 OFFCURVE",
"59 -9 OFFCURVE"
);
}
);
width = 531;
}
);
leftKerningGroup = o;
rightKerningGroup = a;
unicode = 0061;
},
{
glyphname = aacute;
lastChange = "2017-07-21 14:56:56 +0000";
layers = (
{
layerId = "3E88664E-E4A1-4C90-B697-57006E853054";
paths = (
{
closed = 1;
nodes = (
"200 74 CURVE SMOOTH",
"166 74 OFFCURVE",
"149 95 OFFCURVE",
"149 153 CURVE SMOOTH",
"149 268 OFFCURVE",
"193 421 OFFCURVE",
"313 421 CURVE SMOOTH",
"331 421 OFFCURVE",
"354 419 OFFCURVE",
"370 411 CURVE",
"356 342 LINE SMOOTH",
"335 242 OFFCURVE",
"268 74 OFFCURVE"
);
},
{
closed = 1;
nodes = (
"163 -8 CURVE SMOOTH",
"233 -8 OFFCURVE",
"294 24 OFFCURVE",
"340 129 CURVE SMOOTH",
"357 169 LINE",
"353 134 OFFCURVE",
"350 106 OFFCURVE",
"350 89 CURVE SMOOTH",
"350 47 OFFCURVE",
"364 13 OFFCURVE",
"384 -10 CURVE",
"474 26 LINE",
"460 47 OFFCURVE",
"438 79 OFFCURVE",
"438 144 CURVE SMOOTH",
"438 169 OFFCURVE",
"441 200 OFFCURVE",
"448 237 CURVE SMOOTH",
"493 470 LINE",
"430 474 LINE",
"377 497 OFFCURVE",
"334 498 OFFCURVE",
"311 498 CURVE SMOOTH",
"131 498 OFFCURVE",
"30 346 OFFCURVE",
"30 157 CURVE SMOOTH",
"30 74 OFFCURVE",
"68 -8 OFFCURVE"
);
},
{
closed = 1;
nodes = (
"316 535 LINE",
"316 535 OFFCURVE",
"432 651 OFFCURVE",
"508 701 CURVE",
"495 736 OFFCURVE",
"446 770 OFFCURVE",
"446 770 CURVE",
"365 713 OFFCURVE",
"271 587 OFFCURVE",
"271 587 CURVE"
);
}
);
width = 528;
},
{
layerId = "A97BF1D1-A3CC-43F5-9A06-B7BB37BB129E";
paths = (
{
closed = 1;
nodes = (
"207 109 CURVE SMOOTH",
"188 109 OFFCURVE",
"184 132 OFFCURVE",
"184 160 CURVE SMOOTH",
"184 230 OFFCURVE",
"210 387 OFFCURVE",
"302 387 CURVE SMOOTH",
"316 387 OFFCURVE",
"324 386 OFFCURVE",
"332 383 CURVE",
"322 338 LINE SMOOTH",
"299 241 OFFCURVE",
"248 109 OFFCURVE"
);
},
{
closed = 1;
nodes = (
"159 -9 CURVE SMOOTH",
"221 -9 OFFCURVE",
"276 27 OFFCURVE",
"319 118 CURVE SMOOTH",
"332 146 LINE",
"329 119 OFFCURVE",
"329 100 OFFCURVE",
"329 84 CURVE SMOOTH",
"329 44 OFFCURVE",
"345 11 OFFCURVE",
"365 -12 CURVE",
"491 38 LINE",
"464 79 OFFCURVE",
"451 114 OFFCURVE",
"451 170 CURVE SMOOTH",
"451 194 OFFCURVE",
"454 223 OFFCURVE",
"461 255 CURVE SMOOTH",
"503 473 LINE",
"423 478 LINE",
"386 495 OFFCURVE",
"353 502 OFFCURVE",
"309 502 CURVE SMOOTH",
"123 502 OFFCURVE",
"22 354 OFFCURVE",
"22 163 CURVE SMOOTH",
"22 81 OFFCURVE",
"59 -9 OFFCURVE"
);
},
{
closed = 1;
nodes = (
"308 526 LINE",
"308 526 OFFCURVE",
"405 625 OFFCURVE",
"513 677 CURVE",
"482 754 OFFCURVE",
"428 789 OFFCURVE",
"428 789 CURVE",
"322 730 OFFCURVE",
"241 600 OFFCURVE",
"241 600 CURVE"
);
}
);
width = 531;
}
);
leftKerningGroup = o;
rightKerningGroup = a;
unicode = 00E1;
},
{
glyphname = acircumflex;
lastChange = "2017-07-21 14:56:56 +0000";
layers = (
{
layerId = "3E88664E-E4A1-4C90-B697-57006E853054";
paths = (
{
closed = 1;
nodes = (
"200 74 CURVE SMOOTH",
"166 74 OFFCURVE",
"149 95 OFFCURVE",
"149 153 CURVE SMOOTH",
"149 268 OFFCURVE",
"193 421 OFFCURVE",
"313 421 CURVE SMOOTH",
"331 421 OFFCURVE",
"354 419 OFFCURVE",
"370 411 CURVE",
"356 342 LINE SMOOTH",
"335 242 OFFCURVE",
"268 74 OFFCURVE"
);
},
{
closed = 1;
nodes = (
"163 -8 CURVE SMOOTH",
"233 -8 OFFCURVE",
"294 24 OFFCURVE",
"340 129 CURVE SMOOTH",
"357 169 LINE",
"353 134 OFFCURVE",
"350 106 OFFCURVE",
"350 89 CURVE SMOOTH",
"350 47 OFFCURVE",
"364 13 OFFCURVE",
"384 -10 CURVE",
"474 26 LINE",
"460 47 OFFCURVE",
"438 79 OFFCURVE",
"438 144 CURVE SMOOTH",
"438 169 OFFCURVE",
"441 200 OFFCURVE",
"448 237 CURVE SMOOTH",
"493 470 LINE",
"430 474 LINE",
"377 497 OFFCURVE",
"334 498 OFFCURVE",
"311 498 CURVE SMOOTH",
"131 498 OFFCURVE",
"30 346 OFFCURVE",
"30 157 CURVE SMOOTH",
"30 74 OFFCURVE",
"68 -8 OFFCURVE"
);
},
{
closed = 1;
nodes = (
"202 543 LINE",
"202 543 OFFCURVE",
"264 592 OFFCURVE",
"325 640 CURVE",
"377 583 OFFCURVE",
"442 544 OFFCURVE",
"442 544 CURVE",
"490 589 LINE",
"490 589 OFFCURVE",
"409 690 OFFCURVE",
"351 778 CURVE",
"271 722 OFFCURVE",
"152 591 OFFCURVE",
"152 591 CURVE"
);
}
);
width = 528;
},
{
layerId = "A97BF1D1-A3CC-43F5-9A06-B7BB37BB129E";
paths = (
{
closed = 1;
nodes = (
"207 109 CURVE SMOOTH",
"188 109 OFFCURVE",
"184 132 OFFCURVE",
"184 160 CURVE SMOOTH",
"184 230 OFFCURVE",
"210 387 OFFCURVE",
"302 387 CURVE SMOOTH",
"316 387 OFFCURVE",
"324 386 OFFCURVE",
"332 383 CURVE",
"322 338 LINE SMOOTH",
"299 241 OFFCURVE",
"248 109 OFFCURVE"
);
},
{
closed = 1;
nodes = (
"159 -9 CURVE SMOOTH",
"221 -9 OFFCURVE",
"276 27 OFFCURVE",
"319 118 CURVE SMOOTH",
"332 146 LINE",
"329 119 OFFCURVE",
"329 100 OFFCURVE",
"329 84 CURVE SMOOTH",
"329 44 OFFCURVE",
"345 11 OFFCURVE",
"365 -12 CURVE",
"491 38 LINE",
"464 79 OFFCURVE",
"451 114 OFFCURVE",
"451 170 CURVE SMOOTH",
"451 194 OFFCURVE",
"454 223 OFFCURVE",
"461 255 CURVE SMOOTH",
"503 473 LINE",
"423 478 LINE",
"386 495 OFFCURVE",
"353 502 OFFCURVE",
"309 502 CURVE SMOOTH",
"123 502 OFFCURVE",
"22 354 OFFCURVE",
"22 163 CURVE SMOOTH",
"22 81 OFFCURVE",
"59 -9 OFFCURVE"
);
},
{
closed = 1;
nodes = (
"197 534 LINE",
"197 534 OFFCURVE",
"250 578 OFFCURVE",
"312 626 CURVE",
"366 568 OFFCURVE",
"423 534 OFFCURVE",
"423 534 CURVE",
"496 600 LINE",
"496 600 OFFCURVE",
"412 696 OFFCURVE",
"345 797 CURVE",
"254 736 OFFCURVE",
"123 600 OFFCURVE",
"123 600 CURVE"
);
}
);
width = 531;
}
);
leftKerningGroup = o;
rightKerningGroup = a;
unicode = 00E2;
},
{
glyphname = adieresis;
lastChange = "2017-07-21 14:56:56 +0000";
layers = (
{
layerId = "3E88664E-E4A1-4C90-B697-57006E853054";
paths = (
{
closed = 1;
nodes = (
"200 74 CURVE SMOOTH",
"166 74 OFFCURVE",
"149 95 OFFCURVE",
"149 153 CURVE SMOOTH",
"149 268 OFFCURVE",
"193 421 OFFCURVE",
"313 421 CURVE SMOOTH",
"331 421 OFFCURVE",
"354 419 OFFCURVE",
"370 411 CURVE",
"356 342 LINE SMOOTH",
"335 242 OFFCURVE",
"268 74 OFFCURVE"
);
},
{
closed = 1;
nodes = (
"163 -8 CURVE SMOOTH",
"233 -8 OFFCURVE",
"294 24 OFFCURVE",
"340 129 CURVE SMOOTH",
"357 169 LINE",
"353 134 OFFCURVE",
"350 106 OFFCURVE",
"350 89 CURVE SMOOTH",
"350 47 OFFCURVE",
"364 13 OFFCURVE",
"384 -10 CURVE",
"474 26 LINE",
"460 47 OFFCURVE",
"438 79 OFFCURVE",
"438 144 CURVE SMOOTH",
"438 169 OFFCURVE",
"441 200 OFFCURVE",
"448 237 CURVE SMOOTH",
"493 470 LINE",
"430 474 LINE",
"377 497 OFFCURVE",
"334 498 OFFCURVE",
"311 498 CURVE SMOOTH",
"131 498 OFFCURVE",
"30 346 OFFCURVE",
"30 157 CURVE SMOOTH",
"30 74 OFFCURVE",
"68 -8 OFFCURVE"
);
},
{
closed = 1;
nodes = (
"241 689 CURVE SMOOTH",
"200 689 OFFCURVE",
"175 657 OFFCURVE",
"175 621 CURVE SMOOTH",
"175 588 OFFCURVE",
"192 564 OFFCURVE",
"231 564 CURVE SMOOTH",
"272 564 OFFCURVE",
"297 595 OFFCURVE",
"297 630 CURVE SMOOTH",
"297 666 OFFCURVE",
"279 689 OFFCURVE"
);
},
{
closed = 1;
nodes = (
"430 689 CURVE SMOOTH",
"389 689 OFFCURVE",
"365 657 OFFCURVE",
"365 621 CURVE SMOOTH",
"365 588 OFFCURVE",
"381 564 OFFCURVE",
"420 564 CURVE SMOOTH",
"461 564 OFFCURVE",
"486 595 OFFCURVE",
"486 630 CURVE SMOOTH",
"486 666 OFFCURVE",
"469 689 OFFCURVE"
);
}
);
width = 528;
},
{
layerId = "A97BF1D1-A3CC-43F5-9A06-B7BB37BB129E";
paths = (
{
closed = 1;
nodes = (
"207 109 CURVE SMOOTH",
"188 109 OFFCURVE",
"184 132 OFFCURVE",
"184 160 CURVE SMOOTH",
"184 230 OFFCURVE",
"210 387 OFFCURVE",
"302 387 CURVE SMOOTH",
"316 387 OFFCURVE",
"324 386 OFFCURVE",
"332 383 CURVE",
"322 338 LINE SMOOTH",
"299 241 OFFCURVE",
"248 109 OFFCURVE"
);
},
{
closed = 1;
nodes = (
"159 -9 CURVE SMOOTH",
"221 -9 OFFCURVE",
"276 27 OFFCURVE",
"319 118 CURVE SMOOTH",
"332 146 LINE",
"329 119 OFFCURVE",
"329 100 OFFCURVE",
"329 84 CURVE SMOOTH",
"329 44 OFFCURVE",
"345 11 OFFCURVE",
"365 -12 CURVE",
"491 38 LINE",
"464 79 OFFCURVE",
"451 114 OFFCURVE",
"451 170 CURVE SMOOTH",
"451 194 OFFCURVE",
"454 223 OFFCURVE",
"461 255 CURVE SMOOTH",
"503 473 LINE",
"423 478 LINE",
"386 495 OFFCURVE",
"353 502 OFFCURVE",
"309 502 CURVE SMOOTH",
"123 502 OFFCURVE",
"22 354 OFFCURVE",
"22 163 CURVE SMOOTH",
"22 81 OFFCURVE",
"59 -9 OFFCURVE"
);
},
{
closed = 1;
nodes = (
"214 720 CURVE SMOOTH",
"161 720 OFFCURVE",
"130 683 OFFCURVE",
"130 638 CURVE SMOOTH",
"130 597 OFFCURVE",
"153 568 OFFCURVE",
"203 568 CURVE SMOOTH",
"255 568 OFFCURVE",
"289 605 OFFCURVE",
"289 648 CURVE SMOOTH",
"289 693 OFFCURVE",
"265 720 OFFCURVE"
);
},
{
closed = 1;
nodes = (
"431 720 CURVE SMOOTH",
"378 720 OFFCURVE",
"347 683 OFFCURVE",
"347 638 CURVE SMOOTH",
"347 597 OFFCURVE",
"370 568 OFFCURVE",
"421 568 CURVE SMOOTH",
"473 568 OFFCURVE",
"506 605 OFFCURVE",
"506 648 CURVE SMOOTH",
"506 693 OFFCURVE",
"482 720 OFFCURVE"
);
}
);
width = 531;
}
);
leftKerningGroup = o;
rightKerningGroup = a;
unicode = 00E4;
},
{
glyphname = agrave;
lastChange = "2017-07-21 14:56:56 +0000";
layers = (
{
layerId = "3E88664E-E4A1-4C90-B697-57006E853054";
paths = (
{
closed = 1;
nodes = (
"200 74 CURVE SMOOTH",
"166 74 OFFCURVE",
"149 95 OFFCURVE",
"149 153 CURVE SMOOTH",
"149 268 OFFCURVE",
"193 421 OFFCURVE",
"313 421 CURVE SMOOTH",
"331 421 OFFCURVE",
"354 419 OFFCURVE",
"370 411 CURVE",
"356 342 LINE SMOOTH",
"335 242 OFFCURVE",
"268 74 OFFCURVE"
);
},
{
closed = 1;
nodes = (
"163 -8 CURVE SMOOTH",
"233 -8 OFFCURVE",
"294 24 OFFCURVE",
"340 129 CURVE SMOOTH",
"357 169 LINE",
"353 134 OFFCURVE",
"350 106 OFFCURVE",
"350 89 CURVE SMOOTH",
"350 47 OFFCURVE",
"364 13 OFFCURVE",
"384 -10 CURVE",
"474 26 LINE",
"460 47 OFFCURVE",
"438 79 OFFCURVE",
"438 144 CURVE SMOOTH",
"438 169 OFFCURVE",
"441 200 OFFCURVE",
"448 237 CURVE SMOOTH",
"493 470 LINE",
"430 474 LINE",
"377 497 OFFCURVE",
"334 498 OFFCURVE",
"311 498 CURVE SMOOTH",
"131 498 OFFCURVE",
"30 346 OFFCURVE",
"30 157 CURVE SMOOTH",
"30 74 OFFCURVE",
"68 -8 OFFCURVE"
);
},
{
closed = 1;
nodes = (
"350 581 LINE",
"350 581 OFFCURVE",
"255 671 OFFCURVE",
"211 770 CURVE",
"160 749 OFFCURVE",
"134 709 OFFCURVE",
"134 709 CURVE",
"177 612 OFFCURVE",
"302 536 OFFCURVE",
"302 536 CURVE"
);
}
);
width = 528;
},
{
layerId = "A97BF1D1-A3CC-43F5-9A06-B7BB37BB129E";
paths = (
{
closed = 1;
nodes = (
"207 109 CURVE SMOOTH",
"188 109 OFFCURVE",
"184 132 OFFCURVE",
"184 160 CURVE SMOOTH",
"184 230 OFFCURVE",
"210 387 OFFCURVE",
"302 387 CURVE SMOOTH",
"316 387 OFFCURVE",
"324 386 OFFCURVE",
"332 383 CURVE",
"322 338 LINE SMOOTH",
"299 241 OFFCURVE",
"248 109 OFFCURVE"
);
},
{
closed = 1;
nodes = (
"159 -9 CURVE SMOOTH",
"221 -9 OFFCURVE",
"276 27 OFFCURVE",
"319 118 CURVE SMOOTH",
"332 146 LINE",
"329 119 OFFCURVE",
"329 100 OFFCURVE",
"329 84 CURVE SMOOTH",
"329 44 OFFCURVE",
"345 11 OFFCURVE",
"365 -12 CURVE",
"491 38 LINE",
"464 79 OFFCURVE",
"451 114 OFFCURVE",
"451 170 CURVE SMOOTH",
"451 194 OFFCURVE",
"454 223 OFFCURVE",
"461 255 CURVE SMOOTH",
"503 473 LINE",
"423 478 LINE",
"386 495 OFFCURVE",
"353 502 OFFCURVE",
"309 502 CURVE SMOOTH",
"123 502 OFFCURVE",
"22 354 OFFCURVE",
"22 163 CURVE SMOOTH",
"22 81 OFFCURVE",
"59 -9 OFFCURVE"
);
},
{
closed = 1;
nodes = (
"382 592 LINE",
"382 592 OFFCURVE",
"295 675 OFFCURVE",
"244 789 CURVE",
"164 756 OFFCURVE",
"131 704 OFFCURVE",
"131 704 CURVE",
"187 594 OFFCURVE",
"309 526 OFFCURVE",
"309 526 CURVE"
);
}
);
width = 531;
}
);
leftKerningGroup = o;
rightKerningGroup = a;
unicode = 00E0;
},
{
glyphname = aring;
lastChange = "2017-07-21 14:56:56 +0000";
layers = (
{
layerId = "3E88664E-E4A1-4C90-B697-57006E853054";
paths = (
{
closed = 1;
nodes = (
"234 74 CURVE SMOOTH",
"200 74 OFFCURVE",
"183 95 OFFCURVE",
"183 153 CURVE SMOOTH",
"183 268 OFFCURVE",
"227 421 OFFCURVE",
"347 421 CURVE SMOOTH",
"365 421 OFFCURVE",
"388 419 OFFCURVE",
"404 411 CURVE",
"390 342 LINE SMOOTH",
"369 242 OFFCURVE",
"301 74 OFFCURVE"
);
},
{
closed = 1;
nodes = (
"197 -8 CURVE SMOOTH",
"267 -8 OFFCURVE",
"327 24 OFFCURVE",
"373 129 CURVE SMOOTH",
"391 169 LINE",
"387 134 OFFCURVE",
"383 106 OFFCURVE",
"383 89 CURVE SMOOTH",
"383 47 OFFCURVE",
"397 13 OFFCURVE",
"417 -10 CURVE",
"508 26 LINE",
"494 47 OFFCURVE",
"471 79 OFFCURVE",
"471 144 CURVE SMOOTH",
"471 169 OFFCURVE",
"474 200 OFFCURVE",
"481 237 CURVE SMOOTH",
"526 470 LINE",
"464 474 LINE",
"411 497 OFFCURVE",
"368 498 OFFCURVE",
"345 498 CURVE SMOOTH",
"165 498 OFFCURVE",
"64 346 OFFCURVE",
"64 157 CURVE SMOOTH",
"64 74 OFFCURVE",
"102 -8 OFFCURVE"
);
},
{
closed = 1;
nodes = (
"395 694 CURVE SMOOTH",
"417 694 OFFCURVE",
"430 679 OFFCURVE",
"430 658 CURVE SMOOTH",
"430 622 OFFCURVE",
"407 593 OFFCURVE",
"376 593 CURVE SMOOTH",
"355 593 OFFCURVE",
"342 608 OFFCURVE",
"342 629 CURVE SMOOTH",
"342 662 OFFCURVE",
"362 694 OFFCURVE"
);
},
{
closed = 1;
nodes = (
"365 543 CURVE SMOOTH",
"436 543 OFFCURVE",
"484 603 OFFCURVE",
"484 667 CURVE SMOOTH",
"484 712 OFFCURVE",
"454 744 OFFCURVE",
"406 744 CURVE SMOOTH",
"336 744 OFFCURVE",
"288 684 OFFCURVE",
"288 620 CURVE SMOOTH",
"288 575 OFFCURVE",
"318 543 OFFCURVE"
);
}
);
width = 520;
},
{
layerId = "A97BF1D1-A3CC-43F5-9A06-B7BB37BB129E";
paths = (
{
closed = 1;
nodes = (
"216 109 CURVE SMOOTH",
"196 109 OFFCURVE",
"192 132 OFFCURVE",
"192 160 CURVE SMOOTH",
"192 230 OFFCURVE",
"218 387 OFFCURVE",
"311 387 CURVE SMOOTH",
"324 387 OFFCURVE",
"332 386 OFFCURVE",
"340 383 CURVE",
"330 338 LINE SMOOTH",
"308 241 OFFCURVE",
"256 109 OFFCURVE"
);
},
{
closed = 1;
nodes = (
"167 -9 CURVE SMOOTH",
"229 -9 OFFCURVE",
"285 27 OFFCURVE",
"327 118 CURVE SMOOTH",
"340 146 LINE",
"338 119 OFFCURVE",
"337 100 OFFCURVE",
"337 84 CURVE SMOOTH",
"337 44 OFFCURVE",
"353 11 OFFCURVE",
"373 -12 CURVE",
"500 38 LINE",
"472 79 OFFCURVE",
"460 114 OFFCURVE",
"460 170 CURVE SMOOTH",
"460 194 OFFCURVE",
"463 223 OFFCURVE",
"469 255 CURVE SMOOTH",
"512 473 LINE",
"431 478 LINE",
"394 495 OFFCURVE",
"361 502 OFFCURVE",
"317 502 CURVE SMOOTH",
"132 502 OFFCURVE",
"31 354 OFFCURVE",
"31 163 CURVE SMOOTH",
"31 81 OFFCURVE",
"67 -9 OFFCURVE"
);
},
{
closed = 1;
nodes = (
"352 701 CURVE SMOOTH",
"369 701 OFFCURVE",
"379 688 OFFCURVE",
"379 670 CURVE SMOOTH",
"379 644 OFFCURVE",
"362 618 OFFCURVE",
"337 618 CURVE SMOOTH",
"319 618 OFFCURVE",
"309 631 OFFCURVE",
"309 648 CURVE SMOOTH",
"309 674 OFFCURVE",
"325 701 OFFCURVE"
);
},
{
closed = 1;
nodes = (
"325 547 CURVE SMOOTH",
"404 547 OFFCURVE",
"458 607 OFFCURVE",
"458 678 CURVE SMOOTH",
"458 732 OFFCURVE",
"424 773 OFFCURVE",
"363 773 CURVE SMOOTH",
"284 773 OFFCURVE",
"230 713 OFFCURVE",
"230 641 CURVE SMOOTH",
"230 587 OFFCURVE",
"264 547 OFFCURVE"
);
}
);
width = 529;
}
);
leftKerningGroup = o;
rightKerningGroup = a;
unicode = 00E5;
},
{
glyphname = atilde;
lastChange = "2017-07-21 14:56:56 +0000";
layers = (
{
layerId = "3E88664E-E4A1-4C90-B697-57006E853054";
paths = (
{
closed = 1;
nodes = (
"200 74 CURVE SMOOTH",
"166 74 OFFCURVE",
"149 95 OFFCURVE",
"149 153 CURVE SMOOTH",
"149 268 OFFCURVE",
"193 421 OFFCURVE",
"313 421 CURVE SMOOTH",
"331 421 OFFCURVE",
"354 419 OFFCURVE",
"370 411 CURVE",
"356 342 LINE SMOOTH",
"335 242 OFFCURVE",
"268 74 OFFCURVE"
);
},
{
closed = 1;
nodes = (
"163 -8 CURVE SMOOTH",
"233 -8 OFFCURVE",
"294 24 OFFCURVE",
"340 129 CURVE SMOOTH",
"357 169 LINE",
"353 134 OFFCURVE",
"350 106 OFFCURVE",
"350 89 CURVE SMOOTH",
"350 47 OFFCURVE",
"364 13 OFFCURVE",
"384 -10 CURVE",
"474 26 LINE",
"460 47 OFFCURVE",
"438 79 OFFCURVE",
"438 144 CURVE SMOOTH",
"438 169 OFFCURVE",
"441 200 OFFCURVE",
"448 237 CURVE SMOOTH",
"493 470 LINE",
"430 474 LINE",
"377 497 OFFCURVE",
"334 498 OFFCURVE",
"311 498 CURVE SMOOTH",
"131 498 OFFCURVE",
"30 346 OFFCURVE",
"30 157 CURVE SMOOTH",
"30 74 OFFCURVE",
"68 -8 OFFCURVE"
);
},
{
closed = 1;
nodes = (
"492 680 LINE",
"492 680 OFFCURVE",
"456 666 OFFCURVE",
"412 666 CURVE SMOOTH",
"366 666 OFFCURVE",
"314 686 OFFCURVE",
"267 686 CURVE SMOOTH",
"223 686 OFFCURVE",
"187 663 OFFCURVE",
"187 663 CURVE",
"172 589 LINE",
"172 589 OFFCURVE",
"207 603 OFFCURVE",
"251 603 CURVE SMOOTH",
"298 603 OFFCURVE",
"350 583 OFFCURVE",
"397 583 CURVE SMOOTH",
"440 583 OFFCURVE",
"477 606 OFFCURVE",
"477 606 CURVE"
);
}
);
width = 528;
},
{
layerId = "A97BF1D1-A3CC-43F5-9A06-B7BB37BB129E";
paths = (
{
closed = 1;
nodes = (
"207 109 CURVE SMOOTH",
"188 109 OFFCURVE",
"184 132 OFFCURVE",
"184 160 CURVE SMOOTH",
"184 230 OFFCURVE",
"210 387 OFFCURVE",
"302 387 CURVE SMOOTH",
"316 387 OFFCURVE",
"324 386 OFFCURVE",
"332 383 CURVE",
"322 338 LINE SMOOTH",
"299 241 OFFCURVE",
"248 109 OFFCURVE"
);
},
{
closed = 1;
nodes = (
"159 -9 CURVE SMOOTH",
"221 -9 OFFCURVE",
"276 27 OFFCURVE",
"319 118 CURVE SMOOTH",
"332 146 LINE",
"329 119 OFFCURVE",
"329 100 OFFCURVE",
"329 84 CURVE SMOOTH",
"329 44 OFFCURVE",
"345 11 OFFCURVE",
"365 -12 CURVE",
"491 38 LINE",
"464 79 OFFCURVE",
"451 114 OFFCURVE",
"451 170 CURVE SMOOTH",
"451 194 OFFCURVE",
"454 223 OFFCURVE",
"461 255 CURVE SMOOTH",
"503 473 LINE",
"423 478 LINE",
"386 495 OFFCURVE",
"353 502 OFFCURVE",
"309 502 CURVE SMOOTH",
"123 502 OFFCURVE",
"22 354 OFFCURVE",
"22 163 CURVE SMOOTH",
"22 81 OFFCURVE",
"59 -9 OFFCURVE"
);
},
{
closed = 1;
nodes = (
"495 719 LINE",
"495 719 OFFCURVE",
"445 703 OFFCURVE",
"401 703 CURVE SMOOTH",
"346 703 OFFCURVE",
"309 725 OFFCURVE",
"262 725 CURVE SMOOTH",
"209 725 OFFCURVE",
"166 700 OFFCURVE",
"166 700 CURVE",
"145 597 LINE",
"145 597 OFFCURVE",
"195 613 OFFCURVE",
"239 613 CURVE SMOOTH",
"293 613 OFFCURVE",
"330 591 OFFCURVE",
"377 591 CURVE SMOOTH",
"431 591 OFFCURVE",
"474 616 OFFCURVE",
"474 616 CURVE"
);
}
);
width = 531;
}
);
leftKerningGroup = o;
rightKerningGroup = a;
unicode = 00E3;
},
{
glyphname = ae;
lastChange = "2017-07-21 14:56:56 +0000";
layers = (
{
layerId = "3E88664E-E4A1-4C90-B697-57006E853054";
paths = (
{
closed = 1;
nodes = (
"163 -8 CURVE SMOOTH",
"228 -8 OFFCURVE",
"286 20 OFFCURVE",
"330 110 CURVE",
"344 43 OFFCURVE",
"389 -11 OFFCURVE",
"493 -11 CURVE SMOOTH",
"590 -11 OFFCURVE",
"691 39 OFFCURVE",
"691 39 CURVE",
"668 111 LINE",
"668 111 OFFCURVE",
"568 70 OFFCURVE",
"515 70 CURVE SMOOTH",
"472 70 OFFCURVE",
"443 91 OFFCURVE",
"443 153 CURVE SMOOTH",
"443 166 OFFCURVE",
"448 183 OFFCURVE",
"449 188 CURVE",
"624 198 OFFCURVE",
"749 279 OFFCURVE",
"749 394 CURVE SMOOTH",
"749 460 OFFCURVE",
"708 502 OFFCURVE",
"605 502 CURVE SMOOTH",
"548 502 OFFCURVE",
"499 486 OFFCURVE",
"459 458 CURVE",
"424 482 OFFCURVE",
"362 498 OFFCURVE",
"311 498 CURVE SMOOTH",
"131 498 OFFCURVE",
"30 346 OFFCURVE",
"30 157 CURVE SMOOTH",
"30 74 OFFCURVE",
"68 -8 OFFCURVE"
);
},
{
closed = 1;
nodes = (
"200 74 CURVE SMOOTH",
"166 74 OFFCURVE",
"149 95 OFFCURVE",
"149 153 CURVE SMOOTH",
"149 268 OFFCURVE",
"193 421 OFFCURVE",
"313 421 CURVE SMOOTH",
"331 421 OFFCURVE",
"354 419 OFFCURVE",
"370 411 CURVE",
"356 342 LINE SMOOTH",
"335 242 OFFCURVE",
"268 74 OFFCURVE"
);
},
{
closed = 1;
nodes = (
"582 425 CURVE SMOOTH",
"620 425 OFFCURVE",
"636 407 OFFCURVE",
"636 376 CURVE SMOOTH",
"636 330 OFFCURVE",
"575 267 OFFCURVE",
"457 260 CURVE",
"475 344 OFFCURVE",
"521 425 OFFCURVE"
);
}
);
width = 753;
},
{
layerId = "A97BF1D1-A3CC-43F5-9A06-B7BB37BB129E";
paths = (
{
closed = 1;
nodes = (
"159 -9 CURVE SMOOTH",
"214 -9 OFFCURVE",
"265 20 OFFCURVE",
"304 91 CURVE",
"325 32 OFFCURVE",
"375 -13 OFFCURVE",
"472 -13 CURVE SMOOTH",
"568 -13 OFFCURVE",
"683 44 OFFCURVE",
"683 44 CURVE",
"650 146 LINE",
"650 146 OFFCURVE",
"538 105 OFFCURVE",
"500 105 CURVE SMOOTH",
"472 105 OFFCURVE",
"451 119 OFFCURVE",
"451 152 CURVE SMOOTH",
"451 160 OFFCURVE",
"453 171 OFFCURVE",
"453 174 CURVE",
"617 190 OFFCURVE",
"732 269 OFFCURVE",
"732 382 CURVE SMOOTH",
"732 455 OFFCURVE",
"687 505 OFFCURVE",
"574 505 CURVE SMOOTH",
"523 505 OFFCURVE",
"478 492 OFFCURVE",
"441 470 CURVE",
"401 490 OFFCURVE",
"356 502 OFFCURVE",
"309 502 CURVE SMOOTH",
"123 502 OFFCURVE",
"22 354 OFFCURVE",
"22 163 CURVE SMOOTH",
"22 81 OFFCURVE",
"59 -9 OFFCURVE"
);
},
{
closed = 1;
nodes = (
"207 109 CURVE SMOOTH",
"188 109 OFFCURVE",
"184 132 OFFCURVE",
"184 160 CURVE SMOOTH",
"184 230 OFFCURVE",
"210 387 OFFCURVE",
"302 387 CURVE SMOOTH",
"316 387 OFFCURVE",
"324 386 OFFCURVE",
"332 383 CURVE",
"322 338 LINE SMOOTH",
"299 241 OFFCURVE",
"248 109 OFFCURVE"
);
},
{
closed = 1;
nodes = (
"550 389 CURVE SMOOTH",
"569 389 OFFCURVE",
"579 380 OFFCURVE",
"579 362 CURVE SMOOTH",
"579 332 OFFCURVE",
"540 292 OFFCURVE",
"468 283 CURVE",
"484 345 OFFCURVE",
"516 389 OFFCURVE"
);
}
);
width = 739;
}
);
leftKerningGroup = o;
rightKerningGroup = e;
unicode = 00E6;
},
{
glyphname = b;
lastChange = "2017-07-21 14:56:56 +0000";
layers = (
{
layerId = "3E88664E-E4A1-4C90-B697-57006E853054";
paths = (
{
closed = 1;
nodes = (
"484 333 CURVE SMOOTH",
"484 416 OFFCURVE",
"446 498 OFFCURVE",
"351 498 CURVE SMOOTH",
"290 498 OFFCURVE",
"235 473 OFFCURVE",
"192 396 CURVE",
"209 449 OFFCURVE",
"229 516 OFFCURVE",
"237 558 CURVE SMOOTH",
"268 725 LINE",
"155 705 LINE",
"25 41 LINE",
"23 42 OFFCURVE",
"106 -8 OFFCURVE",
"203 -8 CURVE SMOOTH",
"383 -8 OFFCURVE",
"484 144 OFFCURVE"
);
},
{
closed = 1;
nodes = (
"314 416 CURVE SMOOTH",
"348 416 OFFCURVE",
"365 395 OFFCURVE",
"365 337 CURVE SMOOTH",
"365 222 OFFCURVE",
"320 69 OFFCURVE",
"201 69 CURVE SMOOTH",
"186 69 OFFCURVE",
"164 71 OFFCURVE",
"144 78 CURVE",
"155 134 LINE SMOOTH",
"183 277 OFFCURVE",
"251 416 OFFCURVE"
);
}
);
width = 514;
},
{
layerId = "A97BF1D1-A3CC-43F5-9A06-B7BB37BB129E";
paths = (
{
closed = 1;
nodes = (
"493 330 CURVE SMOOTH",
"493 411 OFFCURVE",
"456 502 OFFCURVE",
"356 502 CURVE SMOOTH",
"303 502 OFFCURVE",
"257 472 OFFCURVE",
"221 413 CURVE",
"244 469 OFFCURVE",
"261 517 OFFCURVE",
"270 562 CURVE SMOOTH",
"302 725 LINE",
"144 705 LINE",
"17 48 LINE",
"82 15 OFFCURVE",
"144 -9 OFFCURVE",
"207 -9 CURVE SMOOTH",
"392 -9 OFFCURVE",
"493 139 OFFCURVE"
);
},
{
closed = 1;
nodes = (
"308 384 CURVE SMOOTH",
"327 384 OFFCURVE",
"332 361 OFFCURVE",
"332 333 CURVE SMOOTH",
"332 263 OFFCURVE",
"306 106 OFFCURVE",
"213 106 CURVE SMOOTH",
"200 106 OFFCURVE",
"193 107 OFFCURVE",
"183 110 CURVE",
"193 151 LINE SMOOTH",
"217 259 OFFCURVE",
"268 384 OFFCURVE"
);
}
);
width = 515;
}
);
leftKerningGroup = b;
rightKerningGroup = o;
unicode = 0062;
},
{
glyphname = c;
lastChange = "2017-07-21 14:56:56 +0000";
layers = (
{
anchors = (
{
name = bottom;
position = "{211, 0}";
}
);
layerId = "3E88664E-E4A1-4C90-B697-57006E853054";
paths = (
{
closed = 1;
nodes = (
"334 97 LINE",
"335 97 OFFCURVE",
"255 70 OFFCURVE",
"220 70 CURVE SMOOTH",
"176 70 OFFCURVE",
"149 91 OFFCURVE",
"149 153 CURVE SMOOTH",
"149 264 OFFCURVE",
"198 421 OFFCURVE",
"286 421 CURVE SMOOTH",
"326 421 OFFCURVE",
"332 395 OFFCURVE",
"343 370 CURVE",
"426 406 LINE",
"414 453 OFFCURVE",
"385 502 OFFCURVE",
"309 502 CURVE SMOOTH",
"130 502 OFFCURVE",
"30 344 OFFCURVE",
"30 156 CURVE SMOOTH",
"30 71 OFFCURVE",
"71 -11 OFFCURVE",
"197 -11 CURVE SMOOTH",
"279 -11 OFFCURVE",
"358 25 OFFCURVE",
"358 25 CURVE"
);
}
);
width = 407;
},
{
anchors = (
{
name = bottom;
position = "{211, 0}";
}
);
layerId = "A97BF1D1-A3CC-43F5-9A06-B7BB37BB129E";
paths = (
{
closed = 1;
nodes = (
"327 129 LINE",
"309 123 OFFCURVE",
"253 105 OFFCURVE",
"230 105 CURVE SMOOTH",
"202 105 OFFCURVE",
"183 120 OFFCURVE",
"183 165 CURVE SMOOTH",
"183 252 OFFCURVE",
"216 385 OFFCURVE",
"283 385 CURVE SMOOTH",
"306 385 OFFCURVE",
"309 365 OFFCURVE",
"315 349 CURVE",
"429 393 LINE",
"415 453 OFFCURVE",
"385 505 OFFCURVE",
"304 505 CURVE SMOOTH",
"123 505 OFFCURVE",
"22 347 OFFCURVE",
"22 163 CURVE SMOOTH",
"22 75 OFFCURVE",
"66 -13 OFFCURVE",
"201 -13 CURVE SMOOTH",
"281 -13 OFFCURVE",
"359 22 OFFCURVE",
"362 23 CURVE"
);
}
);
width = 402;
}
);
leftKerningGroup = o;
rightKerningGroup = c;
unicode = 0063;
},
{
glyphname = ccedilla;
lastChange = "2017-07-21 14:56:56 +0000";
layers = (
{
layerId = "3E88664E-E4A1-4C90-B697-57006E853054";
paths = (
{
closed = 1;
nodes = (
"334 97 LINE",
"331 95 OFFCURVE",
"255 70 OFFCURVE",
"220 70 CURVE SMOOTH",
"176 70 OFFCURVE",
"149 91 OFFCURVE",
"149 153 CURVE SMOOTH",
"149 264 OFFCURVE",
"198 421 OFFCURVE",
"286 421 CURVE SMOOTH",
"326 421 OFFCURVE",
"332 395 OFFCURVE",
"343 370 CURVE",
"426 406 LINE",
"414 453 OFFCURVE",
"385 502 OFFCURVE",
"309 502 CURVE SMOOTH",
"130 502 OFFCURVE",
"30 344 OFFCURVE",
"30 156 CURVE SMOOTH",
"30 75 OFFCURVE",
"66 -3 OFFCURVE",
"178 -10 CURVE",
"167 -28 OFFCURVE",
"161 -42 OFFCURVE",
"161 -54 CURVE SMOOTH",
"161 -99 OFFCURVE",
"230 -93 OFFCURVE",
"230 -132 CURVE SMOOTH",
"230 -151 OFFCURVE",
"207 -159 OFFCURVE",
"182 -159 CURVE SMOOTH",
"154 -159 OFFCURVE",
"131 -147 OFFCURVE",
"115 -136 CURVE",
"86 -191 LINE",
"113 -209 OFFCURVE",
"148 -219 OFFCURVE",
"181 -219 CURVE SMOOTH",
"244 -219 OFFCURVE",
"308 -194 OFFCURVE",
"308 -121 CURVE SMOOTH",
"308 -68 OFFCURVE",
"234 -62 OFFCURVE",
"234 -33 CURVE SMOOTH",
"234 -27 OFFCURVE",
"236 -17 OFFCURVE",
"241 -8 CURVE",
"304 1 OFFCURVE",
"354 23 OFFCURVE",
"358 25 CURVE"
);
}
);
width = 407;
},
{
layerId = "A97BF1D1-A3CC-43F5-9A06-B7BB37BB129E";
paths = (
{
closed = 1;
nodes = (
"327 129 LINE",
"308 123 OFFCURVE",
"253 105 OFFCURVE",
"230 105 CURVE SMOOTH",
"202 105 OFFCURVE",
"183 120 OFFCURVE",
"183 165 CURVE SMOOTH",
"183 252 OFFCURVE",
"216 385 OFFCURVE",
"283 385 CURVE SMOOTH",
"306 385 OFFCURVE",
"309 365 OFFCURVE",
"315 349 CURVE",
"429 393 LINE",
"415 453 OFFCURVE",
"385 505 OFFCURVE",
"304 505 CURVE SMOOTH",
"123 505 OFFCURVE",
"22 347 OFFCURVE",
"22 163 CURVE SMOOTH",
"22 88 OFFCURVE",
"54 13 OFFCURVE",
"148 -6 CURVE",
"137 -23 OFFCURVE",
"128 -38 OFFCURVE",
"128 -54 CURVE SMOOTH",
"128 -95 OFFCURVE",
"194 -95 OFFCURVE",
"194 -126 CURVE SMOOTH",
"194 -137 OFFCURVE",
"183 -143 OFFCURVE",
"162 -143 CURVE SMOOTH",
"136 -143 OFFCURVE",
"116 -133 OFFCURVE",
"96 -118 CURVE",
"57 -195 LINE",
"92 -217 OFFCURVE",
"127 -227 OFFCURVE",
"168 -227 CURVE SMOOTH",
"231 -227 OFFCURVE",
"303 -194 OFFCURVE",
"303 -121 CURVE SMOOTH",
"303 -59 OFFCURVE",
"226 -53 OFFCURVE",
"226 -26 CURVE SMOOTH",
"226 -22 OFFCURVE",
"228 -16 OFFCURVE",
"230 -11 CURVE",
"299 -4 OFFCURVE",
"358 21 OFFCURVE",
"362 23 CURVE"
);
}
);
width = 402;
}
);
leftKerningGroup = o;
rightKerningGroup = c;
unicode = 00E7;
},
{
glyphname = d;
lastChange = "2017-07-21 14:56:56 +0000";
layers = (
{
layerId = "3E88664E-E4A1-4C90-B697-57006E853054";
paths = (
{
closed = 1;
nodes = (
"542 725 LINE",
"429 705 LINE",
"387 489 LINE",
"353 497 OFFCURVE",
"328 498 OFFCURVE",
"311 498 CURVE SMOOTH",
"131 498 OFFCURVE",
"30 346 OFFCURVE",
"30 157 CURVE SMOOTH",
"30 74 OFFCURVE",
"68 -8 OFFCURVE",
"163 -8 CURVE SMOOTH",
"233 -8 OFFCURVE",
"294 24 OFFCURVE",
"340 129 CURVE SMOOTH",
"357 169 LINE",
"353 134 OFFCURVE",
"350 106 OFFCURVE",
"350 89 CURVE SMOOTH",
"350 47 OFFCURVE",
"364 13 OFFCURVE",
"384 -10 CURVE",
"474 26 LINE",
"460 47 OFFCURVE",
"438 79 OFFCURVE",
"438 144 CURVE SMOOTH",
"438 169 OFFCURVE",
"441 201 OFFCURVE",
"448 238 CURVE SMOOTH"
);
},
{
closed = 1;
nodes = (
"200 74 CURVE SMOOTH",
"166 74 OFFCURVE",
"149 95 OFFCURVE",
"149 153 CURVE SMOOTH",
"149 268 OFFCURVE",
"193 421 OFFCURVE",
"313 421 CURVE SMOOTH",
"331 421 OFFCURVE",
"354 419 OFFCURVE",
"370 411 CURVE",
"356 342 LINE SMOOTH",
"335 242 OFFCURVE",
"268 74 OFFCURVE"
);
}
);
width = 516;
},
{
layerId = "A97BF1D1-A3CC-43F5-9A06-B7BB37BB129E";
paths = (
{
closed = 1;
nodes = (
"552 725 LINE",
"396 705 LINE",
"356 498 LINE",
"339 501 OFFCURVE",
"323 502 OFFCURVE",
"309 502 CURVE SMOOTH",
"123 502 OFFCURVE",
"22 354 OFFCURVE",
"22 163 CURVE SMOOTH",
"22 81 OFFCURVE",
"59 -9 OFFCURVE",
"159 -9 CURVE SMOOTH",
"221 -9 OFFCURVE",
"276 27 OFFCURVE",
"319 118 CURVE SMOOTH",
"332 146 LINE",
"329 119 OFFCURVE",
"329 100 OFFCURVE",
"329 84 CURVE SMOOTH",
"329 44 OFFCURVE",
"345 11 OFFCURVE",
"365 -12 CURVE",
"491 38 LINE",
"464 79 OFFCURVE",
"451 114 OFFCURVE",
"451 170 CURVE SMOOTH",
"451 186 OFFCURVE",
"452 205 OFFCURVE",
"456 225 CURVE SMOOTH"
);
},
{
closed = 1;
nodes = (
"207 109 CURVE SMOOTH",
"188 109 OFFCURVE",
"184 132 OFFCURVE",
"184 160 CURVE SMOOTH",
"184 230 OFFCURVE",
"210 387 OFFCURVE",
"302 387 CURVE SMOOTH",
"316 387 OFFCURVE",
"324 386 OFFCURVE",
"332 383 CURVE",
"322 338 LINE SMOOTH",
"299 241 OFFCURVE",
"248 109 OFFCURVE"
);
}
);
width = 518;
}
);
leftKerningGroup = o;
unicode = 0064;
},
{
glyphname = eth;
lastChange = "2017-07-21 14:56:56 +0000";
layers = (
{
layerId = "3E88664E-E4A1-4C90-B697-57006E853054";
paths = (
{
closed = 1;
nodes = (
"485 381 CURVE SMOOTH",
"485 450 OFFCURVE",
"474 524 OFFCURVE",
"451 578 CURVE",
"544 598 LINE",
"528 669 LINE",
"417 641 LINE",
"397 672 OFFCURVE",
"360 706 OFFCURVE",
"332 726 CURVE",
"265 663 LINE",
"315 616 LINE",
"226 594 LINE",
"244 523 LINE",
"359 556 LINE",
"370 533 OFFCURVE",
"383 503 OFFCURVE",
"390 476 CURVE",
"367 489 OFFCURVE",
"337 502 OFFCURVE",
"310 502 CURVE SMOOTH",
"130 502 OFFCURVE",
"30 345 OFFCURVE",
"30 156 CURVE SMOOTH",
"30 71 OFFCURVE",
"71 -11 OFFCURVE",
"197 -11 CURVE SMOOTH",
"414 -11 OFFCURVE",
"485 214 OFFCURVE"
);
},
{
closed = 1;
nodes = (
"286 425 CURVE SMOOTH",
"330 425 OFFCURVE",
"357 404 OFFCURVE",
"357 342 CURVE SMOOTH",
"357 232 OFFCURVE",
"308 66 OFFCURVE",
"220 66 CURVE SMOOTH",
"176 66 OFFCURVE",
"149 87 OFFCURVE",
"149 149 CURVE SMOOTH",
"149 260 OFFCURVE",
"198 425 OFFCURVE"
);
}
);
width = 529;
},
{
layerId = "A97BF1D1-A3CC-43F5-9A06-B7BB37BB129E";
paths = (
{
closed = 1;
nodes = (
"485 373 CURVE SMOOTH",
"485 451 OFFCURVE",
"471 520 OFFCURVE",
"447 574 CURVE",
"523 593 LINE",
"498 685 LINE",
"399 657 LINE",
"379 683 OFFCURVE",
"353 708 OFFCURVE",
"330 726 CURVE",
"234 646 LINE",
"260 616 LINE",
"199 599 LINE",
"226 509 LINE",
"320 538 LINE",
"334 519 OFFCURVE",
"345 500 OFFCURVE",
"353 484 CURVE",
"331 498 OFFCURVE",
"307 505 OFFCURVE",
"289 505 CURVE SMOOTH",
"123 505 OFFCURVE",
"22 347 OFFCURVE",
"22 163 CURVE SMOOTH",
"22 75 OFFCURVE",
"66 -13 OFFCURVE",
"201 -13 CURVE SMOOTH",
"419 -13 OFFCURVE",
"485 187 OFFCURVE"
);
},
{
closed = 1;
nodes = (
"283 393 CURVE SMOOTH",
"306 393 OFFCURVE",
"321 375 OFFCURVE",
"321 334 CURVE SMOOTH",
"321 241 OFFCURVE",
"286 99 OFFCURVE",
"222 99 CURVE SMOOTH",
"198 99 OFFCURVE",
"183 116 OFFCURVE",
"183 156 CURVE SMOOTH",
"183 251 OFFCURVE",
"218 393 OFFCURVE"
);
}
);
width = 501;
}
);
unicode = 00F0;
},
{
glyphname = e;
lastChange = "2017-07-21 14:56:56 +0000";
layers = (
{
anchors = (
{
name = top;
position = "{309, 502}";
}
);
layerId = "3E88664E-E4A1-4C90-B697-57006E853054";
paths = (
{
closed = 1;
nodes = (
"30 156 CURVE SMOOTH",
"30 71 OFFCURVE",
"71 -11 OFFCURVE",
"197 -11 CURVE SMOOTH",
"294 -11 OFFCURVE",
"395 39 OFFCURVE",
"395 39 CURVE",
"372 111 LINE",
"372 111 OFFCURVE",
"272 70 OFFCURVE",
"220 70 CURVE SMOOTH",
"176 70 OFFCURVE",
"147 91 OFFCURVE",
"147 153 CURVE SMOOTH",
"147 164 OFFCURVE",
"147 176 OFFCURVE",
"148 188 CURVE",
"326 197 OFFCURVE",
"453 278 OFFCURVE",
"453 394 CURVE SMOOTH",
"453 460 OFFCURVE",
"412 502 OFFCURVE",
"309 502 CURVE SMOOTH",
"130 502 OFFCURVE",
"30 345 OFFCURVE"
);
},
{
closed = 1;
nodes = (
"286 425 CURVE SMOOTH",
"324 425 OFFCURVE",
"340 407 OFFCURVE",
"340 376 CURVE SMOOTH",
"340 329 OFFCURVE",
"279 267 OFFCURVE",
"160 260 CURVE",
"181 346 OFFCURVE",
"224 425 OFFCURVE"
);
}
);
width = 458;
},
{
anchors = (
{
name = top;
position = "{309, 502}";
}
);
layerId = "A97BF1D1-A3CC-43F5-9A06-B7BB37BB129E";
paths = (
{
closed = 1;
nodes = (
"22 163 CURVE SMOOTH",
"22 75 OFFCURVE",
"66 -13 OFFCURVE",
"201 -13 CURVE SMOOTH",
"298 -13 OFFCURVE",
"413 44 OFFCURVE",
"413 44 CURVE",
"379 146 LINE",
"379 146 OFFCURVE",
"267 105 OFFCURVE",
"230 105 CURVE SMOOTH",
"202 105 OFFCURVE",
"181 119 OFFCURVE",
"181 152 CURVE SMOOTH",
"181 159 OFFCURVE",
"182 169 OFFCURVE",
"182 174 CURVE",
"346 189 OFFCURVE",
"462 269 OFFCURVE",
"462 382 CURVE SMOOTH",
"462 455 OFFCURVE",
"416 505 OFFCURVE",
"304 505 CURVE SMOOTH",
"124 505 OFFCURVE",
"22 347 OFFCURVE"
);
},
{
closed = 1;
nodes = (
"280 389 CURVE SMOOTH",
"299 389 OFFCURVE",
"309 380 OFFCURVE",
"309 362 CURVE SMOOTH",
"309 332 OFFCURVE",
"270 292 OFFCURVE",
"198 283 CURVE",
"214 345 OFFCURVE",
"245 389 OFFCURVE"
);
}
);
width = 469;
}
);
leftKerningGroup = o;
rightKerningGroup = e;
unicode = 0065;
},
{
glyphname = eacute;
lastChange = "2017-07-21 14:56:56 +0000";
layers = (
{
layerId = "3E88664E-E4A1-4C90-B697-57006E853054";
paths = (
{
closed = 1;
nodes = (
"30 156 CURVE SMOOTH",
"30 71 OFFCURVE",
"71 -11 OFFCURVE",
"197 -11 CURVE SMOOTH",
"294 -11 OFFCURVE",
"395 39 OFFCURVE",
"395 39 CURVE",
"372 111 LINE",
"372 111 OFFCURVE",
"272 70 OFFCURVE",
"220 70 CURVE SMOOTH",
"176 70 OFFCURVE",
"147 91 OFFCURVE",
"147 153 CURVE SMOOTH",
"147 164 OFFCURVE",
"147 176 OFFCURVE",
"148 188 CURVE",
"326 197 OFFCURVE",
"453 278 OFFCURVE",
"453 394 CURVE SMOOTH",
"453 460 OFFCURVE",
"412 502 OFFCURVE",
"309 502 CURVE SMOOTH",
"130 502 OFFCURVE",
"30 345 OFFCURVE"
);
},
{
closed = 1;
nodes = (
"286 425 CURVE SMOOTH",
"324 425 OFFCURVE",
"340 407 OFFCURVE",
"340 376 CURVE SMOOTH",
"340 329 OFFCURVE",
"279 267 OFFCURVE",
"160 260 CURVE",
"181 346 OFFCURVE",
"224 425 OFFCURVE"
);
},
{
closed = 1;
nodes = (
"311 539 LINE",
"311 539 OFFCURVE",
"427 655 OFFCURVE",
"502 705 CURVE",
"490 740 OFFCURVE",
"440 774 OFFCURVE",
"440 774 CURVE",
"360 717 OFFCURVE",
"266 591 OFFCURVE",
"266 591 CURVE"
);
}
);
width = 458;
},
{
layerId = "A97BF1D1-A3CC-43F5-9A06-B7BB37BB129E";
paths = (
{
closed = 1;
nodes = (
"22 163 CURVE SMOOTH",
"22 75 OFFCURVE",
"66 -13 OFFCURVE",
"201 -13 CURVE SMOOTH",
"298 -13 OFFCURVE",
"413 44 OFFCURVE",
"413 44 CURVE",
"379 146 LINE",
"379 146 OFFCURVE",
"267 105 OFFCURVE",
"230 105 CURVE SMOOTH",
"202 105 OFFCURVE",
"181 119 OFFCURVE",
"181 152 CURVE SMOOTH",
"181 159 OFFCURVE",
"182 169 OFFCURVE",
"182 174 CURVE",
"346 189 OFFCURVE",
"462 269 OFFCURVE",
"462 382 CURVE SMOOTH",
"462 455 OFFCURVE",
"416 505 OFFCURVE",
"304 505 CURVE SMOOTH",
"124 505 OFFCURVE",
"22 347 OFFCURVE"
);
},
{
closed = 1;
nodes = (
"280 389 CURVE SMOOTH",
"299 389 OFFCURVE",
"309 380 OFFCURVE",
"309 362 CURVE SMOOTH",
"309 332 OFFCURVE",
"270 292 OFFCURVE",
"198 283 CURVE",
"214 345 OFFCURVE",
"245 389 OFFCURVE"
);
},
{
closed = 1;
nodes = (
"312 530 LINE",
"312 530 OFFCURVE",
"410 629 OFFCURVE",
"518 681 CURVE",
"487 758 OFFCURVE",
"433 793 OFFCURVE",
"433 793 CURVE",
"327 734 OFFCURVE",
"246 604 OFFCURVE",
"246 604 CURVE"
);
}
);
width = 469;
}
);
leftKerningGroup = o;
rightKerningGroup = e;
unicode = 00E9;
},
{
glyphname = ecircumflex;
lastChange = "2017-07-21 14:56:56 +0000";
layers = (
{
layerId = "3E88664E-E4A1-4C90-B697-57006E853054";
paths = (
{
closed = 1;
nodes = (
"30 156 CURVE SMOOTH",
"30 71 OFFCURVE",
"71 -11 OFFCURVE",
"197 -11 CURVE SMOOTH",
"294 -11 OFFCURVE",
"395 39 OFFCURVE",
"395 39 CURVE",
"372 111 LINE",
"372 111 OFFCURVE",
"272 70 OFFCURVE",
"220 70 CURVE SMOOTH",
"176 70 OFFCURVE",
"147 91 OFFCURVE",
"147 153 CURVE SMOOTH",
"147 164 OFFCURVE",
"147 176 OFFCURVE",
"148 188 CURVE",
"326 197 OFFCURVE",
"453 278 OFFCURVE",
"453 394 CURVE SMOOTH",
"453 460 OFFCURVE",
"412 502 OFFCURVE",
"309 502 CURVE SMOOTH",
"130 502 OFFCURVE",
"30 345 OFFCURVE"
);
},
{
closed = 1;
nodes = (
"286 425 CURVE SMOOTH",
"324 425 OFFCURVE",
"340 407 OFFCURVE",
"340 376 CURVE SMOOTH",
"340 329 OFFCURVE",
"279 267 OFFCURVE",
"160 260 CURVE",
"181 346 OFFCURVE",
"224 425 OFFCURVE"
);
},
{
closed = 1;
nodes = (
"203 547 LINE",
"203 547 OFFCURVE",
"265 596 OFFCURVE",
"326 644 CURVE",
"378 587 OFFCURVE",
"442 548 OFFCURVE",
"442 548 CURVE",
"490 593 LINE",
"490 593 OFFCURVE",
"409 694 OFFCURVE",
"352 782 CURVE",
"271 726 OFFCURVE",
"152 595 OFFCURVE",
"152 595 CURVE"
);
}
);
width = 458;
},
{
layerId = "A97BF1D1-A3CC-43F5-9A06-B7BB37BB129E";
paths = (
{
closed = 1;
nodes = (
"22 163 CURVE SMOOTH",
"22 75 OFFCURVE",
"66 -13 OFFCURVE",
"201 -13 CURVE SMOOTH",
"298 -13 OFFCURVE",
"413 44 OFFCURVE",
"413 44 CURVE",
"379 146 LINE",
"379 146 OFFCURVE",
"267 105 OFFCURVE",
"230 105 CURVE SMOOTH",
"202 105 OFFCURVE",
"181 119 OFFCURVE",
"181 152 CURVE SMOOTH",
"181 159 OFFCURVE",
"182 169 OFFCURVE",
"182 174 CURVE",
"346 189 OFFCURVE",
"462 269 OFFCURVE",
"462 382 CURVE SMOOTH",
"462 455 OFFCURVE",
"416 505 OFFCURVE",
"304 505 CURVE SMOOTH",
"124 505 OFFCURVE",
"22 347 OFFCURVE"
);
},
{
closed = 1;
nodes = (
"280 389 CURVE SMOOTH",
"299 389 OFFCURVE",
"309 380 OFFCURVE",
"309 362 CURVE SMOOTH",
"309 332 OFFCURVE",
"270 292 OFFCURVE",
"198 283 CURVE",
"214 345 OFFCURVE",
"245 389 OFFCURVE"
);
},
{
closed = 1;
nodes = (
"210 538 LINE",
"210 538 OFFCURVE",
"264 582 OFFCURVE",
"326 630 CURVE",
"379 572 OFFCURVE",
"437 538 OFFCURVE",
"437 538 CURVE",
"510 604 LINE",
"510 604 OFFCURVE",
"426 700 OFFCURVE",
"359 801 CURVE",
"268 740 OFFCURVE",
"137 604 OFFCURVE",
"137 604 CURVE"
);
}
);
width = 469;
}
);
leftKerningGroup = o;
rightKerningGroup = e;
unicode = 00EA;
},
{
glyphname = edieresis;
lastChange = "2017-07-21 14:56:56 +0000";
layers = (
{
layerId = "3E88664E-E4A1-4C90-B697-57006E853054";
paths = (
{
closed = 1;
nodes = (
"30 156 CURVE SMOOTH",
"30 71 OFFCURVE",
"71 -11 OFFCURVE",
"197 -11 CURVE SMOOTH",
"294 -11 OFFCURVE",
"395 39 OFFCURVE",
"395 39 CURVE",
"372 111 LINE",
"372 111 OFFCURVE",
"272 70 OFFCURVE",
"220 70 CURVE SMOOTH",
"176 70 OFFCURVE",
"147 91 OFFCURVE",
"147 153 CURVE SMOOTH",
"147 164 OFFCURVE",
"147 176 OFFCURVE",
"148 188 CURVE",
"326 197 OFFCURVE",
"453 278 OFFCURVE",
"453 394 CURVE SMOOTH",
"453 460 OFFCURVE",
"412 502 OFFCURVE",
"309 502 CURVE SMOOTH",
"130 502 OFFCURVE",
"30 345 OFFCURVE"
);
},
{
closed = 1;
nodes = (
"286 425 CURVE SMOOTH",
"324 425 OFFCURVE",
"340 407 OFFCURVE",
"340 376 CURVE SMOOTH",
"340 329 OFFCURVE",
"279 267 OFFCURVE",
"160 260 CURVE",
"181 346 OFFCURVE",
"224 425 OFFCURVE"
);
},
{
closed = 1;
nodes = (
"241 693 CURVE SMOOTH",
"201 693 OFFCURVE",
"176 661 OFFCURVE",
"176 625 CURVE SMOOTH",
"176 592 OFFCURVE",
"193 568 OFFCURVE",
"231 568 CURVE SMOOTH",
"272 568 OFFCURVE",
"298 599 OFFCURVE",
"298 634 CURVE SMOOTH",
"298 670 OFFCURVE",
"280 693 OFFCURVE"
);
},
{
closed = 1;
nodes = (
"431 693 CURVE SMOOTH",
"390 693 OFFCURVE",
"365 661 OFFCURVE",
"365 625 CURVE SMOOTH",
"365 592 OFFCURVE",
"382 568 OFFCURVE",
"421 568 CURVE SMOOTH",
"461 568 OFFCURVE",
"487 599 OFFCURVE",
"487 634 CURVE SMOOTH",
"487 670 OFFCURVE",
"469 693 OFFCURVE"
);
}
);
width = 458;
},
{
layerId = "A97BF1D1-A3CC-43F5-9A06-B7BB37BB129E";
paths = (
{
closed = 1;
nodes = (
"22 163 CURVE SMOOTH",
"22 75 OFFCURVE",
"66 -13 OFFCURVE",
"201 -13 CURVE SMOOTH",
"298 -13 OFFCURVE",
"413 44 OFFCURVE",
"413 44 CURVE",
"379 146 LINE",
"379 146 OFFCURVE",
"267 105 OFFCURVE",
"230 105 CURVE SMOOTH",
"202 105 OFFCURVE",
"181 119 OFFCURVE",
"181 152 CURVE SMOOTH",
"181 159 OFFCURVE",
"182 169 OFFCURVE",
"182 174 CURVE",
"346 189 OFFCURVE",
"462 269 OFFCURVE",
"462 382 CURVE SMOOTH",
"462 455 OFFCURVE",
"416 505 OFFCURVE",
"304 505 CURVE SMOOTH",
"124 505 OFFCURVE",
"22 347 OFFCURVE"
);
},
{
closed = 1;
nodes = (
"280 389 CURVE SMOOTH",
"299 389 OFFCURVE",
"309 380 OFFCURVE",
"309 362 CURVE SMOOTH",
"309 332 OFFCURVE",
"270 292 OFFCURVE",
"198 283 CURVE",
"214 345 OFFCURVE",
"245 389 OFFCURVE"
);
},
{
closed = 1;
nodes = (
"227 724 CURVE SMOOTH",
"174 724 OFFCURVE",
"143 687 OFFCURVE",
"143 642 CURVE SMOOTH",
"143 601 OFFCURVE",
"166 572 OFFCURVE",
"217 572 CURVE SMOOTH",
"269 572 OFFCURVE",
"302 609 OFFCURVE",
"302 652 CURVE SMOOTH",
"302 697 OFFCURVE",
"278 724 OFFCURVE"
);
},
{
closed = 1;
nodes = (
"444 724 CURVE SMOOTH",
"392 724 OFFCURVE",
"361 687 OFFCURVE",
"361 642 CURVE SMOOTH",
"361 601 OFFCURVE",
"384 572 OFFCURVE",
"434 572 CURVE SMOOTH",
"487 572 OFFCURVE",
"519 609 OFFCURVE",
"519 652 CURVE SMOOTH",
"519 697 OFFCURVE",
"495 724 OFFCURVE"
);
}
);
width = 469;
}
);
leftKerningGroup = o;
rightKerningGroup = e;
unicode = 00EB;
},
{
glyphname = egrave;
lastChange = "2017-07-21 14:56:56 +0000";
layers = (
{
layerId = "3E88664E-E4A1-4C90-B697-57006E853054";
paths = (
{
closed = 1;
nodes = (
"30 156 CURVE SMOOTH",
"30 71 OFFCURVE",
"71 -11 OFFCURVE",
"197 -11 CURVE SMOOTH",
"294 -11 OFFCURVE",
"395 39 OFFCURVE",
"395 39 CURVE",
"372 111 LINE",
"372 111 OFFCURVE",
"272 70 OFFCURVE",
"220 70 CURVE SMOOTH",
"176 70 OFFCURVE",
"147 91 OFFCURVE",
"147 153 CURVE SMOOTH",
"147 164 OFFCURVE",
"147 176 OFFCURVE",
"148 188 CURVE",
"326 197 OFFCURVE",
"453 278 OFFCURVE",
"453 394 CURVE SMOOTH",
"453 460 OFFCURVE",
"412 502 OFFCURVE",
"309 502 CURVE SMOOTH",
"130 502 OFFCURVE",
"30 345 OFFCURVE"
);
},
{
closed = 1;
nodes = (
"286 425 CURVE SMOOTH",
"324 425 OFFCURVE",
"340 407 OFFCURVE",
"340 376 CURVE SMOOTH",
"340 329 OFFCURVE",
"279 267 OFFCURVE",
"160 260 CURVE",
"181 346 OFFCURVE",
"224 425 OFFCURVE"
);
},
{
closed = 1;
nodes = (
"351 585 LINE",
"351 585 OFFCURVE",
"256 675 OFFCURVE",
"212 774 CURVE",
"161 753 OFFCURVE",
"135 713 OFFCURVE",
"135 713 CURVE",
"178 616 OFFCURVE",
"303 540 OFFCURVE",
"303 540 CURVE"
);
}
);
width = 458;
},
{
layerId = "A97BF1D1-A3CC-43F5-9A06-B7BB37BB129E";
paths = (
{
closed = 1;
nodes = (
"22 163 CURVE SMOOTH",
"22 75 OFFCURVE",
"66 -13 OFFCURVE",
"201 -13 CURVE SMOOTH",
"298 -13 OFFCURVE",
"413 44 OFFCURVE",
"413 44 CURVE",
"379 146 LINE",
"379 146 OFFCURVE",
"267 105 OFFCURVE",
"230 105 CURVE SMOOTH",
"202 105 OFFCURVE",
"181 119 OFFCURVE",
"181 152 CURVE SMOOTH",
"181 159 OFFCURVE",
"182 169 OFFCURVE",
"182 174 CURVE",
"346 189 OFFCURVE",
"462 269 OFFCURVE",
"462 382 CURVE SMOOTH",
"462 455 OFFCURVE",
"416 505 OFFCURVE",
"304 505 CURVE SMOOTH",
"124 505 OFFCURVE",
"22 347 OFFCURVE"
);
},
{
closed = 1;
nodes = (
"280 389 CURVE SMOOTH",
"299 389 OFFCURVE",
"309 380 OFFCURVE",
"309 362 CURVE SMOOTH",
"309 332 OFFCURVE",
"270 292 OFFCURVE",
"198 283 CURVE",
"214 345 OFFCURVE",
"245 389 OFFCURVE"
);
},
{
closed = 1;
nodes = (
"380 596 LINE",
"380 596 OFFCURVE",
"294 679 OFFCURVE",
"243 793 CURVE",
"162 760 OFFCURVE",
"130 708 OFFCURVE",
"130 708 CURVE",
"185 598 OFFCURVE",
"307 530 OFFCURVE",
"307 530 CURVE"
);
}
);
width = 469;
}
);
leftKerningGroup = o;
rightKerningGroup = e;
unicode = 00E8;
},
{
glyphname = f;
lastChange = "2017-07-21 14:56:56 +0000";
layers = (
{
layerId = "3E88664E-E4A1-4C90-B697-57006E853054";
paths = (
{
closed = 1;
nodes = (
"431 626 LINE",
"415 682 OFFCURVE",
"385 722 OFFCURVE",
"311 722 CURVE SMOOTH",
"212 722 OFFCURVE",
"127 673 OFFCURVE",
"127 576 CURVE SMOOTH",
"127 550 OFFCURVE",
"132 515 OFFCURVE",
"149 490 CURVE",
"38 490 LINE",
"38 409 LINE",
"125 409 LINE",
"48 13 LINE SMOOTH",
"31 -73 OFFCURVE",
"-13 -107 OFFCURVE",
"-100 -147 CURVE",
"-61 -223 LINE",
"50 -167 OFFCURVE",
"131 -121 OFFCURVE",
"159 25 CURVE SMOOTH",
"234 409 LINE",
"347 409 LINE",
"360 490 LINE",
"243 490 LINE",
"235 518 OFFCURVE",
"232 548 OFFCURVE",
"232 567 CURVE SMOOTH",
"232 616 OFFCURVE",
"257 641 OFFCURVE",
"298 641 CURVE SMOOTH",
"330 641 OFFCURVE",
"341 615 OFFCURVE",
"348 590 CURVE"
);
}
);
width = 336;
},
{
layerId = "A97BF1D1-A3CC-43F5-9A06-B7BB37BB129E";
paths = (
{
closed = 1;
nodes = (
"445 615 LINE",
"426 684 OFFCURVE",
"386 722 OFFCURVE",
"298 722 CURVE SMOOTH",
"192 722 OFFCURVE",
"106 677 OFFCURVE",
"106 574 CURVE SMOOTH",
"106 554 OFFCURVE",
"113 514 OFFCURVE",
"128 490 CURVE",
"26 490 LINE",
"26 374 LINE",
"101 374 LINE",
"36 37 LINE SMOOTH",
"22 -34 OFFCURVE",
"-23 -74 OFFCURVE",
"-108 -114 CURVE",
"-51 -222 LINE",
"82 -160 OFFCURVE",
"160 -100 OFFCURVE",
"188 39 CURVE SMOOTH",
"254 374 LINE",
"357 374 LINE",
"377 490 LINE",
"262 490 LINE",
"256 516 OFFCURVE",
"253 541 OFFCURVE",
"253 560 CURVE SMOOTH",
"253 593 OFFCURVE",
"269 606 OFFCURVE",
"290 606 CURVE SMOOTH",
"309 606 OFFCURVE",
"315 583 OFFCURVE",
"322 560 CURVE"
);
}
);
width = 350;
}
);
unicode = 0066;
},
{
glyphname = g;
lastChange = "2017-07-21 14:56:56 +0000";
layers = (
{
layerId = "3E88664E-E4A1-4C90-B697-57006E853054";
paths = (
{
closed = 1;
nodes = (
"434 474 LINE",
"402 486 OFFCURVE",
"358 498 OFFCURVE",
"311 498 CURVE SMOOTH",
"131 498 OFFCURVE",
"30 346 OFFCURVE",
"30 157 CURVE SMOOTH",
"30 74 OFFCURVE",
"68 -8 OFFCURVE",
"163 -8 CURVE SMOOTH",
"233 -8 OFFCURVE",
"293 24 OFFCURVE",
"339 129 CURVE SMOOTH",
"358 171 LINE",
"355 140 OFFCURVE",
"350 111 OFFCURVE",
"350 90 CURVE SMOOTH",
"350 22 OFFCURVE",
"354 -4 OFFCURVE",
"354 -29 CURVE SMOOTH",
"354 -86 OFFCURVE",
"317 -132 OFFCURVE",
"255 -132 CURVE SMOOTH",
"194 -132 OFFCURVE",
"126 -99 OFFCURVE",
"75 -78 CURVE",
"36 -162 LINE",
"82 -184 OFFCURVE",
"164 -222 OFFCURVE",
"241 -222 CURVE SMOOTH",
"370 -222 OFFCURVE",
"453 -174 OFFCURVE",
"453 -27 CURVE SMOOTH",
"453 34 OFFCURVE",
"437 79 OFFCURVE",
"437 146 CURVE SMOOTH",
"437 210 OFFCURVE",
"478 406 OFFCURVE",
"492 470 CURVE"
);
},
{
closed = 1;
nodes = (
"199 74 CURVE SMOOTH",
"166 74 OFFCURVE",
"149 95 OFFCURVE",
"149 153 CURVE SMOOTH",
"149 268 OFFCURVE",
"193 421 OFFCURVE",
"313 421 CURVE SMOOTH",
"328 421 OFFCURVE",
"350 418 OFFCURVE",
"370 411 CURVE",
"367 394 LINE SMOOTH",
"340 242 OFFCURVE",
"267 74 OFFCURVE"
);
}
);
width = 528;
},
{
layerId = "A97BF1D1-A3CC-43F5-9A06-B7BB37BB129E";
paths = (
{
closed = 1;
nodes = (
"432 478 LINE",
"400 492 OFFCURVE",
"367 502 OFFCURVE",
"317 502 CURVE SMOOTH",
"132 502 OFFCURVE",
"31 354 OFFCURVE",
"31 163 CURVE SMOOTH",
"31 81 OFFCURVE",
"67 -9 OFFCURVE",
"167 -9 CURVE SMOOTH",
"229 -9 OFFCURVE",
"285 27 OFFCURVE",
"327 118 CURVE SMOOTH",
"340 147 LINE",
"337 116 OFFCURVE",
"332 84 OFFCURVE",
"332 62 CURVE SMOOTH",
"332 25 OFFCURVE",
"333 13 OFFCURVE",
"333 -12 CURVE SMOOTH",
"333 -52 OFFCURVE",
"306 -89 OFFCURVE",
"251 -89 CURVE SMOOTH",
"197 -89 OFFCURVE",
"128 -63 OFFCURVE",
"80 -43 CURVE",
"24 -162 LINE",
"70 -184 OFFCURVE",
"152 -222 OFFCURVE",
"260 -222 CURVE SMOOTH",
"389 -222 OFFCURVE",
"472 -158 OFFCURVE",
"472 -27 CURVE SMOOTH",
"472 45 OFFCURVE",
"456 86 OFFCURVE",
"456 156 CURVE SMOOTH",
"456 198 OFFCURVE",
"472 273 OFFCURVE",
"512 473 CURVE"
);
},
{
closed = 1;
nodes = (
"216 109 CURVE SMOOTH",
"196 109 OFFCURVE",
"192 132 OFFCURVE",
"192 160 CURVE SMOOTH",
"192 230 OFFCURVE",
"218 387 OFFCURVE",
"311 387 CURVE SMOOTH",
"323 387 OFFCURVE",
"331 385 OFFCURVE",
"340 383 CURVE",
"333 351 LINE SMOOTH",
"309 241 OFFCURVE",
"256 109 OFFCURVE"
);
}
);
width = 539;
}
);
leftKerningGroup = o;
unicode = 0067;
},
{
glyphname = h;
lastChange = "2017-07-21 14:56:56 +0000";
layers = (
{
layerId = "3E88664E-E4A1-4C90-B697-57006E853054";
paths = (
{
closed = 1;
nodes = (
"276 725 LINE",
"163 705 LINE",
"25 0 LINE",
"137 0 LINE",
"168 160 LINE SMOOTH",
"189 268 OFFCURVE",
"261 408 OFFCURVE",
"333 408 CURVE SMOOTH",
"374 408 OFFCURVE",
"387 383 OFFCURVE",
"387 351 CURVE SMOOTH",
"387 264 OFFCURVE",
"329 164 OFFCURVE",
"329 60 CURVE SMOOTH",
"329 39 OFFCURVE",
"329 22 OFFCURVE",
"333 0 CURVE",
"444 0 LINE",
"437 31 OFFCURVE",
"436 70 OFFCURVE",
"436 96 CURVE SMOOTH",
"436 175 OFFCURVE",
"501 271 OFFCURVE",
"501 376 CURVE SMOOTH",
"501 450 OFFCURVE",
"462 498 OFFCURVE",
"374 498 CURVE SMOOTH",
"294 498 OFFCURVE",
"227 453 OFFCURVE",
"188 361 CURVE",
"200 394 OFFCURVE",
"230 478 OFFCURVE",
"245 558 CURVE SMOOTH"
);
}
);
width = 541;
},
{
layerId = "A97BF1D1-A3CC-43F5-9A06-B7BB37BB129E";
paths = (
{
closed = 1;
nodes = (
"311 725 LINE",
"156 705 LINE",
"17 0 LINE",
"172 0 LINE",
"204 162 LINE SMOOTH",
"222 254 OFFCURVE",
"279 374 OFFCURVE",
"330 374 CURVE SMOOTH",
"347 374 OFFCURVE",
"354 361 OFFCURVE",
"354 343 CURVE SMOOTH",
"354 261 OFFCURVE",
"300 171 OFFCURVE",
"300 76 CURVE SMOOTH",
"300 59 OFFCURVE",
"300 40 OFFCURVE",
"307 0 CURVE",
"463 0 LINE",
"453 44 OFFCURVE",
"450 84 OFFCURVE",
"450 108 CURVE SMOOTH",
"450 182 OFFCURVE",
"510 266 OFFCURVE",
"510 378 CURVE SMOOTH",
"510 457 OFFCURVE",
"472 502 OFFCURVE",
"385 502 CURVE SMOOTH",
"306 502 OFFCURVE",
"255 467 OFFCURVE",
"198 356 CURVE",
"232 438 OFFCURVE",
"271 510 OFFCURVE",
"283 578 CURVE SMOOTH"
);
}
);
width = 542;
}
);
leftKerningGroup = h;
rightKerningGroup = n;
unicode = 0068;
},
{
glyphname = i;
lastChange = "2017-07-21 14:56:56 +0000";
layers = (
{
layerId = "3E88664E-E4A1-4C90-B697-57006E853054";
paths = (
{
closed = 1;
nodes = (
"201 721 CURVE SMOOTH",
"155 721 OFFCURVE",
"127 686 OFFCURVE",
"127 645 CURVE SMOOTH",
"127 609 OFFCURVE",
"146 582 OFFCURVE",
"189 582 CURVE SMOOTH",
"234 582 OFFCURVE",
"263 617 OFFCURVE",
"263 656 CURVE SMOOTH",
"263 696 OFFCURVE",
"243 721 OFFCURVE"
);
},
{
closed = 1;
nodes = (
"128 -5 CURVE SMOOTH",
"181 -5 OFFCURVE",
"218 13 OFFCURVE",
"218 13 CURVE",
"218 85 LINE",
"216 84 OFFCURVE",
"190 77 OFFCURVE",
"167 77 CURVE SMOOTH",
"154 77 OFFCURVE",
"150 86 OFFCURVE",
"150 102 CURVE SMOOTH",
"150 107 OFFCURVE",
"151 112 OFFCURVE",
"152 118 CURVE SMOOTH",
"224 490 LINE",
"114 490 LINE",
"38 108 LINE SMOOTH",
"36 98 OFFCURVE",
"35 88 OFFCURVE",
"35 79 CURVE SMOOTH",
"35 28 OFFCURVE",
"69 -5 OFFCURVE"
);
}
);
width = 273;
},
{
layerId = "A97BF1D1-A3CC-43F5-9A06-B7BB37BB129E";
paths = (
{
closed = 1;
nodes = (
"211 724 CURVE SMOOTH",
"153 724 OFFCURVE",
"117 682 OFFCURVE",
"117 634 CURVE SMOOTH",
"117 588 OFFCURVE",
"143 555 OFFCURVE",
"200 555 CURVE SMOOTH",
"257 555 OFFCURVE",
"294 596 OFFCURVE",
"294 644 CURVE SMOOTH",
"294 693 OFFCURVE",
"268 724 OFFCURVE"
);
},
{
closed = 1;
nodes = (
"138 -7 CURVE SMOOTH",
"194 -7 OFFCURVE",
"247 18 OFFCURVE",
"247 18 CURVE",
"247 126 LINE",
"244 125 OFFCURVE",
"216 115 OFFCURVE",
"202 115 CURVE SMOOTH",
"190 115 OFFCURVE",
"189 124 OFFCURVE",
"189 133 CURVE SMOOTH",
"189 139 OFFCURVE",
"190 142 OFFCURVE",
"193 159 CURVE SMOOTH",
"258 490 LINE",
"105 490 LINE",
"31 121 LINE SMOOTH",
"29 110 OFFCURVE",
"27 99 OFFCURVE",
"27 90 CURVE SMOOTH",
"27 32 OFFCURVE",
"68 -7 OFFCURVE"
);
}
);
width = 296;
}
);
leftKerningGroup = i;
rightKerningGroup = i;
unicode = 0069;
},
{
glyphname = dotlessi;
lastChange = "2017-07-21 14:56:56 +0000";
layers = (
{
anchors = (
{
name = topdotlessi;
position = "{172, 490}";
}
);
layerId = "3E88664E-E4A1-4C90-B697-57006E853054";
paths = (
{
closed = 1;
nodes = (
"128 -5 CURVE SMOOTH",
"181 -5 OFFCURVE",
"218 13 OFFCURVE",
"218 13 CURVE",
"218 85 LINE",
"218 85 OFFCURVE",
"190 77 OFFCURVE",
"167 77 CURVE SMOOTH",
"154 77 OFFCURVE",
"150 86 OFFCURVE",
"150 102 CURVE SMOOTH",
"150 107 OFFCURVE",
"151 112 OFFCURVE",
"152 118 CURVE SMOOTH",
"224 490 LINE",
"114 490 LINE",
"38 108 LINE SMOOTH",
"36 98 OFFCURVE",
"35 88 OFFCURVE",
"35 79 CURVE SMOOTH",
"35 28 OFFCURVE",
"69 -5 OFFCURVE"
);
}
);
width = 274;
},
{
anchors = (
{
name = topdotlessi;
position = "{172, 490}";
}
);
layerId = "A97BF1D1-A3CC-43F5-9A06-B7BB37BB129E";
paths = (
{
closed = 1;
nodes = (
"138 -7 CURVE SMOOTH",
"194 -7 OFFCURVE",
"247 18 OFFCURVE",
"247 18 CURVE",
"247 126 LINE",
"244 125 OFFCURVE",
"216 115 OFFCURVE",
"202 115 CURVE SMOOTH",
"190 115 OFFCURVE",
"189 124 OFFCURVE",
"189 133 CURVE SMOOTH",
"189 139 OFFCURVE",
"190 142 OFFCURVE",
"193 159 CURVE SMOOTH",
"258 490 LINE",
"105 490 LINE",
"31 121 LINE SMOOTH",
"29 110 OFFCURVE",
"27 99 OFFCURVE",
"27 90 CURVE SMOOTH",
"27 32 OFFCURVE",
"68 -7 OFFCURVE"
);
}
);
width = 297;
}
);
leftKerningGroup = i;
rightKerningGroup = i;
unicode = 0131;
},
{
glyphname = iacute;
lastChange = "2017-07-21 14:56:56 +0000";
layers = (
{
layerId = "3E88664E-E4A1-4C90-B697-57006E853054";
paths = (
{
closed = 1;
nodes = (
"128 -5 CURVE SMOOTH",
"181 -5 OFFCURVE",
"218 13 OFFCURVE",
"218 13 CURVE",
"218 85 LINE",
"218 85 OFFCURVE",
"190 77 OFFCURVE",
"167 77 CURVE SMOOTH",
"154 77 OFFCURVE",
"150 86 OFFCURVE",
"150 102 CURVE SMOOTH",
"150 107 OFFCURVE",
"151 112 OFFCURVE",
"152 118 CURVE SMOOTH",
"224 490 LINE",
"114 490 LINE",
"38 108 LINE SMOOTH",
"36 98 OFFCURVE",
"35 88 OFFCURVE",
"35 79 CURVE SMOOTH",
"35 28 OFFCURVE",
"69 -5 OFFCURVE"
);
},
{
closed = 1;
nodes = (
"175 535 LINE",
"175 535 OFFCURVE",
"269 657 OFFCURVE",
"335 708 CURVE",
"314 752 OFFCURVE",
"266 770 OFFCURVE",
"266 770 CURVE",
"181 703 OFFCURVE",
"122 572 OFFCURVE",
"122 572 CURVE"
);
}
);
width = 274;
},
{
layerId = "A97BF1D1-A3CC-43F5-9A06-B7BB37BB129E";
paths = (
{
closed = 1;
nodes = (
"138 -7 CURVE SMOOTH",
"194 -7 OFFCURVE",
"247 18 OFFCURVE",
"247 18 CURVE",
"247 126 LINE",
"244 125 OFFCURVE",
"216 115 OFFCURVE",
"202 115 CURVE SMOOTH",
"190 115 OFFCURVE",
"189 124 OFFCURVE",
"189 133 CURVE SMOOTH",
"189 139 OFFCURVE",
"190 142 OFFCURVE",
"193 159 CURVE SMOOTH",
"258 490 LINE",
"105 490 LINE",
"31 121 LINE SMOOTH",
"29 110 OFFCURVE",
"27 99 OFFCURVE",
"27 90 CURVE SMOOTH",
"27 32 OFFCURVE",
"68 -7 OFFCURVE"
);
},
{
closed = 1;
nodes = (
"194 526 LINE",
"194 526 OFFCURVE",
"269 624 OFFCURVE",
"351 698 CURVE",
"303 757 OFFCURVE",
"245 789 OFFCURVE",
"245 789 CURVE",
"162 698 OFFCURVE",
"113 582 OFFCURVE",
"113 582 CURVE"
);
}
);
width = 297;
}
);
leftKerningGroup = i;
rightKerningGroup = i;
unicode = 00ED;
},
{
glyphname = icircumflex;
lastChange = "2017-07-21 14:56:56 +0000";
layers = (
{
layerId = "3E88664E-E4A1-4C90-B697-57006E853054";
paths = (
{
closed = 1;
nodes = (
"128 -5 CURVE SMOOTH",
"181 -5 OFFCURVE",
"218 13 OFFCURVE",
"218 13 CURVE",
"218 85 LINE",
"218 85 OFFCURVE",
"190 77 OFFCURVE",
"167 77 CURVE SMOOTH",
"154 77 OFFCURVE",
"150 86 OFFCURVE",
"150 102 CURVE SMOOTH",
"150 107 OFFCURVE",
"151 112 OFFCURVE",
"152 118 CURVE SMOOTH",
"224 490 LINE",
"114 490 LINE",
"38 108 LINE SMOOTH",
"36 98 OFFCURVE",
"35 88 OFFCURVE",
"35 79 CURVE SMOOTH",
"35 28 OFFCURVE",
"69 -5 OFFCURVE"
);
},
{
closed = 1;
nodes = (
"88 527 LINE",
"88 527 OFFCURVE",
"145 569 OFFCURVE",
"194 615 CURVE",
"229 565 OFFCURVE",
"263 528 OFFCURVE",
"263 528 CURVE",
"315 563 LINE",
"315 563 OFFCURVE",
"275 667 OFFCURVE",
"222 762 CURVE",
"141 690 OFFCURVE",
"42 567 OFFCURVE",
"42 567 CURVE"
);
}
);
width = 274;
},
{
layerId = "A97BF1D1-A3CC-43F5-9A06-B7BB37BB129E";
paths = (
{
closed = 1;
nodes = (
"138 -7 CURVE SMOOTH",
"194 -7 OFFCURVE",
"247 18 OFFCURVE",
"247 18 CURVE",
"247 126 LINE",
"244 125 OFFCURVE",
"216 115 OFFCURVE",
"202 115 CURVE SMOOTH",
"190 115 OFFCURVE",
"189 124 OFFCURVE",
"189 133 CURVE SMOOTH",
"189 139 OFFCURVE",
"190 142 OFFCURVE",
"193 159 CURVE SMOOTH",
"258 490 LINE",
"105 490 LINE",
"31 121 LINE SMOOTH",
"29 110 OFFCURVE",
"27 99 OFFCURVE",
"27 90 CURVE SMOOTH",
"27 32 OFFCURVE",
"68 -7 OFFCURVE"
);
},
{
closed = 1;
nodes = (
"117 524 LINE",
"117 524 OFFCURVE",
"155 563 OFFCURVE",
"201 615 CURVE",
"234 560 OFFCURVE",
"261 524 OFFCURVE",
"261 524 CURVE",
"343 579 LINE",
"343 579 OFFCURVE",
"301 693 OFFCURVE",
"246 788 CURVE",
"163 727 OFFCURVE",
"43 587 OFFCURVE",
"43 587 CURVE"
);
}
);
width = 297;
}
);
leftKerningGroup = i;
rightKerningGroup = i;
unicode = 00EE;
},
{
glyphname = idieresis;
lastChange = "2017-07-21 14:56:56 +0000";
layers = (
{
layerId = "3E88664E-E4A1-4C90-B697-57006E853054";
paths = (
{
closed = 1;
nodes = (
"128 -5 CURVE SMOOTH",
"181 -5 OFFCURVE",
"218 13 OFFCURVE",
"218 13 CURVE",
"218 85 LINE",
"218 85 OFFCURVE",
"190 77 OFFCURVE",
"167 77 CURVE SMOOTH",
"154 77 OFFCURVE",
"150 86 OFFCURVE",
"150 102 CURVE SMOOTH",
"150 107 OFFCURVE",
"151 112 OFFCURVE",
"152 118 CURVE SMOOTH",
"224 490 LINE",
"114 490 LINE",
"38 108 LINE SMOOTH",
"36 98 OFFCURVE",
"35 88 OFFCURVE",
"35 79 CURVE SMOOTH",
"35 28 OFFCURVE",
"69 -5 OFFCURVE"
);
},
{
closed = 1;
nodes = (
"121 701 CURVE SMOOTH",
"83 701 OFFCURVE",
"61 671 OFFCURVE",
"61 640 CURVE SMOOTH",
"61 607 OFFCURVE",
"76 585 OFFCURVE",
"113 585 CURVE SMOOTH",
"151 585 OFFCURVE",
"175 615 OFFCURVE",
"175 647 CURVE SMOOTH",
"175 681 OFFCURVE",
"158 701 OFFCURVE"
);
},
{
closed = 1;
nodes = (
"286 701 CURVE SMOOTH",
"249 701 OFFCURVE",
"225 671 OFFCURVE",
"225 640 CURVE SMOOTH",
"225 607 OFFCURVE",
"242 585 OFFCURVE",
"279 585 CURVE SMOOTH",
"315 585 OFFCURVE",
"340 615 OFFCURVE",
"340 647 CURVE SMOOTH",
"340 681 OFFCURVE",
"323 701 OFFCURVE"
);
}
);
width = 274;
},
{
layerId = "A97BF1D1-A3CC-43F5-9A06-B7BB37BB129E";
paths = (
{
closed = 1;
nodes = (
"138 -7 CURVE SMOOTH",
"194 -7 OFFCURVE",
"247 18 OFFCURVE",
"247 18 CURVE",
"247 126 LINE",
"244 125 OFFCURVE",
"216 115 OFFCURVE",
"202 115 CURVE SMOOTH",
"190 115 OFFCURVE",
"189 124 OFFCURVE",
"189 133 CURVE SMOOTH",
"189 139 OFFCURVE",
"190 142 OFFCURVE",
"193 159 CURVE SMOOTH",
"258 490 LINE",
"105 490 LINE",
"31 121 LINE SMOOTH",
"29 110 OFFCURVE",
"27 99 OFFCURVE",
"27 90 CURVE SMOOTH",
"27 32 OFFCURVE",
"68 -7 OFFCURVE"
);
},
{
closed = 1;
nodes = (
"121 730 CURVE SMOOTH",
"69 730 OFFCURVE",
"38 694 OFFCURVE",
"38 650 CURVE SMOOTH",
"38 609 OFFCURVE",
"61 580 OFFCURVE",
"111 580 CURVE SMOOTH",
"162 580 OFFCURVE",
"195 617 OFFCURVE",
"195 660 CURVE SMOOTH",
"195 704 OFFCURVE",
"171 730 OFFCURVE"
);
},
{
closed = 1;
nodes = (
"302 730 CURVE SMOOTH",
"250 730 OFFCURVE",
"220 694 OFFCURVE",
"220 650 CURVE SMOOTH",
"220 609 OFFCURVE",
"243 580 OFFCURVE",
"292 580 CURVE SMOOTH",
"344 580 OFFCURVE",
"376 617 OFFCURVE",
"376 660 CURVE SMOOTH",
"376 704 OFFCURVE",
"352 730 OFFCURVE"
);
}
);
width = 297;
}
);
leftKerningGroup = i;
rightKerningGroup = i;
unicode = 00EF;
},
{
glyphname = igrave;
lastChange = "2017-07-21 14:56:56 +0000";
layers = (
{
layerId = "3E88664E-E4A1-4C90-B697-57006E853054";
paths = (
{
closed = 1;
nodes = (
"128 -5 CURVE SMOOTH",
"181 -5 OFFCURVE",
"218 13 OFFCURVE",
"218 13 CURVE",
"218 85 LINE",
"218 85 OFFCURVE",
"190 77 OFFCURVE",
"167 77 CURVE SMOOTH",
"154 77 OFFCURVE",
"150 86 OFFCURVE",
"150 102 CURVE SMOOTH",
"150 107 OFFCURVE",
"151 112 OFFCURVE",
"152 118 CURVE SMOOTH",
"224 490 LINE",
"114 490 LINE",
"38 108 LINE SMOOTH",
"36 98 OFFCURVE",
"35 88 OFFCURVE",
"35 79 CURVE SMOOTH",
"35 28 OFFCURVE",
"69 -5 OFFCURVE"
);
},
{
closed = 1;
nodes = (
"222 572 LINE",
"222 572 OFFCURVE",
"173 671 OFFCURVE",
"129 770 CURVE",
"78 749 OFFCURVE",
"47 720 OFFCURVE",
"47 720 CURVE",
"90 622 OFFCURVE",
"170 536 OFFCURVE",
"170 536 CURVE"
);
}
);
width = 274;
},
{
layerId = "A97BF1D1-A3CC-43F5-9A06-B7BB37BB129E";
paths = (
{
closed = 1;
nodes = (
"138 -7 CURVE SMOOTH",
"194 -7 OFFCURVE",
"247 18 OFFCURVE",
"247 18 CURVE",
"247 126 LINE",
"244 125 OFFCURVE",
"216 115 OFFCURVE",
"202 115 CURVE SMOOTH",
"190 115 OFFCURVE",
"189 124 OFFCURVE",
"189 133 CURVE SMOOTH",
"189 139 OFFCURVE",
"190 142 OFFCURVE",
"193 159 CURVE SMOOTH",
"258 490 LINE",
"105 490 LINE",
"31 121 LINE SMOOTH",
"29 110 OFFCURVE",
"27 99 OFFCURVE",
"27 90 CURVE SMOOTH",
"27 32 OFFCURVE",
"68 -7 OFFCURVE"
);
},
{
closed = 1;
nodes = (
"261 581 LINE",
"261 581 OFFCURVE",
"203 681 OFFCURVE",
"158 789 CURVE",
"85 762 OFFCURVE",
"35 721 OFFCURVE",
"35 721 CURVE",
"93 612 OFFCURVE",
"180 526 OFFCURVE",
"180 526 CURVE"
);
}
);
width = 297;
}
);
leftKerningGroup = i;
rightKerningGroup = i;
unicode = 00EC;
},
{
glyphname = j;
lastChange = "2017-07-21 14:56:56 +0000";
layers = (
{
layerId = "3E88664E-E4A1-4C90-B697-57006E853054";
paths = (
{
closed = 1;
nodes = (
"112 490 LINE",
"18 13 LINE SMOOTH",
"1 -73 OFFCURVE",
"-43 -107 OFFCURVE",
"-130 -147 CURVE",
"-91 -223 LINE",
"20 -167 OFFCURVE",
"100 -120 OFFCURVE",
"129 25 CURVE SMOOTH",
"221 490 LINE"
);
},
{
closed = 1;
nodes = (
"202 721 CURVE SMOOTH",
"156 721 OFFCURVE",
"129 686 OFFCURVE",
"129 645 CURVE SMOOTH",
"129 609 OFFCURVE",
"147 582 OFFCURVE",
"190 582 CURVE SMOOTH",
"236 582 OFFCURVE",
"264 617 OFFCURVE",
"264 656 CURVE SMOOTH",
"264 696 OFFCURVE",
"244 721 OFFCURVE"
);
}
);
width = 243;
},
{
layerId = "A97BF1D1-A3CC-43F5-9A06-B7BB37BB129E";
paths = (
{
closed = 1;
nodes = (
"95 490 LINE",
"7 46 LINE SMOOTH",
"-10 -38 OFFCURVE",
"-48 -75 OFFCURVE",
"-138 -115 CURVE",
"-82 -223 LINE",
"60 -154 OFFCURVE",
"127 -114 OFFCURVE",
"158 39 CURVE SMOOTH",
"247 490 LINE"
);
},
{
closed = 1;
nodes = (
"203 724 CURVE SMOOTH",
"145 724 OFFCURVE",
"110 682 OFFCURVE",
"110 634 CURVE SMOOTH",
"110 588 OFFCURVE",
"136 555 OFFCURVE",
"193 555 CURVE SMOOTH",
"250 555 OFFCURVE",
"287 596 OFFCURVE",
"287 644 CURVE SMOOTH",
"287 693 OFFCURVE",
"261 724 OFFCURVE"
);
}
);
width = 257;
}
);
unicode = 006A;
},
{
glyphname = k;
lastChange = "2017-07-21 14:56:56 +0000";
layers = (
{
layerId = "3E88664E-E4A1-4C90-B697-57006E853054";
paths = (
{
closed = 1;
nodes = (
"167 156 LINE SMOOTH",
"185 249 OFFCURVE",
"240 417 OFFCURVE",
"333 417 CURVE SMOOTH",
"370 417 OFFCURVE",
"383 399 OFFCURVE",
"383 364 CURVE SMOOTH",
"383 293 OFFCURVE",
"254 255 OFFCURVE",
"233 250 CURVE",
"232 240 LINE",
"264 116 OFFCURVE",
"322 -8 OFFCURVE",
"425 -103 CURVE",
"514 -53 LINE",
"440 33 OFFCURVE",
"391 106 OFFCURVE",
"357 214 CURVE",
"357 214 OFFCURVE",
"500 263 OFFCURVE",
"500 383 CURVE SMOOTH",
"500 461 OFFCURVE",
"443 498 OFFCURVE",
"366 498 CURVE SMOOTH",
"310 498 OFFCURVE",
"251 476 OFFCURVE",
"199 392 CURVE",
"214 446 OFFCURVE",
"237 515 OFFCURVE",
"245 557 CURVE SMOOTH",
"276 725 LINE",
"163 705 LINE",
"25 0 LINE",
"137 0 LINE"
);
}
);
width = 530;
},
{
layerId = "A97BF1D1-A3CC-43F5-9A06-B7BB37BB129E";
paths = (
{
closed = 1;
nodes = (
"202 160 LINE SMOOTH",
"220 253 OFFCURVE",
"263 382 OFFCURVE",
"325 382 CURVE SMOOTH",
"346 382 OFFCURVE",
"352 372 OFFCURVE",
"352 353 CURVE SMOOTH",
"352 305 OFFCURVE",
"271 268 OFFCURVE",
"250 261 CURVE",
"248 244 LINE",
"280 120 OFFCURVE",
"338 -4 OFFCURVE",
"441 -99 CURVE",
"563 -33 LINE",
"489 52 OFFCURVE",
"434 130 OFFCURVE",
"404 218 CURVE",
"404 218 OFFCURVE",
"516 267 OFFCURVE",
"516 381 CURVE SMOOTH",
"516 460 OFFCURVE",
"466 502 OFFCURVE",
"393 502 CURVE SMOOTH",
"320 502 OFFCURVE",
"261 473 OFFCURVE",
"210 388 CURVE",
"235 451 OFFCURVE",
"271 519 OFFCURVE",
"282 578 CURVE SMOOTH",
"310 725 LINE",
"155 705 LINE",
"17 0 LINE",
"171 0 LINE"
);
}
);
width = 571;
}
);
leftKerningGroup = h;
unicode = 006B;
},
{
glyphname = l;
lastChange = "2017-07-21 14:56:56 +0000";
layers = (
{
layerId = "3E88664E-E4A1-4C90-B697-57006E853054";
paths = (
{
closed = 1;
nodes = (
"228 85 LINE",
"225 84 OFFCURVE",
"200 77 OFFCURVE",
"172 77 CURVE SMOOTH",
"154 77 OFFCURVE",
"145 84 OFFCURVE",
"145 102 CURVE SMOOTH",
"145 107 OFFCURVE",
"146 112 OFFCURVE",
"147 118 CURVE SMOOTH",
"263 725 LINE",
"150 705 LINE",
"33 107 LINE SMOOTH",
"31 98 OFFCURVE",
"30 88 OFFCURVE",
"30 79 CURVE SMOOTH",
"30 28 OFFCURVE",
"61 -5 OFFCURVE",
"123 -5 CURVE SMOOTH",
"185 -5 OFFCURVE",
"228 13 OFFCURVE",
"228 13 CURVE"
);
}
);
width = 278;
},
{
layerId = "A97BF1D1-A3CC-43F5-9A06-B7BB37BB129E";
paths = (
{
closed = 1;
nodes = (
"255 127 LINE",
"251 126 OFFCURVE",
"213 115 OFFCURVE",
"198 115 CURVE SMOOTH",
"185 115 OFFCURVE",
"183 124 OFFCURVE",
"183 133 CURVE SMOOTH",
"183 139 OFFCURVE",
"184 142 OFFCURVE",
"187 159 CURVE SMOOTH",
"295 725 LINE",
"139 705 LINE",
"26 123 LINE SMOOTH",
"24 112 OFFCURVE",
"22 101 OFFCURVE",
"22 92 CURVE SMOOTH",
"22 34 OFFCURVE",
"59 -4 OFFCURVE",
"133 -4 CURVE SMOOTH",
"195 -4 OFFCURVE",
"255 20 OFFCURVE",
"255 20 CURVE"
);
}
);
width = 302;
}
);
unicode = 006C;
},
{
glyphname = m;
lastChange = "2017-07-21 14:56:56 +0000";
layers = (
{
layerId = "3E88664E-E4A1-4C90-B697-57006E853054";
paths = (
{
closed = 1;
nodes = (
"772 376 CURVE SMOOTH",
"772 450 OFFCURVE",
"730 498 OFFCURVE",
"646 498 CURVE SMOOTH",
"578 498 OFFCURVE",
"525 461 OFFCURVE",
"487 384 CURVE",
"484 453 OFFCURVE",
"443 498 OFFCURVE",
"365 498 CURVE SMOOTH",
"293 498 OFFCURVE",
"231 452 OFFCURVE",
"195 361 CURVE SMOOTH",
"180 323 LINE",
"183 353 OFFCURVE",
"189 387 OFFCURVE",
"189 415 CURVE SMOOTH",
"189 456 OFFCURVE",
"178 482 OFFCURVE",
"163 500 CURVE",
"72 464 LINE",
"78 454 OFFCURVE",
"97 424 OFFCURVE",
"97 351 CURVE SMOOTH",
"97 324 OFFCURVE",
"94 291 OFFCURVE",
"86 252 CURVE SMOOTH",
"35 0 LINE",
"147 0 LINE",
"182 181 LINE SMOOTH",
"202 288 OFFCURVE",
"271 408 OFFCURVE",
"330 408 CURVE SMOOTH",
"366 408 OFFCURVE",
"378 383 OFFCURVE",
"378 351 CURVE SMOOTH",
"378 331 OFFCURVE",
"374 291 OFFCURVE",
"366 252 CURVE SMOOTH",
"316 0 LINE",
"428 0 LINE",
"463 182 LINE",
"483 288 OFFCURVE",
"551 408 OFFCURVE",
"610 408 CURVE SMOOTH",
"646 408 OFFCURVE",
"658 383 OFFCURVE",
"658 351 CURVE SMOOTH",
"658 265 OFFCURVE",
"600 164 OFFCURVE",
"600 60 CURVE SMOOTH",
"600 42 OFFCURVE",
"600 22 OFFCURVE",
"604 0 CURVE",
"716 0 LINE",
"709 31 OFFCURVE",
"707 70 OFFCURVE",
"707 96 CURVE SMOOTH",
"707 175 OFFCURVE",
"772 271 OFFCURVE"
);
}
);
width = 812;
},
{
layerId = "A97BF1D1-A3CC-43F5-9A06-B7BB37BB129E";
paths = (
{
closed = 1;
nodes = (
"770 378 CURVE SMOOTH",
"770 457 OFFCURVE",
"731 502 OFFCURVE",
"645 502 CURVE SMOOTH",
"581 502 OFFCURVE",
"537 474 OFFCURVE",
"501 408 CURVE",
"491 470 OFFCURVE",
"453 502 OFFCURVE",
"382 502 CURVE SMOOTH",
"305 502 OFFCURVE",
"257 462 OFFCURVE",
"217 375 CURVE SMOOTH",
"204 347 LINE",
"209 389 OFFCURVE",
"211 406 OFFCURVE",
"211 421 CURVE SMOOTH",
"211 453 OFFCURVE",
"202 483 OFFCURVE",
"183 504 CURVE",
"57 455 LINE",
"65 442 OFFCURVE",
"88 404 OFFCURVE",
"88 342 CURVE SMOOTH",
"88 318 OFFCURVE",
"85 289 OFFCURVE",
"78 256 CURVE SMOOTH",
"27 0 LINE",
"182 0 LINE",
"214 167 LINE SMOOTH",
"232 258 OFFCURVE",
"281 374 OFFCURVE",
"328 374 CURVE SMOOTH",
"345 374 OFFCURVE",
"351 361 OFFCURVE",
"351 343 CURVE SMOOTH",
"351 320 OFFCURVE",
"347 289 OFFCURVE",
"341 256 CURVE SMOOTH",
"290 0 LINE",
"445 0 LINE",
"477 168 LINE",
"495 258 OFFCURVE",
"543 374 OFFCURVE",
"591 374 CURVE SMOOTH",
"607 374 OFFCURVE",
"613 361 OFFCURVE",
"613 343 CURVE SMOOTH",
"613 261 OFFCURVE",
"560 171 OFFCURVE",
"560 76 CURVE SMOOTH",
"560 59 OFFCURVE",
"560 40 OFFCURVE",
"567 0 CURVE",
"723 0 LINE",
"713 44 OFFCURVE",
"710 84 OFFCURVE",
"710 108 CURVE SMOOTH",
"710 182 OFFCURVE",
"770 266 OFFCURVE"
);
}
);
width = 802;
}
);
leftKerningGroup = n;
rightKerningGroup = n;
unicode = 006D;
},
{
glyphname = n;
lastChange = "2017-07-21 14:56:56 +0000";
layers = (
{
anchors = (
{
name = top;
position = "{370, 498}";
}
);
layerId = "3E88664E-E4A1-4C90-B697-57006E853054";
paths = (
{
closed = 1;
nodes = (
"511 376 CURVE SMOOTH",
"511 450 OFFCURVE",
"472 498 OFFCURVE",
"384 498 CURVE SMOOTH",
"304 498 OFFCURVE",
"237 453 OFFCURVE",
"197 361 CURVE SMOOTH",
"180 321 LINE",
"188 394 OFFCURVE",
"189 387 OFFCURVE",
"189 415 CURVE SMOOTH",
"189 456 OFFCURVE",
"178 482 OFFCURVE",
"163 500 CURVE",
"72 464 LINE",
"78 454 OFFCURVE",
"97 424 OFFCURVE",
"97 351 CURVE SMOOTH",
"97 324 OFFCURVE",
"94 291 OFFCURVE",
"86 252 CURVE SMOOTH",
"35 0 LINE",
"147 0 LINE",
"178 159 LINE SMOOTH",
"199 268 OFFCURVE",
"271 408 OFFCURVE",
"343 408 CURVE SMOOTH",
"384 408 OFFCURVE",
"397 383 OFFCURVE",
"397 351 CURVE SMOOTH",
"397 264 OFFCURVE",
"339 164 OFFCURVE",
"339 60 CURVE SMOOTH",
"339 42 OFFCURVE",
"339 22 OFFCURVE",
"343 0 CURVE",
"454 0 LINE",
"448 31 OFFCURVE",
"446 70 OFFCURVE",
"446 96 CURVE SMOOTH",
"446 175 OFFCURVE",
"511 271 OFFCURVE"
);
}
);
width = 551;
},
{
anchors = (
{
name = top;
position = "{370, 498}";
}
);
layerId = "A97BF1D1-A3CC-43F5-9A06-B7BB37BB129E";
paths = (
{
closed = 1;
nodes = (
"519 378 CURVE SMOOTH",
"519 457 OFFCURVE",
"482 502 OFFCURVE",
"394 502 CURVE SMOOTH",
"315 502 OFFCURVE",
"258 463 OFFCURVE",
"217 375 CURVE SMOOTH",
"204 347 LINE",
"211 399 OFFCURVE",
"211 406 OFFCURVE",
"211 421 CURVE SMOOTH",
"211 453 OFFCURVE",
"202 483 OFFCURVE",
"183 504 CURVE",
"57 455 LINE",
"65 442 OFFCURVE",
"88 404 OFFCURVE",
"88 342 CURVE SMOOTH",
"88 318 OFFCURVE",
"85 289 OFFCURVE",
"78 256 CURVE SMOOTH",
"27 0 LINE",
"182 0 LINE",
"213 162 LINE SMOOTH",
"231 254 OFFCURVE",
"288 374 OFFCURVE",
"339 374 CURVE SMOOTH",
"357 374 OFFCURVE",
"363 361 OFFCURVE",
"363 343 CURVE SMOOTH",
"363 261 OFFCURVE",
"309 171 OFFCURVE",
"309 76 CURVE SMOOTH",
"309 59 OFFCURVE",
"309 40 OFFCURVE",
"316 0 CURVE",
"472 0 LINE",
"462 44 OFFCURVE",
"459 84 OFFCURVE",
"459 108 CURVE SMOOTH",
"459 182 OFFCURVE",
"519 266 OFFCURVE"
);
}
);
width = 552;
}
);
leftKerningGroup = n;
rightKerningGroup = n;
unicode = 006E;
},
{
glyphname = ntilde;
lastChange = "2017-07-21 14:56:56 +0000";
layers = (
{
layerId = "3E88664E-E4A1-4C90-B697-57006E853054";
paths = (
{
closed = 1;
nodes = (
"511 376 CURVE SMOOTH",
"511 450 OFFCURVE",
"472 498 OFFCURVE",
"384 498 CURVE SMOOTH",
"304 498 OFFCURVE",
"238 453 OFFCURVE",
"198 361 CURVE SMOOTH",
"181 321 LINE",
"189 394 OFFCURVE",
"190 387 OFFCURVE",
"190 415 CURVE SMOOTH",
"190 456 OFFCURVE",
"179 482 OFFCURVE",
"164 500 CURVE",
"73 464 LINE",
"79 454 OFFCURVE",
"98 424 OFFCURVE",
"98 351 CURVE SMOOTH",
"98 324 OFFCURVE",
"95 291 OFFCURVE",
"87 252 CURVE SMOOTH",
"36 0 LINE",
"147 0 LINE",
"178 159 LINE SMOOTH",
"199 268 OFFCURVE",
"272 408 OFFCURVE",
"344 408 CURVE SMOOTH",
"384 408 OFFCURVE",
"398 383 OFFCURVE",
"398 351 CURVE SMOOTH",
"398 264 OFFCURVE",
"339 164 OFFCURVE",
"339 60 CURVE SMOOTH",
"339 42 OFFCURVE",
"339 22 OFFCURVE",
"343 0 CURVE",
"455 0 LINE",
"448 31 OFFCURVE",
"446 70 OFFCURVE",
"446 96 CURVE SMOOTH",
"446 175 OFFCURVE",
"511 271 OFFCURVE"
);
},
{
closed = 1;
nodes = (
"554 680 LINE",
"554 680 OFFCURVE",
"518 666 OFFCURVE",
"474 666 CURVE SMOOTH",
"427 666 OFFCURVE",
"376 686 OFFCURVE",
"329 686 CURVE SMOOTH",
"285 686 OFFCURVE",
"248 663 OFFCURVE",
"248 663 CURVE",
"234 589 LINE",
"234 589 OFFCURVE",
"269 603 OFFCURVE",
"313 603 CURVE SMOOTH",
"360 603 OFFCURVE",
"411 583 OFFCURVE",
"458 583 CURVE SMOOTH",
"502 583 OFFCURVE",
"539 606 OFFCURVE",
"539 606 CURVE"
);
}
);
width = 551;
},
{
layerId = "A97BF1D1-A3CC-43F5-9A06-B7BB37BB129E";
paths = (
{
closed = 1;
nodes = (
"504 378 CURVE SMOOTH",
"504 457 OFFCURVE",
"467 502 OFFCURVE",
"379 502 CURVE SMOOTH",
"300 502 OFFCURVE",
"243 463 OFFCURVE",
"202 375 CURVE SMOOTH",
"189 347 LINE",
"196 399 OFFCURVE",
"196 406 OFFCURVE",
"196 421 CURVE SMOOTH",
"196 453 OFFCURVE",
"187 483 OFFCURVE",
"168 504 CURVE",
"42 455 LINE",
"50 442 OFFCURVE",
"73 404 OFFCURVE",
"73 342 CURVE SMOOTH",
"73 318 OFFCURVE",
"70 289 OFFCURVE",
"63 256 CURVE SMOOTH",
"12 0 LINE",
"167 0 LINE",
"198 162 LINE SMOOTH",
"216 254 OFFCURVE",
"273 374 OFFCURVE",
"324 374 CURVE SMOOTH",
"342 374 OFFCURVE",
"348 361 OFFCURVE",
"348 343 CURVE SMOOTH",
"348 261 OFFCURVE",
"294 171 OFFCURVE",
"294 76 CURVE SMOOTH",
"294 59 OFFCURVE",
"294 40 OFFCURVE",
"301 0 CURVE",
"457 0 LINE",
"447 44 OFFCURVE",
"444 84 OFFCURVE",
"444 108 CURVE SMOOTH",
"444 182 OFFCURVE",
"504 266 OFFCURVE"
);
},
{
closed = 1;
nodes = (
"565 719 LINE",
"565 719 OFFCURVE",
"515 703 OFFCURVE",
"471 703 CURVE SMOOTH",
"416 703 OFFCURVE",
"380 725 OFFCURVE",
"333 725 CURVE SMOOTH",
"279 725 OFFCURVE",
"236 700 OFFCURVE",
"236 700 CURVE",
"215 597 LINE",
"215 597 OFFCURVE",
"265 613 OFFCURVE",
"309 613 CURVE SMOOTH",
"364 613 OFFCURVE",
"400 591 OFFCURVE",
"447 591 CURVE SMOOTH",
"501 591 OFFCURVE",
"544 616 OFFCURVE",
"544 616 CURVE"
);
}
);
width = 552;
}
);
leftKerningGroup = n;
rightKerningGroup = n;
unicode = 00F1;
},
{
glyphname = o;
lastChange = "2017-07-21 14:56:56 +0000";
layers = (
{
anchors = (
{
name = top;
position = "{308, 502}";
}
);
layerId = "3E88664E-E4A1-4C90-B697-57006E853054";
paths = (
{
closed = 1;
nodes = (
"309 502 CURVE SMOOTH",
"130 502 OFFCURVE",
"30 345 OFFCURVE",
"30 156 CURVE SMOOTH",
"30 71 OFFCURVE",
"71 -11 OFFCURVE",
"197 -11 CURVE SMOOTH",
"377 -11 OFFCURVE",
"476 144 OFFCURVE",
"476 335 CURVE SMOOTH",
"476 420 OFFCURVE",
"436 502 OFFCURVE"
);
},
{
closed = 1;
nodes = (
"286 425 CURVE SMOOTH",
"330 425 OFFCURVE",
"357 404 OFFCURVE",
"357 342 CURVE SMOOTH",
"357 232 OFFCURVE",
"308 66 OFFCURVE",
"220 66 CURVE SMOOTH",
"176 66 OFFCURVE",
"149 87 OFFCURVE",
"149 149 CURVE SMOOTH",
"149 260 OFFCURVE",
"198 425 OFFCURVE"
);
}
);
width = 506;
},
{
anchors = (
{
name = top;
position = "{308, 502}";
}
);
layerId = "A97BF1D1-A3CC-43F5-9A06-B7BB37BB129E";
paths = (
{
closed = 1;
nodes = (
"304 505 CURVE SMOOTH",
"123 505 OFFCURVE",
"22 347 OFFCURVE",
"22 163 CURVE SMOOTH",
"22 75 OFFCURVE",
"66 -13 OFFCURVE",
"201 -13 CURVE SMOOTH",
"383 -13 OFFCURVE",
"483 141 OFFCURVE",
"483 327 CURVE SMOOTH",
"483 415 OFFCURVE",
"440 505 OFFCURVE"
);
},
{
closed = 1;
nodes = (
"283 393 CURVE SMOOTH",
"306 393 OFFCURVE",
"321 375 OFFCURVE",
"321 334 CURVE SMOOTH",
"321 241 OFFCURVE",
"286 99 OFFCURVE",
"222 99 CURVE SMOOTH",
"198 99 OFFCURVE",
"183 116 OFFCURVE",
"183 156 CURVE SMOOTH",
"183 251 OFFCURVE",
"218 393 OFFCURVE"
);
}
);
width = 505;
}
);
leftKerningGroup = o;
rightKerningGroup = o;
unicode = 006F;
},
{
glyphname = oacute;
lastChange = "2017-07-21 14:56:56 +0000";
layers = (
{
layerId = "3E88664E-E4A1-4C90-B697-57006E853054";
paths = (
{
closed = 1;
nodes = (
"309 502 CURVE SMOOTH",
"130 502 OFFCURVE",
"30 345 OFFCURVE",
"30 156 CURVE SMOOTH",
"30 71 OFFCURVE",
"71 -11 OFFCURVE",
"197 -11 CURVE SMOOTH",
"377 -11 OFFCURVE",
"476 144 OFFCURVE",
"476 335 CURVE SMOOTH",
"476 420 OFFCURVE",
"436 502 OFFCURVE"
);
},
{
closed = 1;
nodes = (
"286 425 CURVE SMOOTH",
"330 425 OFFCURVE",
"357 404 OFFCURVE",
"357 342 CURVE SMOOTH",
"357 232 OFFCURVE",
"308 66 OFFCURVE",
"220 66 CURVE SMOOTH",
"176 66 OFFCURVE",
"149 87 OFFCURVE",
"149 149 CURVE SMOOTH",
"149 260 OFFCURVE",
"198 425 OFFCURVE"
);
},
{
closed = 1;
nodes = (
"316 539 LINE",
"316 539 OFFCURVE",
"432 655 OFFCURVE",
"508 705 CURVE",
"495 740 OFFCURVE",
"445 774 OFFCURVE",
"445 774 CURVE",
"365 717 OFFCURVE",
"271 591 OFFCURVE",
"271 591 CURVE"
);
}
);
width = 506;
},
{
layerId = "A97BF1D1-A3CC-43F5-9A06-B7BB37BB129E";
paths = (
{
closed = 1;
nodes = (
"304 505 CURVE SMOOTH",
"123 505 OFFCURVE",
"22 347 OFFCURVE",
"22 163 CURVE SMOOTH",
"22 75 OFFCURVE",
"66 -13 OFFCURVE",
"201 -13 CURVE SMOOTH",
"383 -13 OFFCURVE",
"483 141 OFFCURVE",
"483 327 CURVE SMOOTH",
"483 415 OFFCURVE",
"440 505 OFFCURVE"
);
},
{
closed = 1;
nodes = (
"283 393 CURVE SMOOTH",
"306 393 OFFCURVE",
"321 375 OFFCURVE",
"321 334 CURVE SMOOTH",
"321 241 OFFCURVE",
"286 99 OFFCURVE",
"222 99 CURVE SMOOTH",
"198 99 OFFCURVE",
"183 116 OFFCURVE",
"183 156 CURVE SMOOTH",
"183 251 OFFCURVE",
"218 393 OFFCURVE"
);
},
{
closed = 1;
nodes = (
"312 530 LINE",
"312 530 OFFCURVE",
"410 629 OFFCURVE",
"518 681 CURVE",
"487 758 OFFCURVE",
"433 793 OFFCURVE",
"433 793 CURVE",
"326 734 OFFCURVE",
"246 604 OFFCURVE",
"246 604 CURVE"
);
}
);
width = 505;
}
);
leftKerningGroup = o;
rightKerningGroup = o;
unicode = 00F3;
},
{
glyphname = ocircumflex;
lastChange = "2017-07-21 14:56:56 +0000";
layers = (
{
layerId = "3E88664E-E4A1-4C90-B697-57006E853054";
paths = (
{
closed = 1;
nodes = (
"309 502 CURVE SMOOTH",
"130 502 OFFCURVE",
"30 345 OFFCURVE",
"30 156 CURVE SMOOTH",
"30 71 OFFCURVE",
"71 -11 OFFCURVE",
"197 -11 CURVE SMOOTH",
"377 -11 OFFCURVE",
"476 144 OFFCURVE",
"476 335 CURVE SMOOTH",
"476 420 OFFCURVE",
"436 502 OFFCURVE"
);
},
{
closed = 1;
nodes = (
"286 425 CURVE SMOOTH",
"330 425 OFFCURVE",
"357 404 OFFCURVE",
"357 342 CURVE SMOOTH",
"357 232 OFFCURVE",
"308 66 OFFCURVE",
"220 66 CURVE SMOOTH",
"176 66 OFFCURVE",
"149 87 OFFCURVE",
"149 149 CURVE SMOOTH",
"149 260 OFFCURVE",
"198 425 OFFCURVE"
);
},
{
closed = 1;
nodes = (
"202 547 LINE",
"202 547 OFFCURVE",
"264 596 OFFCURVE",
"325 644 CURVE",
"377 587 OFFCURVE",
"441 548 OFFCURVE",
"441 548 CURVE",
"489 593 LINE",
"489 593 OFFCURVE",
"408 694 OFFCURVE",
"351 782 CURVE",
"270 726 OFFCURVE",
"152 595 OFFCURVE",
"152 595 CURVE"
);
}
);
width = 506;
},
{
layerId = "A97BF1D1-A3CC-43F5-9A06-B7BB37BB129E";
paths = (
{
closed = 1;
nodes = (
"304 505 CURVE SMOOTH",
"123 505 OFFCURVE",
"22 347 OFFCURVE",
"22 163 CURVE SMOOTH",
"22 75 OFFCURVE",
"66 -13 OFFCURVE",
"201 -13 CURVE SMOOTH",
"383 -13 OFFCURVE",
"483 141 OFFCURVE",
"483 327 CURVE SMOOTH",
"483 415 OFFCURVE",
"440 505 OFFCURVE"
);
},
{
closed = 1;
nodes = (
"283 393 CURVE SMOOTH",
"306 393 OFFCURVE",
"321 375 OFFCURVE",
"321 334 CURVE SMOOTH",
"321 241 OFFCURVE",
"286 99 OFFCURVE",
"222 99 CURVE SMOOTH",
"198 99 OFFCURVE",
"183 116 OFFCURVE",
"183 156 CURVE SMOOTH",
"183 251 OFFCURVE",
"218 393 OFFCURVE"
);
},
{
closed = 1;
nodes = (
"209 538 LINE",
"209 538 OFFCURVE",
"262 582 OFFCURVE",
"324 630 CURVE",
"378 572 OFFCURVE",
"435 538 OFFCURVE",
"435 538 CURVE",
"508 604 LINE",
"508 604 OFFCURVE",
"424 700 OFFCURVE",
"357 801 CURVE",
"266 740 OFFCURVE",
"135 604 OFFCURVE",
"135 604 CURVE"
);
}
);
width = 505;
}
);
leftKerningGroup = o;
rightKerningGroup = o;
unicode = 00F4;
},
{
glyphname = odieresis;
lastChange = "2017-07-21 14:56:56 +0000";
layers = (
{
layerId = "3E88664E-E4A1-4C90-B697-57006E853054";
paths = (
{
closed = 1;
nodes = (
"309 502 CURVE SMOOTH",
"130 502 OFFCURVE",
"30 345 OFFCURVE",
"30 156 CURVE SMOOTH",
"30 71 OFFCURVE",
"71 -11 OFFCURVE",
"197 -11 CURVE SMOOTH",
"377 -11 OFFCURVE",
"476 144 OFFCURVE",
"476 335 CURVE SMOOTH",
"476 420 OFFCURVE",
"436 502 OFFCURVE"
);
},
{
closed = 1;
nodes = (
"286 425 CURVE SMOOTH",
"330 425 OFFCURVE",
"357 404 OFFCURVE",
"357 342 CURVE SMOOTH",
"357 232 OFFCURVE",
"308 66 OFFCURVE",
"220 66 CURVE SMOOTH",
"176 66 OFFCURVE",
"149 87 OFFCURVE",
"149 149 CURVE SMOOTH",
"149 260 OFFCURVE",
"198 425 OFFCURVE"
);
},
{
closed = 1;
nodes = (
"240 693 CURVE SMOOTH",
"200 693 OFFCURVE",
"175 661 OFFCURVE",
"175 625 CURVE SMOOTH",
"175 592 OFFCURVE",
"192 568 OFFCURVE",
"230 568 CURVE SMOOTH",
"271 568 OFFCURVE",
"297 599 OFFCURVE",
"297 634 CURVE SMOOTH",
"297 670 OFFCURVE",
"279 693 OFFCURVE"
);
},
{
closed = 1;
nodes = (
"430 693 CURVE SMOOTH",
"389 693 OFFCURVE",
"364 661 OFFCURVE",
"364 625 CURVE SMOOTH",
"364 592 OFFCURVE",
"381 568 OFFCURVE",
"420 568 CURVE SMOOTH",
"460 568 OFFCURVE",
"486 599 OFFCURVE",
"486 634 CURVE SMOOTH",
"486 670 OFFCURVE",
"468 693 OFFCURVE"
);
}
);
width = 506;
},
{
layerId = "A97BF1D1-A3CC-43F5-9A06-B7BB37BB129E";
paths = (
{
closed = 1;
nodes = (
"304 505 CURVE SMOOTH",
"123 505 OFFCURVE",
"22 347 OFFCURVE",
"22 163 CURVE SMOOTH",
"22 75 OFFCURVE",
"66 -13 OFFCURVE",
"201 -13 CURVE SMOOTH",
"383 -13 OFFCURVE",
"483 141 OFFCURVE",
"483 327 CURVE SMOOTH",
"483 415 OFFCURVE",
"440 505 OFFCURVE"
);
},
{
closed = 1;
nodes = (
"283 393 CURVE SMOOTH",
"306 393 OFFCURVE",
"321 375 OFFCURVE",
"321 334 CURVE SMOOTH",
"321 241 OFFCURVE",
"286 99 OFFCURVE",
"222 99 CURVE SMOOTH",
"198 99 OFFCURVE",
"183 116 OFFCURVE",
"183 156 CURVE SMOOTH",
"183 251 OFFCURVE",
"218 393 OFFCURVE"
);
},
{
closed = 1;
nodes = (
"226 724 CURVE SMOOTH",
"173 724 OFFCURVE",
"142 687 OFFCURVE",
"142 642 CURVE SMOOTH",
"142 601 OFFCURVE",
"165 572 OFFCURVE",
"215 572 CURVE SMOOTH",
"267 572 OFFCURVE",
"301 609 OFFCURVE",
"301 652 CURVE SMOOTH",
"301 697 OFFCURVE",
"277 724 OFFCURVE"
);
},
{
closed = 1;
nodes = (
"443 724 CURVE SMOOTH",
"390 724 OFFCURVE",
"359 687 OFFCURVE",
"359 642 CURVE SMOOTH",
"359 601 OFFCURVE",
"382 572 OFFCURVE",
"433 572 CURVE SMOOTH",
"485 572 OFFCURVE",
"518 609 OFFCURVE",
"518 652 CURVE SMOOTH",
"518 697 OFFCURVE",
"494 724 OFFCURVE"
);
}
);
width = 505;
}
);
leftKerningGroup = o;
rightKerningGroup = o;
unicode = 00F6;
},
{
glyphname = ograve;
lastChange = "2017-07-21 14:56:56 +0000";
layers = (
{
layerId = "3E88664E-E4A1-4C90-B697-57006E853054";
paths = (
{
closed = 1;
nodes = (
"309 502 CURVE SMOOTH",
"130 502 OFFCURVE",
"30 345 OFFCURVE",
"30 156 CURVE SMOOTH",
"30 71 OFFCURVE",
"71 -11 OFFCURVE",
"197 -11 CURVE SMOOTH",
"377 -11 OFFCURVE",
"476 144 OFFCURVE",
"476 335 CURVE SMOOTH",
"476 420 OFFCURVE",
"436 502 OFFCURVE"
);
},
{
closed = 1;
nodes = (
"286 425 CURVE SMOOTH",
"330 425 OFFCURVE",
"357 404 OFFCURVE",
"357 342 CURVE SMOOTH",
"357 232 OFFCURVE",
"308 66 OFFCURVE",
"220 66 CURVE SMOOTH",
"176 66 OFFCURVE",
"149 87 OFFCURVE",
"149 149 CURVE SMOOTH",
"149 260 OFFCURVE",
"198 425 OFFCURVE"
);
},
{
closed = 1;
nodes = (
"350 585 LINE",
"350 585 OFFCURVE",
"255 675 OFFCURVE",
"211 774 CURVE",
"160 753 OFFCURVE",
"134 713 OFFCURVE",
"134 713 CURVE",
"177 616 OFFCURVE",
"302 540 OFFCURVE",
"302 540 CURVE"
);
}
);
width = 506;
},
{
layerId = "A97BF1D1-A3CC-43F5-9A06-B7BB37BB129E";
paths = (
{
closed = 1;
nodes = (
"304 505 CURVE SMOOTH",
"123 505 OFFCURVE",
"22 347 OFFCURVE",
"22 163 CURVE SMOOTH",
"22 75 OFFCURVE",
"66 -13 OFFCURVE",
"201 -13 CURVE SMOOTH",
"383 -13 OFFCURVE",
"483 141 OFFCURVE",
"483 327 CURVE SMOOTH",
"483 415 OFFCURVE",
"440 505 OFFCURVE"
);
},
{
closed = 1;
nodes = (
"283 393 CURVE SMOOTH",
"306 393 OFFCURVE",
"321 375 OFFCURVE",
"321 334 CURVE SMOOTH",
"321 241 OFFCURVE",
"286 99 OFFCURVE",
"222 99 CURVE SMOOTH",
"198 99 OFFCURVE",
"183 116 OFFCURVE",
"183 156 CURVE SMOOTH",
"183 251 OFFCURVE",
"218 393 OFFCURVE"
);
},
{
closed = 1;
nodes = (
"379 596 LINE",
"379 596 OFFCURVE",
"292 679 OFFCURVE",
"241 793 CURVE",
"161 760 OFFCURVE",
"128 708 OFFCURVE",
"128 708 CURVE",
"184 598 OFFCURVE",
"306 530 OFFCURVE",
"306 530 CURVE"
);
}
);
width = 505;
}
);
leftKerningGroup = o;
rightKerningGroup = o;
unicode = 00F2;
},
{
glyphname = oslash;
lastChange = "2017-07-21 14:56:56 +0000";
layers = (
{
layerId = "3E88664E-E4A1-4C90-B697-57006E853054";
paths = (
{
closed = 1;
nodes = (
"309 502 CURVE SMOOTH",
"130 502 OFFCURVE",
"30 345 OFFCURVE",
"30 156 CURVE SMOOTH",
"30 112 OFFCURVE",
"41 68 OFFCURVE",
"69 37 CURVE",
"32 -20 LINE",
"96 -63 LINE",
"135 -3 LINE",
"153 -8 OFFCURVE",
"173 -11 OFFCURVE",
"197 -11 CURVE SMOOTH",
"377 -11 OFFCURVE",
"476 144 OFFCURVE",
"476 335 CURVE SMOOTH",
"476 379 OFFCURVE",
"465 423 OFFCURVE",
"436 454 CURVE",
"474 511 LINE",
"410 554 LINE",
"370 494 LINE",
"352 499 OFFCURVE",
"332 502 OFFCURVE"
);
},
{
closed = 1;
nodes = (
"286 427 CURVE SMOOTH",
"297 427 OFFCURVE",
"311 426 OFFCURVE",
"324 423 CURVE",
"144 149 LINE",
"144 261 OFFCURVE",
"198 427 OFFCURVE"
);
},
{
closed = 1;
nodes = (
"220 64 CURVE SMOOTH",
"208 64 OFFCURVE",
"195 65 OFFCURVE",
"181 67 CURVE",
"362 341 LINE",
"362 230 OFFCURVE",
"307 64 OFFCURVE"
);
}
);
width = 506;
},
{
layerId = "A97BF1D1-A3CC-43F5-9A06-B7BB37BB129E";
paths = (
{
closed = 1;
nodes = (
"304 505 CURVE SMOOTH",
"123 505 OFFCURVE",
"22 347 OFFCURVE",
"22 163 CURVE SMOOTH",
"22 116 OFFCURVE",
"34 69 OFFCURVE",
"67 35 CURVE",
"30 -19 LINE",
"95 -63 LINE",
"134 -4 LINE",
"153 -9 OFFCURVE",
"175 -13 OFFCURVE",
"201 -13 CURVE SMOOTH",
"383 -13 OFFCURVE",
"483 141 OFFCURVE",
"483 327 CURVE SMOOTH",
"483 374 OFFCURVE",
"470 423 OFFCURVE",
"437 457 CURVE",
"472 511 LINE",
"408 554 LINE",
"369 496 LINE",
"350 501 OFFCURVE",
"328 505 OFFCURVE"
);
},
{
closed = 1;
nodes = (
"283 397 CURVE SMOOTH",
"289 397 OFFCURVE",
"296 396 OFFCURVE",
"301 393 CURVE",
"185 216 LINE",
"192 300 OFFCURVE",
"224 397 OFFCURVE"
);
},
{
closed = 1;
nodes = (
"222 95 CURVE SMOOTH",
"215 95 OFFCURVE",
"208 96 OFFCURVE",
"202 99 CURVE",
"319 277 LINE",
"312 193 OFFCURVE",
"280 95 OFFCURVE"
);
}
);
width = 505;
}
);
leftKerningGroup = o;
rightKerningGroup = o;
unicode = 00F8;
},
{
glyphname = otilde;
lastChange = "2017-07-21 14:56:56 +0000";
layers = (
{
layerId = "3E88664E-E4A1-4C90-B697-57006E853054";
paths = (
{
closed = 1;
nodes = (
"309 502 CURVE SMOOTH",
"130 502 OFFCURVE",
"30 345 OFFCURVE",
"30 156 CURVE SMOOTH",
"30 71 OFFCURVE",
"71 -11 OFFCURVE",
"197 -11 CURVE SMOOTH",
"377 -11 OFFCURVE",
"476 144 OFFCURVE",
"476 335 CURVE SMOOTH",
"476 420 OFFCURVE",
"436 502 OFFCURVE"
);
},
{
closed = 1;
nodes = (
"286 425 CURVE SMOOTH",
"330 425 OFFCURVE",
"357 404 OFFCURVE",
"357 342 CURVE SMOOTH",
"357 232 OFFCURVE",
"308 66 OFFCURVE",
"220 66 CURVE SMOOTH",
"176 66 OFFCURVE",
"149 87 OFFCURVE",
"149 149 CURVE SMOOTH",
"149 260 OFFCURVE",
"198 425 OFFCURVE"
);
},
{
closed = 1;
nodes = (
"492 684 LINE",
"492 684 OFFCURVE",
"456 670 OFFCURVE",
"412 670 CURVE SMOOTH",
"365 670 OFFCURVE",
"314 690 OFFCURVE",
"267 690 CURVE SMOOTH",
"223 690 OFFCURVE",
"186 667 OFFCURVE",
"186 667 CURVE",
"172 593 LINE",
"172 593 OFFCURVE",
"207 607 OFFCURVE",
"251 607 CURVE SMOOTH",
"298 607 OFFCURVE",
"349 587 OFFCURVE",
"396 587 CURVE SMOOTH",
"440 587 OFFCURVE",
"477 610 OFFCURVE",
"477 610 CURVE"
);
}
);
width = 506;
},
{
layerId = "A97BF1D1-A3CC-43F5-9A06-B7BB37BB129E";
paths = (
{
closed = 1;
nodes = (
"304 505 CURVE SMOOTH",
"123 505 OFFCURVE",
"22 347 OFFCURVE",
"22 163 CURVE SMOOTH",
"22 75 OFFCURVE",
"66 -13 OFFCURVE",
"201 -13 CURVE SMOOTH",
"383 -13 OFFCURVE",
"483 141 OFFCURVE",
"483 327 CURVE SMOOTH",
"483 415 OFFCURVE",
"440 505 OFFCURVE"
);
},
{
closed = 1;
nodes = (
"283 393 CURVE SMOOTH",
"306 393 OFFCURVE",
"321 375 OFFCURVE",
"321 334 CURVE SMOOTH",
"321 241 OFFCURVE",
"286 99 OFFCURVE",
"222 99 CURVE SMOOTH",
"198 99 OFFCURVE",
"183 116 OFFCURVE",
"183 156 CURVE SMOOTH",
"183 251 OFFCURVE",
"218 393 OFFCURVE"
);
},
{
closed = 1;
nodes = (
"502 723 LINE",
"502 723 OFFCURVE",
"452 707 OFFCURVE",
"408 707 CURVE SMOOTH",
"354 707 OFFCURVE",
"317 729 OFFCURVE",
"270 729 CURVE SMOOTH",
"216 729 OFFCURVE",
"173 704 OFFCURVE",
"173 704 CURVE",
"152 601 LINE",
"152 601 OFFCURVE",
"202 617 OFFCURVE",
"246 617 CURVE SMOOTH",
"301 617 OFFCURVE",
"338 595 OFFCURVE",
"385 595 CURVE SMOOTH",
"438 595 OFFCURVE",
"481 620 OFFCURVE",
"481 620 CURVE"
);
}
);
width = 505;
}
);
leftKerningGroup = o;
rightKerningGroup = o;
unicode = 00F5;
},
{
glyphname = oe;
lastChange = "2017-07-21 14:56:56 +0000";
layers = (
{
layerId = "3E88664E-E4A1-4C90-B697-57006E853054";
paths = (
{
closed = 1;
nodes = (
"309 502 CURVE SMOOTH",
"130 502 OFFCURVE",
"30 345 OFFCURVE",
"30 156 CURVE SMOOTH",
"30 71 OFFCURVE",
"71 -11 OFFCURVE",
"197 -11 CURVE SMOOTH",
"273 -11 OFFCURVE",
"331 16 OFFCURVE",
"374 64 CURVE",
"392 20 OFFCURVE",
"431 -11 OFFCURVE",
"509 -11 CURVE SMOOTH",
"606 -11 OFFCURVE",
"707 39 OFFCURVE",
"707 39 CURVE",
"684 111 LINE",
"684 111 OFFCURVE",
"584 70 OFFCURVE",
"532 70 CURVE SMOOTH",
"488 70 OFFCURVE",
"459 91 OFFCURVE",
"459 153 CURVE SMOOTH",
"459 164 OFFCURVE",
"459 176 OFFCURVE",
"460 188 CURVE",
"638 197 OFFCURVE",
"765 278 OFFCURVE",
"765 394 CURVE SMOOTH",
"765 460 OFFCURVE",
"724 502 OFFCURVE",
"621 502 CURVE SMOOTH",
"545 502 OFFCURVE",
"485 473 OFFCURVE",
"442 425 CURVE",
"425 470 OFFCURVE",
"388 502 OFFCURVE"
);
},
{
closed = 1;
nodes = (
"286 425 CURVE SMOOTH",
"330 425 OFFCURVE",
"357 404 OFFCURVE",
"357 342 CURVE SMOOTH",
"357 232 OFFCURVE",
"308 66 OFFCURVE",
"220 66 CURVE SMOOTH",
"176 66 OFFCURVE",
"149 87 OFFCURVE",
"149 149 CURVE SMOOTH",
"149 260 OFFCURVE",
"198 425 OFFCURVE"
);
},
{
closed = 1;
nodes = (
"598 425 CURVE SMOOTH",
"636 425 OFFCURVE",
"652 407 OFFCURVE",
"652 376 CURVE SMOOTH",
"652 329 OFFCURVE",
"591 267 OFFCURVE",
"472 260 CURVE",
"493 346 OFFCURVE",
"536 425 OFFCURVE"
);
}
);
width = 769;
},
{
layerId = "A97BF1D1-A3CC-43F5-9A06-B7BB37BB129E";
paths = (
{
closed = 1;
nodes = (
"304 505 CURVE SMOOTH",
"123 505 OFFCURVE",
"22 347 OFFCURVE",
"22 163 CURVE SMOOTH",
"22 75 OFFCURVE",
"66 -13 OFFCURVE",
"201 -13 CURVE SMOOTH",
"265 -13 OFFCURVE",
"317 7 OFFCURVE",
"357 41 CURVE",
"381 9 OFFCURVE",
"420 -13 OFFCURVE",
"486 -13 CURVE SMOOTH",
"582 -13 OFFCURVE",
"698 44 OFFCURVE",
"698 44 CURVE",
"664 146 LINE",
"664 146 OFFCURVE",
"552 105 OFFCURVE",
"514 105 CURVE SMOOTH",
"486 105 OFFCURVE",
"466 119 OFFCURVE",
"466 152 CURVE SMOOTH",
"466 159 OFFCURVE",
"466 169 OFFCURVE",
"467 174 CURVE",
"631 189 OFFCURVE",
"747 269 OFFCURVE",
"747 382 CURVE SMOOTH",
"747 455 OFFCURVE",
"701 505 OFFCURVE",
"588 505 CURVE SMOOTH",
"524 505 OFFCURVE",
"472 484 OFFCURVE",
"432 449 CURVE",
"410 483 OFFCURVE",
"370 505 OFFCURVE"
);
},
{
closed = 1;
nodes = (
"283 393 CURVE SMOOTH",
"306 393 OFFCURVE",
"321 375 OFFCURVE",
"321 334 CURVE SMOOTH",
"321 241 OFFCURVE",
"286 99 OFFCURVE",
"222 99 CURVE SMOOTH",
"198 99 OFFCURVE",
"183 116 OFFCURVE",
"183 156 CURVE SMOOTH",
"183 251 OFFCURVE",
"218 393 OFFCURVE"
);
},
{
closed = 1;
nodes = (
"565 389 CURVE SMOOTH",
"584 389 OFFCURVE",
"594 380 OFFCURVE",
"594 362 CURVE SMOOTH",
"594 332 OFFCURVE",
"555 292 OFFCURVE",
"482 283 CURVE",
"499 345 OFFCURVE",
"530 389 OFFCURVE"
);
}
);
width = 754;
}
);
leftKerningGroup = o;
rightKerningGroup = e;
unicode = 0153;
},
{
glyphname = p;
lastChange = "2017-07-21 14:56:56 +0000";
layers = (
{
layerId = "3E88664E-E4A1-4C90-B697-57006E853054";
paths = (
{
closed = 1;
nodes = (
"-5 -222 LINE",
"108 -202 LINE",
"148 1 LINE",
"171 -4 OFFCURVE",
"197 -8 OFFCURVE",
"224 -8 CURVE SMOOTH",
"404 -8 OFFCURVE",
"505 144 OFFCURVE",
"505 333 CURVE SMOOTH",
"505 416 OFFCURVE",
"467 498 OFFCURVE",
"372 498 CURVE SMOOTH",
"302 498 OFFCURVE",
"241 466 OFFCURVE",
"195 360 CURVE SMOOTH",
"182 331 LINE",
"185 351 OFFCURVE",
"190 394 OFFCURVE",
"190 415 CURVE SMOOTH",
"190 456 OFFCURVE",
"179 482 OFFCURVE",
"164 500 CURVE",
"73 464 LINE",
"79 454 OFFCURVE",
"98 424 OFFCURVE",
"98 351 CURVE SMOOTH",
"98 324 OFFCURVE",
"95 291 OFFCURVE",
"87 252 CURVE SMOOTH"
);
},
{
closed = 1;
nodes = (
"163 79 CURVE",
"168 101 LINE SMOOTH",
"210 286 OFFCURVE",
"267 416 OFFCURVE",
"335 416 CURVE SMOOTH",
"369 416 OFFCURVE",
"386 395 OFFCURVE",
"386 337 CURVE SMOOTH",
"386 222 OFFCURVE",
"341 69 OFFCURVE",
"222 69 CURVE SMOOTH",
"205 69 OFFCURVE",
"183 72 OFFCURVE"
);
}
);
width = 535;
},
{
layerId = "A97BF1D1-A3CC-43F5-9A06-B7BB37BB129E";
paths = (
{
closed = 1;
nodes = (
"-13 -222 LINE",
"143 -202 LINE",
"181 -5 LINE",
"195 -7 OFFCURVE",
"211 -9 OFFCURVE",
"228 -9 CURVE SMOOTH",
"414 -9 OFFCURVE",
"515 139 OFFCURVE",
"515 330 CURVE SMOOTH",
"515 411 OFFCURVE",
"478 502 OFFCURVE",
"378 502 CURVE SMOOTH",
"316 502 OFFCURVE",
"261 470 OFFCURVE",
"218 377 CURVE SMOOTH",
"205 349 LINE",
"211 389 OFFCURVE",
"212 407 OFFCURVE",
"212 421 CURVE SMOOTH",
"212 453 OFFCURVE",
"203 483 OFFCURVE",
"184 504 CURVE",
"58 455 LINE",
"66 442 OFFCURVE",
"89 404 OFFCURVE",
"89 342 CURVE SMOOTH",
"89 318 OFFCURVE",
"86 289 OFFCURVE",
"79 256 CURVE SMOOTH"
);
},
{
closed = 1;
nodes = (
"204 110 CURVE",
"212 143 LINE SMOOTH",
"240 261 OFFCURVE",
"289 384 OFFCURVE",
"330 384 CURVE SMOOTH",
"349 384 OFFCURVE",
"353 361 OFFCURVE",
"353 333 CURVE SMOOTH",
"353 263 OFFCURVE",
"327 106 OFFCURVE",
"235 106 CURVE SMOOTH",
"222 106 OFFCURVE",
"214 107 OFFCURVE"
);
}
);
width = 537;
}
);
leftKerningGroup = n;
rightKerningGroup = o;
unicode = 0070;
},
{
glyphname = thorn;
lastChange = "2017-07-21 14:56:56 +0000";
layers = (
{
layerId = "3E88664E-E4A1-4C90-B697-57006E853054";
paths = (
{
closed = 1;
nodes = (
"201 394 CURVE",
"218 446 OFFCURVE",
"239 515 OFFCURVE",
"247 556 CURVE SMOOTH",
"278 725 LINE",
"165 705 LINE",
"-15 -222 LINE",
"98 -202 LINE",
"138 1 LINE",
"161 -4 OFFCURVE",
"187 -8 OFFCURVE",
"214 -8 CURVE SMOOTH",
"394 -8 OFFCURVE",
"495 144 OFFCURVE",
"495 333 CURVE SMOOTH",
"495 416 OFFCURVE",
"457 498 OFFCURVE",
"362 498 CURVE SMOOTH",
"299 498 OFFCURVE",
"245 472 OFFCURVE"
);
},
{
closed = 1;
nodes = (
"158 100 LINE SMOOTH",
"195 255 OFFCURVE",
"257 416 OFFCURVE",
"325 416 CURVE SMOOTH",
"359 416 OFFCURVE",
"376 395 OFFCURVE",
"376 337 CURVE SMOOTH",
"376 222 OFFCURVE",
"331 69 OFFCURVE",
"212 69 CURVE SMOOTH",
"195 69 OFFCURVE",
"173 72 OFFCURVE",
"153 79 CURVE"
);
}
);
width = 525;
},
{
layerId = "A97BF1D1-A3CC-43F5-9A06-B7BB37BB129E";
paths = (
{
closed = 1;
nodes = (
"202 364 CURVE",
"247 472 OFFCURVE",
"277 528 OFFCURVE",
"292 611 CURVE SMOOTH",
"313 725 LINE",
"157 705 LINE",
"-23 -222 LINE",
"133 -202 LINE",
"171 -5 LINE",
"185 -7 OFFCURVE",
"201 -9 OFFCURVE",
"218 -9 CURVE SMOOTH",
"404 -9 OFFCURVE",
"505 139 OFFCURVE",
"505 330 CURVE SMOOTH",
"505 411 OFFCURVE",
"468 502 OFFCURVE",
"368 502 CURVE SMOOTH",
"311 502 OFFCURVE",
"259 470 OFFCURVE"
);
},
{
closed = 1;
nodes = (
"202 143 LINE SMOOTH",
"229 253 OFFCURVE",
"279 384 OFFCURVE",
"320 384 CURVE SMOOTH",
"339 384 OFFCURVE",
"343 361 OFFCURVE",
"343 333 CURVE SMOOTH",
"343 263 OFFCURVE",
"317 106 OFFCURVE",
"225 106 CURVE SMOOTH",
"212 106 OFFCURVE",
"204 107 OFFCURVE",
"194 110 CURVE"
);
}
);
width = 527;
}
);
leftKerningGroup = b;
rightKerningGroup = o;
unicode = 00FE;
},
{
glyphname = q;
lastChange = "2017-07-21 14:56:56 +0000";
layers = (
{
layerId = "3E88664E-E4A1-4C90-B697-57006E853054";
paths = (
{
closed = 1;
nodes = (
"30 157 CURVE SMOOTH",
"30 74 OFFCURVE",
"68 -8 OFFCURVE",
"163 -8 CURVE SMOOTH",
"221 -8 OFFCURVE",
"274 14 OFFCURVE",
"316 83 CURVE",
"300 34 OFFCURVE",
"282 -23 OFFCURVE",
"274 -68 CURVE SMOOTH",
"244 -222 LINE",
"356 -202 LINE",
"487 448 LINE",
"493 470 LINE",
"434 474 LINE",
"402 486 OFFCURVE",
"358 498 OFFCURVE",
"311 498 CURVE SMOOTH",
"131 498 OFFCURVE",
"30 346 OFFCURVE"
);
},
{
closed = 1;
nodes = (
"200 74 CURVE SMOOTH",
"166 74 OFFCURVE",
"149 95 OFFCURVE",
"149 153 CURVE SMOOTH",
"149 268 OFFCURVE",
"193 421 OFFCURVE",
"313 421 CURVE SMOOTH",
"327 421 OFFCURVE",
"349 418 OFFCURVE",
"368 412 CURVE",
"353 331 LINE SMOOTH",
"328 196 OFFCURVE",
"258 74 OFFCURVE"
);
}
);
width = 518;
},
{
layerId = "A97BF1D1-A3CC-43F5-9A06-B7BB37BB129E";
paths = (
{
closed = 1;
nodes = (
"22 163 CURVE SMOOTH",
"22 81 OFFCURVE",
"59 -9 OFFCURVE",
"159 -9 CURVE SMOOTH",
"212 -9 OFFCURVE",
"257 20 OFFCURVE",
"292 78 CURVE",
"270 22 OFFCURVE",
"253 -24 OFFCURVE",
"244 -69 CURVE SMOOTH",
"214 -222 LINE",
"372 -202 LINE",
"497 447 LINE",
"504 473 LINE",
"424 478 LINE",
"392 492 OFFCURVE",
"359 502 OFFCURVE",
"309 502 CURVE SMOOTH",
"123 502 OFFCURVE",
"22 354 OFFCURVE"
);
},
{
closed = 1;
nodes = (
"207 109 CURVE SMOOTH",
"188 109 OFFCURVE",
"184 132 OFFCURVE",
"184 160 CURVE SMOOTH",
"184 230 OFFCURVE",
"210 387 OFFCURVE",
"302 387 CURVE SMOOTH",
"315 387 OFFCURVE",
"322 385 OFFCURVE",
"332 383 CURVE",
"321 335 LINE SMOOTH",
"298 230 OFFCURVE",
"246 109 OFFCURVE"
);
}
);
width = 522;
}
);
leftKerningGroup = o;
unicode = 0071;
},
{
glyphname = r;
lastChange = "2017-07-21 14:56:56 +0000";
layers = (
{
layerId = "3E88664E-E4A1-4C90-B697-57006E853054";
paths = (
{
closed = 1;
nodes = (
"413 458 LINE",
"397 482 OFFCURVE",
"370 499 OFFCURVE",
"325 499 CURVE SMOOTH",
"251 499 OFFCURVE",
"208 440 OFFCURVE",
"180 320 CURVE",
"183 351 OFFCURVE",
"189 387 OFFCURVE",
"189 415 CURVE SMOOTH",
"189 456 OFFCURVE",
"178 482 OFFCURVE",
"163 500 CURVE",
"72 464 LINE",
"78 454 OFFCURVE",
"97 424 OFFCURVE",
"97 351 CURVE SMOOTH",
"97 324 OFFCURVE",
"94 291 OFFCURVE",
"86 252 CURVE SMOOTH",
"35 0 LINE",
"147 0 LINE",
"195 245 LINE",
"217 321 OFFCURVE",
"254 397 OFFCURVE",
"291 397 CURVE SMOOTH",
"321 397 OFFCURVE",
"338 383 OFFCURVE",
"355 365 CURVE"
);
}
);
width = 378;
},
{
layerId = "A97BF1D1-A3CC-43F5-9A06-B7BB37BB129E";
paths = (
{
closed = 1;
nodes = (
"450 465 LINE",
"426 492 OFFCURVE",
"393 502 OFFCURVE",
"354 502 CURVE SMOOTH",
"283 502 OFFCURVE",
"238 460 OFFCURVE",
"204 346 CURVE",
"209 389 OFFCURVE",
"211 406 OFFCURVE",
"211 421 CURVE SMOOTH",
"211 453 OFFCURVE",
"202 483 OFFCURVE",
"183 504 CURVE",
"57 455 LINE",
"65 442 OFFCURVE",
"88 404 OFFCURVE",
"88 342 CURVE SMOOTH",
"88 318 OFFCURVE",
"85 289 OFFCURVE",
"78 256 CURVE SMOOTH",
"27 0 LINE",
"182 0 LINE",
"230 244 LINE",
"243 303 OFFCURVE",
"273 364 OFFCURVE",
"311 364 CURVE SMOOTH",
"338 364 OFFCURVE",
"354 350 OFFCURVE",
"368 335 CURVE"
);
}
);
width = 407;
}
);
leftKerningGroup = n;
unicode = 0072;
},
{
glyphname = s;
lastChange = "2017-07-21 14:56:56 +0000";
layers = (
{
layerId = "3E88664E-E4A1-4C90-B697-57006E853054";
paths = (
{
closed = 1;
nodes = (
"257 502 CURVE SMOOTH",
"340 502 OFFCURVE",
"379 458 OFFCURVE",
"389 407 CURVE",
"306 374 LINE",
"296 399 OFFCURVE",
"292 426 OFFCURVE",
"249 426 CURVE SMOOTH",
"204 426 OFFCURVE",
"186 395 OFFCURVE",
"186 368 CURVE SMOOTH",
"186 331 OFFCURVE",
"218 308 OFFCURVE",
"240 296 CURVE SMOOTH",
"269 280 LINE SMOOTH",
"313 256 OFFCURVE",
"352 228 OFFCURVE",
"352 146 CURVE SMOOTH",
"352 60 OFFCURVE",
"286 -11 OFFCURVE",
"159 -11 CURVE SMOOTH",
"74 -11 OFFCURVE",
"-5 37 OFFCURVE",
"-5 37 CURVE",
"39 116 LINE",
"39 116 OFFCURVE",
"112 70 OFFCURVE",
"162 70 CURVE SMOOTH",
"212 70 OFFCURVE",
"237 96 OFFCURVE",
"237 127 CURVE SMOOTH",
"237 172 OFFCURVE",
"208 192 OFFCURVE",
"176 209 CURVE SMOOTH",
"151 222 LINE SMOOTH",
"119 239 OFFCURVE",
"70 265 OFFCURVE",
"70 351 CURVE SMOOTH",
"70 436 OFFCURVE",
"134 502 OFFCURVE"
);
}
);
width = 415;
},
{
layerId = "A97BF1D1-A3CC-43F5-9A06-B7BB37BB129E";
paths = (
{
closed = 1;
nodes = (
"258 505 CURVE SMOOTH",
"350 505 OFFCURVE",
"396 465 OFFCURVE",
"408 385 CURVE",
"294 346 LINE",
"287 370 OFFCURVE",
"286 394 OFFCURVE",
"253 394 CURVE SMOOTH",
"227 394 OFFCURVE",
"220 372 OFFCURVE",
"220 358 CURVE SMOOTH",
"220 333 OFFCURVE",
"241 318 OFFCURVE",
"256 309 CURVE SMOOTH",
"282 294 LINE SMOOTH",
"329 266 OFFCURVE",
"372 239 OFFCURVE",
"372 154 CURVE SMOOTH",
"372 64 OFFCURVE",
"303 -13 OFFCURVE",
"169 -13 CURVE SMOOTH",
"82 -13 OFFCURVE",
"-13 45 OFFCURVE",
"-13 45 CURVE",
"49 157 LINE",
"49 157 OFFCURVE",
"122 103 OFFCURVE",
"164 103 CURVE SMOOTH",
"198 103 OFFCURVE",
"214 118 OFFCURVE",
"214 141 CURVE SMOOTH",
"214 167 OFFCURVE",
"201 183 OFFCURVE",
"173 197 CURVE SMOOTH",
"140 214 LINE SMOOTH",
"106 231 OFFCURVE",
"62 264 OFFCURVE",
"62 349 CURVE SMOOTH",
"62 439 OFFCURVE",
"129 505 OFFCURVE"
);
}
);
width = 425;
}
);
unicode = 0073;
},
{
glyphname = germandbls;
lastChange = "2017-07-21 14:56:56 +0000";
layers = (
{
layerId = "3E88664E-E4A1-4C90-B697-57006E853054";
paths = (
{
closed = 1;
nodes = (
"18 13 LINE SMOOTH",
"2 -73 OFFCURVE",
"-43 -107 OFFCURVE",
"-130 -147 CURVE",
"-92 -223 LINE",
"20 -167 OFFCURVE",
"100 -120 OFFCURVE",
"128 24 CURVE SMOOTH",
"219 486 LINE",
"235 567 OFFCURVE",
"267 639 OFFCURVE",
"345 639 CURVE SMOOTH",
"382 639 OFFCURVE",
"414 624 OFFCURVE",
"414 584 CURVE SMOOTH",
"414 504 OFFCURVE",
"266 486 OFFCURVE",
"266 354 CURVE SMOOTH",
"266 247 OFFCURVE",
"370 236 OFFCURVE",
"370 160 CURVE SMOOTH",
"370 114 OFFCURVE",
"344 79 OFFCURVE",
"291 79 CURVE SMOOTH",
"261 79 OFFCURVE",
"228 89 OFFCURVE",
"203 105 CURVE",
"163 28 LINE",
"193 7 OFFCURVE",
"230 -7 OFFCURVE",
"274 -7 CURVE SMOOTH",
"399 -7 OFFCURVE",
"486 79 OFFCURVE",
"486 193 CURVE SMOOTH",
"486 300 OFFCURVE",
"375 319 OFFCURVE",
"375 389 CURVE SMOOTH",
"375 461 OFFCURVE",
"526 480 OFFCURVE",
"526 611 CURVE SMOOTH",
"526 673 OFFCURVE",
"483 721 OFFCURVE",
"379 721 CURVE SMOOTH",
"206 721 OFFCURVE",
"132 608 OFFCURVE",
"107 479 CURVE SMOOTH"
);
}
);
width = 531;
},
{
layerId = "A97BF1D1-A3CC-43F5-9A06-B7BB37BB129E";
paths = (
{
closed = 1;
nodes = (
"21 48 LINE SMOOTH",
"5 -35 OFFCURVE",
"-36 -75 OFFCURVE",
"-123 -115 CURVE",
"-67 -223 LINE",
"56 -162 OFFCURVE",
"148 -105 OFFCURVE",
"178 50 CURVE SMOOTH",
"263 493 LINE",
"277 565 OFFCURVE",
"309 604 OFFCURVE",
"370 604 CURVE SMOOTH",
"400 604 OFFCURVE",
"419 591 OFFCURVE",
"419 567 CURVE SMOOTH",
"419 505 OFFCURVE",
"279 486 OFFCURVE",
"279 354 CURVE SMOOTH",
"279 247 OFFCURVE",
"383 236 OFFCURVE",
"383 167 CURVE SMOOTH",
"383 133 OFFCURVE",
"361 113 OFFCURVE",
"320 113 CURVE SMOOTH",
"302 113 OFFCURVE",
"279 117 OFFCURVE",
"254 133 CURVE",
"199 28 LINE",
"236 2 OFFCURVE",
"290 -7 OFFCURVE",
"334 -7 CURVE SMOOTH",
"459 -7 OFFCURVE",
"546 83 OFFCURVE",
"546 189 CURVE SMOOTH",
"546 303 OFFCURVE",
"435 324 OFFCURVE",
"435 389 CURVE SMOOTH",
"435 453 OFFCURVE",
"578 469 OFFCURVE",
"578 603 CURVE SMOOTH",
"578 670 OFFCURVE",
"534 725 OFFCURVE",
"408 725 CURVE SMOOTH",
"214 725 OFFCURVE",
"131 624 OFFCURVE",
"103 479 CURVE SMOOTH"
);
}
);
width = 583;
}
);
unicode = 00DF;
},
{
glyphname = t;
lastChange = "2017-07-21 14:56:56 +0000";
layers = (
{
layerId = "3E88664E-E4A1-4C90-B697-57006E853054";
paths = (
{
closed = 1;
nodes = (
"50 409 LINE",
"135 409 LINE",
"74 104 LINE SMOOTH",
"72 94 OFFCURVE",
"71 85 OFFCURVE",
"71 76 CURVE SMOOTH",
"71 22 OFFCURVE",
"102 -8 OFFCURVE",
"182 -8 CURVE SMOOTH",
"253 -8 OFFCURVE",
"309 16 OFFCURVE",
"309 16 CURVE",
"309 91 LINE",
"309 91 OFFCURVE",
"261 74 OFFCURVE",
"224 74 CURVE SMOOTH",
"195 74 OFFCURVE",
"186 81 OFFCURVE",
"186 99 CURVE SMOOTH",
"186 103 OFFCURVE",
"187 108 OFFCURVE",
"188 114 CURVE SMOOTH",
"244 409 LINE",
"358 409 LINE",
"372 490 LINE",
"260 490 LINE",
"289 636 LINE",
"194 615 LINE",
"150 490 LINE",
"50 490 LINE"
);
}
);
width = 363;
},
{
layerId = "A97BF1D1-A3CC-43F5-9A06-B7BB37BB129E";
paths = (
{
closed = 1;
nodes = (
"42 374 LINE",
"116 374 LINE",
"66 127 LINE SMOOTH",
"64 115 OFFCURVE",
"62 99 OFFCURVE",
"62 89 CURVE SMOOTH",
"62 27 OFFCURVE",
"97 -7 OFFCURVE",
"189 -7 CURVE SMOOTH",
"270 -7 OFFCURVE",
"332 16 OFFCURVE",
"332 16 CURVE",
"332 129 LINE",
"332 129 OFFCURVE",
"278 112 OFFCURVE",
"253 112 CURVE SMOOTH",
"230 112 OFFCURVE",
"224 119 OFFCURVE",
"224 132 CURVE SMOOTH",
"224 139 OFFCURVE",
"225 155 OFFCURVE",
"227 162 CURVE SMOOTH",
"269 374 LINE",
"375 374 LINE",
"393 490 LINE",
"291 490 LINE",
"320 636 LINE",
"181 605 LINE",
"140 490 LINE",
"42 490 LINE"
);
}
);
width = 376;
}
);
unicode = 0074;
},
{
glyphname = u;
lastChange = "2017-07-21 14:56:56 +0000";
layers = (
{
anchors = (
{
name = top;
position = "{316, 498}";
}
);
layerId = "3E88664E-E4A1-4C90-B697-57006E853054";
paths = (
{
closed = 1;
nodes = (
"101 403 CURVE SMOOTH",
"101 309 OFFCURVE",
"35 219 OFFCURVE",
"35 114 CURVE SMOOTH",
"35 40 OFFCURVE",
"74 -8 OFFCURVE",
"162 -8 CURVE SMOOTH",
"242 -8 OFFCURVE",
"309 37 OFFCURVE",
"349 129 CURVE SMOOTH",
"366 169 LINE",
"362 135 OFFCURVE",
"359 107 OFFCURVE",
"359 89 CURVE SMOOTH",
"359 47 OFFCURVE",
"373 13 OFFCURVE",
"393 -10 CURVE",
"484 26 LINE",
"469 48 OFFCURVE",
"447 80 OFFCURVE",
"447 145 CURVE SMOOTH",
"447 172 OFFCURVE",
"450 199 OFFCURVE",
"458 238 CURVE SMOOTH",
"511 490 LINE",
"399 490 LINE",
"368 331 LINE",
"347 221 OFFCURVE",
"275 82 OFFCURVE",
"203 82 CURVE SMOOTH",
"162 82 OFFCURVE",
"149 107 OFFCURVE",
"149 139 CURVE SMOOTH",
"149 226 OFFCURVE",
"209 303 OFFCURVE",
"209 396 CURVE SMOOTH",
"209 428 OFFCURVE",
"204 468 OFFCURVE",
"190 497 CURVE",
"95 473 LINE",
"99 459 OFFCURVE",
"101 430 OFFCURVE"
);
}
);
width = 546;
},
{
anchors = (
{
name = top;
position = "{316, 498}";
}
);
layerId = "A97BF1D1-A3CC-43F5-9A06-B7BB37BB129E";
paths = (
{
closed = 1;
nodes = (
"84 391 CURVE SMOOTH",
"84 313 OFFCURVE",
"27 220 OFFCURVE",
"27 115 CURVE SMOOTH",
"27 35 OFFCURVE",
"65 -9 OFFCURVE",
"152 -9 CURVE SMOOTH",
"231 -9 OFFCURVE",
"288 30 OFFCURVE",
"329 118 CURVE SMOOTH",
"342 146 LINE",
"337 103 OFFCURVE",
"336 88 OFFCURVE",
"336 75 CURVE SMOOTH",
"336 43 OFFCURVE",
"346 11 OFFCURVE",
"366 -12 CURVE",
"492 38 LINE",
"482 54 OFFCURVE",
"458 92 OFFCURVE",
"458 152 CURVE SMOOTH",
"458 176 OFFCURVE",
"461 204 OFFCURVE",
"468 237 CURVE SMOOTH",
"518 490 LINE",
"364 490 LINE",
"333 331 LINE",
"315 239 OFFCURVE",
"258 119 OFFCURVE",
"207 119 CURVE SMOOTH",
"190 119 OFFCURVE",
"184 132 OFFCURVE",
"184 149 CURVE SMOOTH",
"184 225 OFFCURVE",
"236 304 OFFCURVE",
"236 385 CURVE SMOOTH",
"236 415 OFFCURVE",
"229 458 OFFCURVE",
"208 501 CURVE",
"74 468 LINE",
"81 445 OFFCURVE",
"84 413 OFFCURVE"
);
}
);
width = 547;
}
);
leftKerningGroup = u;
rightKerningGroup = u;
unicode = 0075;
},
{
glyphname = uacute;
lastChange = "2017-07-21 14:56:56 +0000";
layers = (
{
layerId = "3E88664E-E4A1-4C90-B697-57006E853054";
paths = (
{
closed = 1;
nodes = (
"101 403 CURVE SMOOTH",
"101 309 OFFCURVE",
"35 219 OFFCURVE",
"35 114 CURVE SMOOTH",
"35 40 OFFCURVE",
"74 -8 OFFCURVE",
"162 -8 CURVE SMOOTH",
"242 -8 OFFCURVE",
"309 37 OFFCURVE",
"349 129 CURVE SMOOTH",
"366 169 LINE",
"362 135 OFFCURVE",
"359 107 OFFCURVE",
"359 89 CURVE SMOOTH",
"359 47 OFFCURVE",
"373 13 OFFCURVE",
"393 -10 CURVE",
"484 26 LINE",
"469 48 OFFCURVE",
"447 80 OFFCURVE",
"447 145 CURVE SMOOTH",
"447 172 OFFCURVE",
"450 199 OFFCURVE",
"458 238 CURVE SMOOTH",
"511 490 LINE",
"399 490 LINE",
"368 331 LINE",
"347 221 OFFCURVE",
"275 82 OFFCURVE",
"203 82 CURVE SMOOTH",
"162 82 OFFCURVE",
"149 107 OFFCURVE",
"149 139 CURVE SMOOTH",
"149 226 OFFCURVE",
"209 303 OFFCURVE",
"209 396 CURVE SMOOTH",
"209 428 OFFCURVE",
"204 468 OFFCURVE",
"190 497 CURVE",
"95 473 LINE",
"99 459 OFFCURVE",
"101 430 OFFCURVE"
);
},
{
closed = 1;
nodes = (
"324 535 LINE",
"324 535 OFFCURVE",
"440 651 OFFCURVE",
"516 701 CURVE",
"503 736 OFFCURVE",
"453 770 OFFCURVE",
"453 770 CURVE",
"373 713 OFFCURVE",
"279 587 OFFCURVE",
"279 587 CURVE"
);
}
);
width = 546;
},
{
layerId = "A97BF1D1-A3CC-43F5-9A06-B7BB37BB129E";
paths = (
{
closed = 1;
nodes = (
"84 391 CURVE SMOOTH",
"84 313 OFFCURVE",
"27 220 OFFCURVE",
"27 115 CURVE SMOOTH",
"27 35 OFFCURVE",
"65 -9 OFFCURVE",
"152 -9 CURVE SMOOTH",
"231 -9 OFFCURVE",
"288 30 OFFCURVE",
"329 118 CURVE SMOOTH",
"342 146 LINE",
"337 103 OFFCURVE",
"336 88 OFFCURVE",
"336 75 CURVE SMOOTH",
"336 43 OFFCURVE",
"346 11 OFFCURVE",
"366 -12 CURVE",
"492 38 LINE",
"482 54 OFFCURVE",
"458 92 OFFCURVE",
"458 152 CURVE SMOOTH",
"458 176 OFFCURVE",
"461 204 OFFCURVE",
"468 237 CURVE SMOOTH",
"519 493 LINE",
"365 493 LINE",
"333 331 LINE",
"315 239 OFFCURVE",
"258 119 OFFCURVE",
"207 119 CURVE SMOOTH",
"190 119 OFFCURVE",
"184 132 OFFCURVE",
"184 149 CURVE SMOOTH",
"184 225 OFFCURVE",
"236 304 OFFCURVE",
"236 385 CURVE SMOOTH",
"236 415 OFFCURVE",
"229 458 OFFCURVE",
"208 501 CURVE",
"74 468 LINE",
"81 445 OFFCURVE",
"84 413 OFFCURVE"
);
},
{
closed = 1;
nodes = (
"319 526 LINE",
"319 526 OFFCURVE",
"416 625 OFFCURVE",
"524 677 CURVE",
"493 754 OFFCURVE",
"439 789 OFFCURVE",
"439 789 CURVE",
"333 730 OFFCURVE",
"252 600 OFFCURVE",
"252 600 CURVE"
);
}
);
width = 547;
}
);
leftKerningGroup = u;
rightKerningGroup = u;
unicode = 00FA;
},
{
glyphname = ucircumflex;
lastChange = "2017-07-21 14:56:56 +0000";
layers = (
{
layerId = "3E88664E-E4A1-4C90-B697-57006E853054";
paths = (
{
closed = 1;
nodes = (
"101 403 CURVE SMOOTH",
"101 309 OFFCURVE",
"35 219 OFFCURVE",
"35 114 CURVE SMOOTH",
"35 40 OFFCURVE",
"74 -8 OFFCURVE",
"162 -8 CURVE SMOOTH",
"242 -8 OFFCURVE",
"309 37 OFFCURVE",
"349 129 CURVE SMOOTH",
"366 169 LINE",
"362 135 OFFCURVE",
"359 107 OFFCURVE",
"359 89 CURVE SMOOTH",
"359 47 OFFCURVE",
"373 13 OFFCURVE",
"393 -10 CURVE",
"484 26 LINE",
"469 48 OFFCURVE",
"447 80 OFFCURVE",
"447 145 CURVE SMOOTH",
"447 172 OFFCURVE",
"450 199 OFFCURVE",
"458 238 CURVE SMOOTH",
"511 490 LINE",
"399 490 LINE",
"368 331 LINE",
"347 221 OFFCURVE",
"275 82 OFFCURVE",
"203 82 CURVE SMOOTH",
"162 82 OFFCURVE",
"149 107 OFFCURVE",
"149 139 CURVE SMOOTH",
"149 226 OFFCURVE",
"209 303 OFFCURVE",
"209 396 CURVE SMOOTH",
"209 428 OFFCURVE",
"204 468 OFFCURVE",
"190 497 CURVE",
"95 473 LINE",
"99 459 OFFCURVE",
"101 430 OFFCURVE"
);
},
{
closed = 1;
nodes = (
"210 543 LINE",
"210 543 OFFCURVE",
"272 592 OFFCURVE",
"333 640 CURVE",
"385 583 OFFCURVE",
"449 544 OFFCURVE",
"449 544 CURVE",
"497 589 LINE",
"497 589 OFFCURVE",
"417 690 OFFCURVE",
"359 778 CURVE",
"278 722 OFFCURVE",
"160 591 OFFCURVE",
"160 591 CURVE"
);
}
);
width = 546;
},
{
layerId = "A97BF1D1-A3CC-43F5-9A06-B7BB37BB129E";
paths = (
{
closed = 1;
nodes = (
"84 391 CURVE SMOOTH",
"84 313 OFFCURVE",
"27 220 OFFCURVE",
"27 115 CURVE SMOOTH",
"27 35 OFFCURVE",
"65 -9 OFFCURVE",
"152 -9 CURVE SMOOTH",
"231 -9 OFFCURVE",
"288 30 OFFCURVE",
"329 118 CURVE SMOOTH",
"342 146 LINE",
"337 103 OFFCURVE",
"336 88 OFFCURVE",
"336 75 CURVE SMOOTH",
"336 43 OFFCURVE",
"346 11 OFFCURVE",
"366 -12 CURVE",
"492 38 LINE",
"482 54 OFFCURVE",
"458 92 OFFCURVE",
"458 152 CURVE SMOOTH",
"458 176 OFFCURVE",
"461 204 OFFCURVE",
"468 237 CURVE SMOOTH",
"519 493 LINE",
"365 493 LINE",
"333 331 LINE",
"315 239 OFFCURVE",
"258 119 OFFCURVE",
"207 119 CURVE SMOOTH",
"190 119 OFFCURVE",
"184 132 OFFCURVE",
"184 149 CURVE SMOOTH",
"184 225 OFFCURVE",
"236 304 OFFCURVE",
"236 385 CURVE SMOOTH",
"236 415 OFFCURVE",
"229 458 OFFCURVE",
"208 501 CURVE",
"74 468 LINE",
"81 445 OFFCURVE",
"84 413 OFFCURVE"
);
},
{
closed = 1;
nodes = (
"215 534 LINE",
"215 534 OFFCURVE",
"269 578 OFFCURVE",
"331 626 CURVE",
"384 568 OFFCURVE",
"441 534 OFFCURVE",
"441 534 CURVE",
"514 600 LINE",
"514 600 OFFCURVE",
"430 696 OFFCURVE",
"363 797 CURVE",
"273 736 OFFCURVE",
"142 600 OFFCURVE",
"142 600 CURVE"
);
}
);
width = 547;
}
);
leftKerningGroup = u;
rightKerningGroup = u;
unicode = 00FB;
},
